<?xml version="1.0" encoding="UTF-8"?>
<svg width="766px" height="466px" viewBox="0 0 766 466" version="1.1" xmlns="http://www.w3.org/2000/svg" xmlns:xlink="http://www.w3.org/1999/xlink">
    <title>product_result@1x</title>
    <g id="product_result" stroke="none" stroke-width="1" fill="none" fill-rule="evenodd">
        <rect id="Rectangle" fill="#FFFFFF" x="180.65346" y="21" width="563.875066" height="424" rx="7.212726"></rect>
        <g id="gridProduct" opacity="0.410835629" transform="translate(218.324037, 4.430380)">
            <rect id="Rectangle-Copy-13" fill="#E2E6E7" x="0" y="0" width="150.734265" height="224" rx="5"></rect>
            <rect id="Rectangle" fill="#FFFFFF" x="12.5145346" y="15.4044304" width="121.637289" height="95.2113568" rx="4.26584808"></rect>
            <rect id="Rectangle-Copy-10" fill-opacity="0.138931381" fill="#243C47" x="12.5145346" y="135.486649" width="49.996113" height="4.56786119" rx="2.2839306"></rect>
            <rect id="Rectangle-Copy-10" fill="#1E3D49" x="12.5145346" y="117.901526" width="121.504498" height="9.9350981" rx="4.26584808"></rect>
            <rect id="Rectangle-Copy-10" fill="#0086B2" x="12.5145346" y="189.884875" width="121.504498" height="22.5195557" rx="11.2597778"></rect>
            <rect id="Rectangle-Copy-10" fill="#FDCB5B" x="86.2016653" y="135.486649" width="46.2902613" height="46.0326212" rx="23.0163106"></rect>
            <rect id="Rectangle-Copy-30" fill-opacity="0.138931381" fill="#243C47" x="12.5145346" y="157.412383" width="46.1550115" height="4.56786119" rx="2.2839306"></rect>
            <rect id="Rectangle-Copy-31" fill-opacity="0.138931381" fill="#243C47" x="12.5145346" y="146.449516" width="68.1885897" height="4.56786119" rx="2.2839306"></rect>
        </g>
        <g id="gridProduct" opacity="0.410835629" transform="translate(388.695283, 4.430380)">
            <rect id="Rectangle-Copy-13" fill="#E2E6E7" x="0" y="0" width="150.734265" height="224" rx="5"></rect>
            <rect id="Rectangle" fill="#FFFFFF" x="12.5145346" y="15.4044304" width="121.637289" height="95.2113568" rx="4.26584808"></rect>
            <rect id="Rectangle-Copy-10" fill-opacity="0.138931381" fill="#243C47" x="12.5145346" y="135.486649" width="49.996113" height="4.56786119" rx="2.2839306"></rect>
            <rect id="Rectangle-Copy-10" fill="#1E3D49" x="12.5145346" y="117.901526" width="121.504498" height="9.9350981" rx="4.26584808"></rect>
            <rect id="Rectangle-Copy-10" fill="#0086B2" x="12.5145346" y="189.884875" width="121.504498" height="22.5195557" rx="11.2597778"></rect>
            <rect id="Rectangle-Copy-10" fill="#FDCB5B" x="86.2016653" y="135.486649" width="46.2902613" height="46.0326212" rx="23.0163106"></rect>
            <rect id="Rectangle-Copy-30" fill-opacity="0.138931381" fill="#243C47" x="12.5145346" y="157.412383" width="46.1550115" height="4.56786119" rx="2.2839306"></rect>
            <rect id="Rectangle-Copy-31" fill-opacity="0.138931381" fill="#243C47" x="12.5145346" y="146.449516" width="68.1885897" height="4.56786119" rx="2.2839306"></rect>
        </g>
        <g id="gridProduct" opacity="0.410835629" transform="translate(218.324037, 247.750000)">
            <rect id="Rectangle-Copy-13" fill="#E2E6E7" x="0" y="0" width="150.734265" height="224" rx="5"></rect>
            <rect id="Rectangle" fill="#FFFFFF" x="12.5145346" y="15.4044304" width="121.637289" height="95.2113568" rx="4.26584808"></rect>
            <rect id="Rectangle-Copy-10" fill-opacity="0.138931381" fill="#243C47" x="12.5145346" y="135.486649" width="49.996113" height="4.56786119" rx="2.2839306"></rect>
            <rect id="Rectangle-Copy-10" fill="#1E3D49" x="12.5145346" y="117.901526" width="121.504498" height="9.9350981" rx="4.26584808"></rect>
            <rect id="Rectangle-Copy-10" fill="#0086B2" x="12.5145346" y="189.884875" width="121.504498" height="22.5195557" rx="11.2597778"></rect>
            <rect id="Rectangle-Copy-10" fill="#FDCB5B" x="86.2016653" y="135.486649" width="46.2902613" height="46.0326212" rx="23.0163106"></rect>
            <rect id="Rectangle-Copy-30" fill-opacity="0.138931381" fill="#243C47" x="12.5145346" y="157.412383" width="46.1550115" height="4.56786119" rx="2.2839306"></rect>
            <rect id="Rectangle-Copy-31" fill-opacity="0.138931381" fill="#243C47" x="12.5145346" y="146.449516" width="68.1885897" height="4.56786119" rx="2.2839306"></rect>
        </g>
        <g id="gridProduct" opacity="0.410835629" transform="translate(388.695283, 247.750000)">
            <rect id="Rectangle-Copy-13" fill="#E2E6E7" x="0" y="0" width="150.734265" height="224" rx="5"></rect>
            <rect id="Rectangle" fill="#FFFFFF" x="12.5145346" y="15.4044304" width="121.637289" height="95.2113568" rx="4.26584808"></rect>
            <rect id="Rectangle-Copy-10" fill-opacity="0.138931381" fill="#243C47" x="12.5145346" y="135.486649" width="49.996113" height="4.56786119" rx="2.2839306"></rect>
            <rect id="Rectangle-Copy-10" fill="#1E3D49" x="12.5145346" y="117.901526" width="121.504498" height="9.9350981" rx="4.26584808"></rect>
            <rect id="Rectangle-Copy-10" fill="#0086B2" x="12.5145346" y="189.884875" width="121.504498" height="22.5195557" rx="11.2597778"></rect>
            <rect id="Rectangle-Copy-10" fill="#FDCB5B" x="86.2016653" y="135.486649" width="46.2902613" height="46.0326212" rx="23.0163106"></rect>
            <rect id="Rectangle-Copy-30" fill-opacity="0.138931381" fill="#243C47" x="12.5145346" y="157.412383" width="46.1550115" height="4.56786119" rx="2.2839306"></rect>
            <rect id="Rectangle-Copy-31" fill-opacity="0.138931381" fill="#243C47" x="12.5145346" y="146.449516" width="68.1885897" height="4.56786119" rx="2.2839306"></rect>
        </g>
        <g id="gridProduct" opacity="0.410835629" transform="translate(559.066529, 4.430380)">
            <rect id="Rectangle-Copy-13" fill="#E2E6E7" x="0" y="0" width="150.734265" height="224" rx="5"></rect>
            <rect id="Rectangle" fill="#FFFFFF" x="12.5145346" y="15.4044304" width="121.637289" height="95.2113568" rx="4.26584808"></rect>
            <rect id="Rectangle-Copy-10" fill-opacity="0.138931381" fill="#243C47" x="12.5145346" y="135.486649" width="49.996113" height="4.56786119" rx="2.2839306"></rect>
            <rect id="Rectangle-Copy-10" fill="#1E3D49" x="12.5145346" y="117.901526" width="121.504498" height="9.9350981" rx="4.26584808"></rect>
            <rect id="Rectangle-Copy-10" fill="#0086B2" x="12.5145346" y="189.884875" width="121.504498" height="22.5195557" rx="11.2597778"></rect>
            <rect id="Rectangle-Copy-10" fill="#FDCB5B" x="86.2016653" y="135.486649" width="46.2902613" height="46.0326212" rx="23.0163106"></rect>
            <rect id="Rectangle-Copy-30" fill-opacity="0.138931381" fill="#243C47" x="12.5145346" y="157.412383" width="46.1550115" height="4.56786119" rx="2.2839306"></rect>
            <rect id="Rectangle-Copy-31" fill-opacity="0.138931381" fill="#243C47" x="12.5145346" y="146.449516" width="68.1885897" height="4.56786119" rx="2.2839306"></rect>
        </g>
        <rect id="Rectangle" fill-opacity="0.69172295" fill="#1E3D49" x="180.65346" y="21" width="563.875066" height="424" rx="7.212726"></rect>
        <g id="gridProduct" opacity="0.410835629" transform="translate(559.066529, 247.750000)">
            <rect id="Rectangle-Copy-13" fill="#E2E6E7" x="0" y="0" width="150.734265" height="224" rx="5"></rect>
            <rect id="Rectangle" fill="#FFFFFF" x="12.5145346" y="15.4044304" width="121.637289" height="95.2113568" rx="4.26584808"></rect>
            <rect id="Rectangle-Copy-10" fill-opacity="0.138931381" fill="#243C47" x="12.5145346" y="135.486649" width="49.996113" height="4.56786119" rx="2.2839306"></rect>
            <rect id="Rectangle-Copy-10" fill="#1E3D49" x="12.5145346" y="117.901526" width="121.504498" height="9.9350981" rx="4.26584808"></rect>
            <rect id="Rectangle-Copy-10" fill="#0086B2" x="12.5145346" y="189.884875" width="121.504498" height="22.5195557" rx="11.2597778"></rect>
            <rect id="Rectangle-Copy-10" fill="#FDCB5B" x="86.2016653" y="135.486649" width="46.2902613" height="46.0326212" rx="23.0163106"></rect>
            <rect id="Rectangle-Copy-30" fill-opacity="0.138931381" fill="#243C47" x="12.5145346" y="157.412383" width="46.1550115" height="4.56786119" rx="2.2839306"></rect>
            <rect id="Rectangle-Copy-31" fill-opacity="0.138931381" fill="#243C47" x="12.5145346" y="146.449516" width="68.1885897" height="4.56786119" rx="2.2839306"></rect>
        </g>
        <path d="M737.3158,-0.442545 L187.866186,-0.442545 C172.040316,-0.442545 159.210915,12.3868568 159.210915,28.212726 L159.210915,437.787274 C159.210915,453.613143 172.040316,466.442545 187.866186,466.442545 L737.3158,466.442545 C753.141669,466.442545 765.971071,453.613143 765.971071,437.787274 L765.971071,28.212726 C765.971071,12.3868568 753.141669,-0.442545 737.3158,-0.442545 Z M737.3158,21 C741.299278,21 744.528526,24.2292474 744.528526,28.212726 L744.528526,437.787274 C744.528526,441.770753 741.299278,445 737.3158,445 L187.866186,445 C183.882707,445 180.65346,441.770753 180.65346,437.787274 L180.65346,28.212726 C180.65346,24.2292474 183.882707,21 187.866186,21 L737.3158,21 Z" id="Rectangle" fill="#202020" fill-rule="nonzero"></path>
        <rect id="Rectangle-Copy-13" fill="#E2E6E7" x="57.3026902" y="62" width="222.957497" height="363" rx="7"></rect>
        <rect id="Rectangle" fill="#FFFFFF" x="78" y="104" width="183.2" height="143.75" rx="4.26584808"></rect>
        <rect id="Rectangle-Copy-10" fill="#1E3D49" x="78" y="258.75" width="183" height="15" rx="4.26584808"></rect>
        <rect id="Rectangle-Copy-10" fill="#0086B2" x="103.5" y="375.93038" width="132" height="34" rx="17"></rect>
        <rect id="Rectangle-Copy-10" fill="#FDCB5B" x="191.481447" y="299.5" width="69.7185535" height="69.5" rx="34.75"></rect>
        <g id="Group" transform="translate(79.350000, 76.380380)" fill="#243C47">
            <polygon id="Star" points="55.35 11.25 50.9416106 13.5676275 51.7835381 8.65881373 48.2170761 5.18237254 53.1458053 4.46618627 55.35 0 57.5541947 4.46618627 62.4829239 5.18237254 58.9164619 8.65881373 59.7583894 13.5676275"></polygon>
            <polygon id="Star" points="7.5 11.25 3.09161061 13.5676275 3.93353806 8.65881373 0.367076128 5.18237254 5.2958053 4.46618627 7.5 0 9.7041947 4.46618627 14.6329239 5.18237254 11.0664619 8.65881373 11.9083894 13.5676275"></polygon>
            <polygon id="Star" points="23.45 11.25 19.0416106 13.5676275 19.8835381 8.65881373 16.3170761 5.18237254 21.2458053 4.46618627 23.45 0 25.6541947 4.46618627 30.5829239 5.18237254 27.0164619 8.65881373 27.8583894 13.5676275"></polygon>
            <polygon id="Star" points="39.4 11.25 34.9916106 13.5676275 35.8335381 8.65881373 32.2670761 5.18237254 37.1958053 4.46618627 39.4 0 41.6041947 4.46618627 46.5329239 5.18237254 42.9664619 8.65881373 43.8083894 13.5676275"></polygon>
            <polygon id="Star" points="71.3 11.25 66.8916106 13.5676275 67.7335381 8.65881373 64.1670761 5.18237254 69.0958053 4.46618627 71.3 0 73.5041947 4.46618627 78.4329239 5.18237254 74.8664619 8.65881373 75.7083894 13.5676275"></polygon>
        </g>
        <g id="€" transform="translate(205.890548, 316.437475)" fill="#1E3D49" fill-rule="nonzero">
            <path d="M23.2455275,29.286465 C26.8217625,29.286465 29.8341767,27.9494042 32.28277,25.2752825 L36.2939525,29.1414825 C34.7474725,30.9779275 32.8224271,32.379425 30.5188162,33.345975 C28.2152054,34.312525 25.6780117,34.7958 22.907235,34.7958 C20.10424,34.7958 17.5026096,34.2803067 15.1023437,33.24932 C12.7020779,32.2183333 10.6723229,30.7685083 9.01307875,28.899845 C7.35383458,27.0311817 6.18592,24.8725533 5.509335,22.42396 L0,22.42396 L0,19.041035 L4.8810775,19.041035 C4.84885917,18.6866333 4.83275,18.1389217 4.83275,17.3979 C4.83275,16.6568783 4.84885917,16.1091667 4.8810775,15.754765 L0,15.754765 L0,12.37184 L5.509335,12.37184 C6.18592,9.92324667 7.35383458,7.76461833 9.01307875,5.895955 C10.6723229,4.02729167 12.7020779,2.57746667 15.1023437,1.54648 C17.5026096,0.515493333 20.10424,0 22.907235,0 C25.6780117,0 28.2152054,0.483275 30.5188162,1.449825 C32.8224271,2.416375 34.7474725,3.8178725 36.2939525,5.6543175 L32.28277,9.47219 C29.8341767,6.83028667 26.8217625,5.509335 23.2455275,5.509335 C20.6680608,5.509335 18.4047229,6.12148333 16.4555137,7.34578 C14.5063046,8.57007667 13.0645342,10.24543 12.1302025,12.37184 L26.000195,12.37184 L26.000195,15.754765 L11.21198,15.754765 C11.1475433,16.4635683 11.115325,17.01128 11.115325,17.3979 C11.115325,17.78452 11.1475433,18.3322317 11.21198,19.041035 L26.000195,19.041035 L26.000195,22.42396 L12.1302025,22.42396 C13.0645342,24.55037 14.5063046,26.2257233 16.4555137,27.45002 C18.4047229,28.6743167 20.6680608,29.286465 23.2455275,29.286465 Z" id="Path"></path>
        </g>
        <rect id="Rectangle-Copy-30" fill="#243C47" x="78" y="294.378276" width="69.5148515" height="6.89655172" rx="3.44827586"></rect>
        <rect id="Rectangle-Copy-31" fill="#243C47" x="78" y="281.851724" width="102.7" height="6.89655172" rx="3.44827586"></rect>
        <rect id="Rectangle-Copy-10" fill="#243C47" x="78" y="306.904828" width="55.3568647" height="6.89655172" rx="3.44827586"></rect>
        <rect id="Rectangle-Copy-30" fill="#243C47" x="78" y="331.957931" width="51.1039074" height="6.89655172" rx="3.44827586"></rect>
        <rect id="Rectangle-Copy-31" fill="#243C47" x="78" y="319.431379" width="75.5" height="6.89655172" rx="3.44827586"></rect>
        <path d="M208.341203,145.551609 C212.299814,150.769358 214.794229,158.314507 215.176272,166.063444 C215.536256,166.087566 215.899574,166.170339 216.24944,166.315313 C217.50968,166.836609 218.324037,168.052453 218.324037,169.41525 L218.324037,177.975656 C218.324037,179.129625 217.741911,180.187688 216.766541,180.806438 L202.024425,190.182646 C202.926082,197.049185 204.343821,204.873862 204.363862,204.988734 C204.380892,205.08 204.390181,205.172812 204.390181,205.265625 L204.390181,208.359375 C204.390181,208.702893 204.379938,209.044067 204.35974,209.382609 C204.38019,209.554013 204.390181,209.728982 204.390181,209.90625 L204.320371,209.906645 C203.535381,218.566249 196.22784,225.375 187.359913,225.375 L177.166524,225.375 C175.492913,225.375 173.817754,224.979 172.320638,224.231859 L170.167083,223.155234 C169.29854,222.722109 168.264338,222.722109 167.395794,223.155234 L165.24224,224.231859 C163.745124,224.979 162.069965,225.375 160.396354,225.375 L150.202965,225.375 C141.335037,225.375 134.027497,218.566249 133.242506,209.906645 L133.172697,209.90625 C133.172697,209.728982 133.182688,209.554013 133.202137,209.381875 C133.18294,209.044067 133.172697,208.702893 133.172697,208.359375 L133.172697,205.265625 C133.172697,205.172812 133.181986,205.08 133.199016,204.988734 C133.214775,204.898408 134.094734,200.040638 134.908443,194.630373 L135.016463,193.9061 L135.070026,193.542202 L135.070026,193.542202 L135.175949,192.81227 C135.30247,191.931681 135.424613,191.048919 135.538518,190.181464 L120.794788,180.806437 C119.820967,180.187687 119.238841,179.129625 119.238841,177.975656 L119.238841,169.41525 C119.238841,168.052453 120.053198,166.836609 121.313437,166.315312 C121.663025,166.170809 122.025504,166.088221 122.387374,166.064707 C122.430185,165.148381 122.503863,164.232795 122.60619,163.32675 L125.684023,163.674797 C125.54004,164.940141 125.457985,166.225594 125.43631,167.504859 L136.093989,178.152369 C135.778144,174.719753 135.036175,171.558647 133.877131,168.716062 L136.744408,167.548172 C138.484592,171.812906 139.365521,176.696391 139.365521,182.0625 C139.365521,188.090672 136.584943,203.655328 136.269109,205.404844 L136.269006,205.530643 C136.753505,205.359042 137.274705,205.265625 137.817315,205.265625 C139.91049,205.265625 141.683186,206.654719 142.262215,208.558922 C144.168057,209.137453 145.558346,210.908625 145.558346,213 C145.558346,215.091375 144.168057,216.864094 142.259119,217.441078 C142.072854,218.051466 141.763047,218.617567 141.350775,219.10272 C143.758049,221.087204 146.843479,222.28125 150.202965,222.28125 L160.396354,222.28125 C161.590021,222.28125 162.788333,221.998172 163.856595,221.4645 L166.011698,220.387875 C166.40426,220.192287 166.813853,220.04094 167.232771,219.933832 L167.233233,214.546875 L170.329645,214.546875 L170.329352,219.933639 C170.748533,220.040758 171.158382,220.19217 171.55118,220.387875 L173.706283,221.4645 C174.774545,221.998172 175.972857,222.28125 177.166524,222.28125 L187.359913,222.28125 C190.719399,222.28125 193.804829,221.087204 196.213645,219.101712 C195.799831,218.617567 195.490023,218.051466 195.303759,217.441078 C193.394821,216.864094 192.004532,215.091375 192.004532,213 C192.004532,210.908625 193.394821,209.137453 195.300663,208.558922 C195.879692,206.654719 197.652388,205.265625 199.745563,205.265625 C200.288173,205.265625 200.809373,205.359042 201.293872,205.530643 L201.293769,205.404844 C200.977935,203.655328 198.197356,188.090672 198.197356,182.0625 C198.197356,176.699484 199.078286,171.819094 200.815373,167.557453 L203.682651,168.723797 C202.526195,171.564448 201.784928,174.723439 201.469097,178.152595 L212.126567,167.504859 C212.002711,159.91125 209.685046,152.444484 205.873363,147.420234 L208.341203,145.551609 Z M157.943996,205.265625 C160.03717,205.265625 161.809866,206.654719 162.388896,208.558922 C164.294737,209.137453 165.685027,210.908625 165.685027,213 C165.685027,215.089828 164.294737,216.862547 162.388896,217.441078 C161.809866,219.345281 160.03717,220.734375 157.943996,220.734375 C155.850821,220.734375 154.078125,219.345281 153.499096,217.441078 C151.593254,216.862547 150.202965,215.089828 150.202965,213 C150.202965,210.908625 151.593254,209.137453 153.499096,208.558922 C154.078125,206.654719 155.850821,205.265625 157.943996,205.265625 Z M179.618882,205.265625 C181.712057,205.265625 183.484753,206.654719 184.063782,208.558922 C185.969624,209.137453 187.359913,210.908625 187.359913,213 C187.359913,215.089828 185.969624,216.862547 184.063782,217.441078 C183.484753,219.345281 181.712057,220.734375 179.618882,220.734375 C177.525707,220.734375 175.753011,219.345281 175.173982,217.441078 C173.26814,216.862547 171.877851,215.089828 171.877851,213 C171.877851,210.908625 173.26814,209.137453 175.173982,208.558922 C175.753011,206.654719 177.525707,205.265625 179.618882,205.265625 Z M157.943996,208.359375 C157.089386,208.359375 156.395789,209.052375 156.395789,209.90625 C156.395789,210.760125 155.703741,211.453125 154.847583,211.453125 C153.992973,211.453125 153.299377,212.146125 153.299377,213 C153.299377,213.852328 153.992973,214.546875 154.847583,214.546875 C155.703741,214.546875 156.395789,215.239875 156.395789,216.09375 C156.395789,216.946078 157.089386,217.640625 157.943996,217.640625 C158.798605,217.640625 159.492202,216.946078 159.492202,216.09375 C159.492202,215.239875 160.18425,214.546875 161.040408,214.546875 C161.895018,214.546875 162.588614,213.852328 162.588614,213 C162.588614,212.146125 161.895018,211.453125 161.040408,211.453125 C160.18425,211.453125 159.492202,210.760125 159.492202,209.90625 C159.492202,209.052375 158.798605,208.359375 157.943996,208.359375 Z M179.618882,208.359375 C178.764272,208.359375 178.070676,209.052375 178.070676,209.90625 C178.070676,210.760125 177.378628,211.453125 176.52247,211.453125 C175.66786,211.453125 174.974264,212.146125 174.974264,213 C174.974264,213.852328 175.66786,214.546875 176.52247,214.546875 C177.378628,214.546875 178.070676,215.239875 178.070676,216.09375 C178.070676,216.946078 178.764272,217.640625 179.618882,217.640625 C180.473492,217.640625 181.167088,216.946078 181.167088,216.09375 C181.167088,215.239875 181.859137,214.546875 182.715295,214.546875 C183.569904,214.546875 184.263501,213.852328 184.263501,213 C184.263501,212.146125 183.569904,211.453125 182.715295,211.453125 C181.859137,211.453125 181.167088,210.760125 181.167088,209.90625 C181.167088,209.052375 180.473492,208.359375 179.618882,208.359375 Z M199.745563,208.359375 C198.890953,208.359375 198.197356,209.052375 198.197356,209.90625 C198.197356,210.760125 197.505308,211.453125 196.64915,211.453125 C195.79454,211.453125 195.100944,212.146125 195.100944,213 C195.100944,213.852328 195.79454,214.546875 196.64915,214.546875 C197.505308,214.546875 198.197356,215.239875 198.197356,216.09375 C198.197356,216.361621 198.267747,216.621348 198.39548,216.849211 C199.989445,214.786002 201.017078,212.26645 201.245478,209.523877 C201.074928,208.854229 200.467733,208.359375 199.745563,208.359375 Z M137.817315,208.359375 C137.095145,208.359375 136.48795,208.854229 136.317099,209.522844 C136.545763,212.26601 137.573103,214.785194 139.165609,216.847595 C139.295338,216.620581 139.365521,216.361225 139.365521,216.09375 C139.365521,215.239875 140.05757,214.546875 140.913728,214.546875 C141.768337,214.546875 142.461934,213.852328 142.461934,213 C142.461934,212.146125 141.768337,211.453125 140.913728,211.453125 C140.05757,211.453125 139.365521,210.760125 139.365521,209.90625 C139.365521,209.052375 138.671925,208.359375 137.817315,208.359375 Z M159.492202,211.453125 L159.492202,214.546875 L156.395789,214.546875 L156.395789,211.453125 L159.492202,211.453125 Z M181.167088,211.453125 L181.167088,214.546875 L178.070676,214.546875 L178.070676,211.453125 L181.167088,211.453125 Z M185.74823,126.375 C190.077015,126.375 193.356116,127.802766 195.49264,130.621172 C197.278335,132.976654 197.981342,135.981833 198.15325,138.851504 C201.284775,139.268788 204.304127,140.991379 206.961752,143.894906 L204.679696,145.984734 C202.646485,143.764446 200.41584,142.402778 198.151213,141.983085 C197.976635,145.102377 197.355318,147.628599 197.179267,148.292962 L197.152758,148.391512 C197.145624,148.417592 197.140253,148.436813 197.136835,148.448906 C196.949502,149.117156 196.341057,149.578125 195.647461,149.578125 C181.829721,149.578125 170.329645,172.040297 170.329645,180.515625 L170.329645,211.453125 L167.233233,211.453125 L167.233233,180.515625 C167.233233,172.040297 155.733157,149.578125 141.915417,149.578125 C141.221821,149.578125 140.613376,149.117156 140.426043,148.448906 C140.422625,148.436813 140.417254,148.417592 140.41012,148.391512 L140.383611,148.292962 C140.207579,147.628669 139.586375,145.102915 139.411386,141.984614 C133.493197,143.092347 128.056706,150.619303 126.134551,160.695516 L123.092326,160.116984 C125.342396,148.320804 131.924942,139.860605 139.409411,138.851298 C139.581372,135.982531 140.284335,132.976928 142.070238,130.621172 C144.206762,127.802766 147.485863,126.375 151.814647,126.375 L185.74823,126.375 Z M190.456325,188.25 C192.5495,188.25 194.322196,189.639094 194.901225,191.543297 C196.807067,192.121828 198.197356,193.893 198.197356,195.984375 C198.197356,198.074203 196.807067,199.846922 194.901225,200.425453 C194.322196,202.329656 192.5495,203.71875 190.456325,203.71875 C188.363151,203.71875 186.590455,202.329656 186.011425,200.425453 C184.105584,199.846922 182.715295,198.074203 182.715295,195.984375 C182.715295,193.893 184.105584,192.121828 186.011425,191.543297 C186.590455,189.639094 188.363151,188.25 190.456325,188.25 Z M147.106552,188.25 C149.199727,188.25 150.972423,189.639094 151.551452,191.543297 C153.457294,192.121828 154.847583,193.893 154.847583,195.984375 C154.847583,198.074203 153.457294,199.846922 151.551452,200.425453 C150.972423,202.329656 149.199727,203.71875 147.106552,203.71875 C145.013378,203.71875 143.240682,202.329656 142.661652,200.425453 C140.755811,199.846922 139.365521,198.074203 139.365521,195.984375 C139.365521,193.893 140.755811,192.121828 142.661652,191.543297 C143.240682,189.639094 145.013378,188.25 147.106552,188.25 Z M190.456325,191.34375 C189.601716,191.34375 188.908119,192.03675 188.908119,192.890625 C188.908119,193.697062 188.290829,194.360003 187.500996,194.431175 L187.359913,194.4375 C186.505303,194.4375 185.811707,195.1305 185.811707,195.984375 C185.811707,196.836703 186.505303,197.53125 187.359913,197.53125 C188.216071,197.53125 188.908119,198.22425 188.908119,199.078125 C188.908119,199.930453 189.601716,200.625 190.456325,200.625 C191.310935,200.625 192.004532,199.930453 192.004532,199.078125 C192.004532,198.22425 192.69658,197.53125 193.552738,197.53125 C194.407348,197.53125 195.100944,196.836703 195.100944,195.984375 C195.100944,195.177937 194.482273,194.514997 193.693591,194.443825 L193.552738,194.4375 C192.69658,194.4375 192.004532,193.7445 192.004532,192.890625 C192.004532,192.03675 191.310935,191.34375 190.456325,191.34375 Z M147.106552,191.34375 C146.299421,191.34375 145.635909,191.961889 145.564677,192.749893 L145.558346,192.890625 C145.558346,193.697062 144.941056,194.360003 144.151223,194.431175 L144.01014,194.4375 C143.15553,194.4375 142.461934,195.1305 142.461934,195.984375 C142.461934,196.836703 143.15553,197.53125 144.01014,197.53125 C144.866298,197.53125 145.558346,198.22425 145.558346,199.078125 C145.558346,199.930453 146.251943,200.625 147.106552,200.625 C147.961162,200.625 148.654759,199.930453 148.654759,199.078125 C148.654759,198.22425 149.346807,197.53125 150.202965,197.53125 C151.057575,197.53125 151.751171,196.836703 151.751171,195.984375 C151.751171,195.1305 151.057575,194.4375 150.202965,194.4375 C149.346807,194.4375 148.654759,193.7445 148.654759,192.890625 C148.654759,192.03675 147.961162,191.34375 147.106552,191.34375 Z M192.004532,194.4375 L192.004532,197.53125 L188.908119,197.53125 L188.908119,194.4375 L192.004532,194.4375 Z M148.654759,194.4375 L148.654759,197.53125 L145.558346,197.53125 L145.558346,194.4375 L148.654759,194.4375 Z M215.226841,175.818 L201.515091,185.782615 C201.545849,186.105156 201.579351,186.436133 201.6153,186.774195 L215.105316,178.196859 C215.182726,178.147359 215.227624,178.065375 215.227624,177.975656 L215.226841,175.818 Z M122.334841,175.818 L122.335253,177.975656 C122.335253,178.065375 122.380151,178.147359 122.456014,178.196859 L135.947479,186.774525 C135.983488,186.435948 136.017043,186.104479 136.047844,185.781476 L122.334841,175.818 Z M181.167088,168.140625 C183.260263,168.140625 185.032959,169.529719 185.611988,171.433922 C187.51783,172.012453 188.908119,173.783625 188.908119,175.875 C188.908119,177.964828 187.51783,179.737547 185.611988,180.316078 C185.032959,182.220281 183.260263,183.609375 181.167088,183.609375 C179.073914,183.609375 177.301218,182.220281 176.722188,180.316078 C174.816347,179.737547 173.426057,177.964828 173.426057,175.875 C173.426057,173.783625 174.816347,172.012453 176.722188,171.433922 C177.301218,169.529719 179.073914,168.140625 181.167088,168.140625 Z M156.395789,168.140625 C158.488964,168.140625 160.26166,169.529719 160.840689,171.433922 C162.746531,172.012453 164.13682,173.783625 164.13682,175.875 C164.13682,177.964828 162.746531,179.737547 160.840689,180.316078 C160.26166,182.220281 158.488964,183.609375 156.395789,183.609375 C154.302615,183.609375 152.529919,182.220281 151.950889,180.316078 C150.045048,179.737547 148.654759,177.964828 148.654759,175.875 C148.654759,173.783625 150.045048,172.012453 151.950889,171.433922 C152.529919,169.529719 154.302615,168.140625 156.395789,168.140625 Z M122.497815,169.172391 C122.335253,169.240453 122.335253,169.367297 122.335253,169.41525 L122.334841,171.993 L134.120841,180.557 L122.794855,169.239313 C122.702528,169.160173 122.620345,169.120596 122.497815,169.172391 Z M214.780193,169.229625 C214.777824,169.230435 214.775915,169.232352 214.774,169.234266 L203.441841,180.556 L215.226841,171.993 L215.226872,169.385337 C215.223109,169.326648 215.200531,169.229109 215.065063,169.172391 C214.904049,169.104328 214.812705,169.197141 214.780193,169.229625 Z M181.167088,171.234375 C180.312479,171.234375 179.618882,171.927375 179.618882,172.78125 C179.618882,173.635125 178.926834,174.328125 178.070676,174.328125 C177.216066,174.328125 176.52247,175.021125 176.52247,175.875 C176.52247,176.727328 177.216066,177.421875 178.070676,177.421875 C178.926834,177.421875 179.618882,178.114875 179.618882,178.96875 C179.618882,179.821078 180.312479,180.515625 181.167088,180.515625 C182.021698,180.515625 182.715295,179.821078 182.715295,178.96875 C182.715295,178.114875 183.407343,177.421875 184.263501,177.421875 C185.118111,177.421875 185.811707,176.727328 185.811707,175.875 C185.811707,175.021125 185.118111,174.328125 184.263501,174.328125 C183.407343,174.328125 182.715295,173.635125 182.715295,172.78125 C182.715295,171.927375 182.021698,171.234375 181.167088,171.234375 Z M156.395789,171.234375 C155.54118,171.234375 154.847583,171.927375 154.847583,172.78125 C154.847583,173.635125 154.155535,174.328125 153.299377,174.328125 C152.444767,174.328125 151.751171,175.021125 151.751171,175.875 C151.751171,176.727328 152.444767,177.421875 153.299377,177.421875 C154.155535,177.421875 154.847583,178.114875 154.847583,178.96875 C154.847583,179.821078 155.54118,180.515625 156.395789,180.515625 C157.250399,180.515625 157.943996,179.821078 157.943996,178.96875 C157.943996,178.114875 158.636044,177.421875 159.492202,177.421875 C160.346812,177.421875 161.040408,176.727328 161.040408,175.875 C161.040408,175.021125 160.346812,174.328125 159.492202,174.328125 C158.636044,174.328125 157.943996,173.635125 157.943996,172.78125 C157.943996,171.927375 157.250399,171.234375 156.395789,171.234375 Z M182.715295,174.328125 L182.715295,177.421875 L179.618882,177.421875 L179.618882,174.328125 L182.715295,174.328125 Z M157.943996,174.328125 L157.943996,177.421875 L154.847583,177.421875 L154.847583,174.328125 L157.943996,174.328125 Z M193.552738,154.21875 C195.645913,154.21875 197.418609,155.607844 197.997638,157.512047 C199.90348,158.090578 201.293769,159.86175 201.293769,161.953125 C201.293769,164.042953 199.90348,165.815672 197.997638,166.394203 C197.418609,168.298406 195.645913,169.6875 193.552738,169.6875 C191.459563,169.6875 189.686867,168.298406 189.107838,166.394203 C187.201996,165.815672 185.811707,164.042953 185.811707,161.953125 C185.811707,159.86175 187.201996,158.090578 189.107838,157.512047 C189.686867,155.607844 191.459563,154.21875 193.552738,154.21875 Z M144.01014,154.21875 C146.103315,154.21875 147.876011,155.607844 148.45504,157.512047 C150.360882,158.090578 151.751171,159.86175 151.751171,161.953125 C151.751171,164.042953 150.360882,165.815672 148.45504,166.394203 C147.876011,168.298406 146.103315,169.6875 144.01014,169.6875 C141.916965,169.6875 140.144269,168.298406 139.56524,166.394203 C137.659398,165.815672 136.269109,164.042953 136.269109,161.953125 C136.269109,159.86175 137.659398,158.090578 139.56524,157.512047 C140.144269,155.607844 141.916965,154.21875 144.01014,154.21875 Z M185.74823,129.46875 L151.814647,129.46875 C148.459685,129.46875 146.080092,130.455656 144.539627,132.48825 C141.416895,136.606031 142.564115,143.809828 143.147789,146.532328 C152.031396,147.212953 158.840407,155.112844 162.187629,159.906609 L162.50797,160.373276 C157.44166,147.326829 149.987665,135.148962 149.001012,133.561027 L148.946418,133.473369 C148.916121,133.424854 148.898141,133.396317 148.893182,133.388531 C148.59283,132.912094 148.574252,132.308812 148.846736,131.815359 C149.11922,131.321906 149.639418,131.015625 150.202965,131.015625 L179.618882,131.015625 L179.618882,134.109375 L152.96032,134.109375 C156.454621,139.968937 165.212824,155.508844 168.781439,169.616344 C172.350054,155.508844 181.108257,139.968937 184.602558,134.109375 L182.715295,134.109375 L182.715295,131.015625 L187.359913,131.015625 C187.92346,131.015625 188.443657,131.321906 188.716142,131.815359 C188.988626,132.308812 188.970048,132.912094 188.669696,133.388531 C188.548025,133.581182 180.45358,146.481567 175.060064,160.365013 L175.375249,159.906609 C178.722471,155.114391 185.531482,147.2145 194.411992,146.532328 C194.995666,143.805187 196.136694,136.585922 193.020155,132.485156 C191.478142,130.455656 189.100097,129.46875 185.74823,129.46875 Z M193.552738,157.3125 C192.698128,157.3125 192.004532,158.0055 192.004532,158.859375 C192.004532,159.71325 191.312483,160.40625 190.456325,160.40625 C189.601716,160.40625 188.908119,161.09925 188.908119,161.953125 C188.908119,162.805453 189.601716,163.5 190.456325,163.5 C191.312483,163.5 192.004532,164.193 192.004532,165.046875 C192.004532,165.899203 192.698128,166.59375 193.552738,166.59375 C194.407348,166.59375 195.100944,165.899203 195.100944,165.046875 C195.100944,164.193 195.792992,163.5 196.64915,163.5 C197.50376,163.5 198.197356,162.805453 198.197356,161.953125 C198.197356,161.09925 197.50376,160.40625 196.64915,160.40625 C195.792992,160.40625 195.100944,159.71325 195.100944,158.859375 C195.100944,158.0055 194.407348,157.3125 193.552738,157.3125 Z M144.01014,157.3125 C143.15553,157.3125 142.461934,158.0055 142.461934,158.859375 C142.461934,159.71325 141.769886,160.40625 140.913728,160.40625 C140.059118,160.40625 139.365521,161.09925 139.365521,161.953125 C139.365521,162.805453 140.059118,163.5 140.913728,163.5 C141.769886,163.5 142.461934,164.193 142.461934,165.046875 C142.461934,165.899203 143.15553,166.59375 144.01014,166.59375 C144.86475,166.59375 145.558346,165.899203 145.558346,165.046875 C145.558346,164.193 146.250394,163.5 147.106552,163.5 C147.961162,163.5 148.654759,162.805453 148.654759,161.953125 C148.654759,161.09925 147.961162,160.40625 147.106552,160.40625 C146.297959,160.40625 145.635747,159.788111 145.564664,159.000107 L145.558346,158.859375 C145.558346,158.0055 144.86475,157.3125 144.01014,157.3125 Z M204.843805,160.857937 L207.032969,163.046766 C207.028324,163.051406 206.147395,163.957875 205.08997,165.812578 L202.399188,164.282719 C203.659428,162.067594 204.72769,160.9755 204.843805,160.857937 Z M132.719072,160.859484 C132.836736,160.9755 133.901902,162.066047 135.162142,164.278078 L132.471359,165.809484 C131.415483,163.957875 130.533005,163.049859 130.523716,163.040578 L132.719072,160.859484 Z M195.100944,160.40625 L195.100944,163.5 L192.004532,163.5 L192.004532,160.40625 L195.100944,160.40625 Z M145.558346,160.40625 L145.558346,163.5 L142.461934,163.5 L142.461934,160.40625 L145.558346,160.40625 Z" id="Combined-Shape" fill="#8B6391"></path>
        <rect id="Rectangle" fill="#8B6391" x="270.083967" y="106.375" width="26.5" height="26.5" rx="4"></rect>
        <g id="A" transform="translate(278.699467, 114.525000)" fill="#FFFFFF" fill-rule="nonzero">
            <path d="M7.163,6.669 L2.093,6.669 L1.001,9.1 L0,9.1 L4.16,0 L5.109,0 L9.269,9.1 L8.255,9.1 L7.163,6.669 Z M6.812,5.889 L4.628,1.001 L2.444,5.889 L6.812,5.889 Z" id="Shape"></path>
        </g>
        <polyline id="Path-2" fill="#8B6391" transform="translate(268.083967, 120.000000) rotate(-180.000000) translate(-268.083967, -120.000000) " points="266.083967 116 266.083967 124 270.083967 120"></polyline>
        <polyline id="Path-2" fill="#0086B2" points="97.1465404 389.6 97.1465404 397.6 101.14654 393.6"></polyline>
        <polyline id="Path-2" fill="#1E3D49" points="68.0526902 80.1 68.0526902 88.1 72.0526902 84.1"></polyline>
        <rect id="Rectangle" fill="#1E3D49" x="42.5526902" y="70.6303797" width="26.5" height="26.5" rx="4"></rect>
        <g id="E" transform="translate(52.936190, 78.780380)" fill="#FFFFFF" fill-rule="nonzero">
            <polygon id="Path" points="6.435 8.268 6.435 9.1 0 9.1 0 0 6.24 0 6.24 0.832 0.962 0.832 0.962 4.069 5.668 4.069 5.668 4.888 0.962 4.888 0.962 8.268"></polygon>
        </g>
        <polyline id="Path-2" fill="#FDCB5B" transform="translate(267.010188, 333.400000) rotate(-180.000000) translate(-267.010188, -333.400000) " points="265.010188 329.4 265.010188 337.4 269.010188 333.4 268.094155 332.5"></polyline>
        <rect id="Rectangle" fill="#FDCB5B" transform="translate(281.611417, 334.250000) rotate(-180.000000) translate(-281.611417, -334.250000) " x="268.361417" y="321" width="26.5" height="26.5" rx="4"></rect>
        <g id="C" transform="translate(281.663417, 334.700000) rotate(-360.000000) translate(-281.663417, -334.700000) translate(277.613917, 330.072000)" fill="#1E3D49" fill-rule="nonzero">
            <path d="M4.758,9.256 C3.85666667,9.256 3.04416667,9.05666667 2.3205,8.658 C1.59683333,8.25933333 1.02916667,7.70683333 0.6175,7.0005 C0.205833333,6.29416667 -6.22664786e-13,5.50333333 -6.22664786e-13,4.628 C-6.22664786e-13,3.75266667 0.205833333,2.96183333 0.6175,2.2555 C1.02916667,1.54916667 1.599,0.996666667 2.327,0.598 C3.055,0.199333333 3.86966667,0 4.771,0 C5.447,0 6.071,0.112666667 6.643,0.338 C7.215,0.563333333 7.70033333,0.892666667 8.099,1.326 L7.488,1.937 C6.77733333,1.21766667 5.88033333,0.858 4.797,0.858 C4.07766667,0.858 3.42333333,1.02266667 2.834,1.352 C2.24466667,1.68133333 1.78316667,2.132 1.4495,2.704 C1.11583333,3.276 0.949,3.91733333 0.949,4.628 C0.949,5.33866667 1.11583333,5.98 1.4495,6.552 C1.78316667,7.124 2.24466667,7.57466667 2.834,7.904 C3.42333333,8.23333333 4.07766667,8.398 4.797,8.398 C5.889,8.398 6.786,8.034 7.488,7.306 L8.099,7.917 C7.70033333,8.35033333 7.21283333,8.68183333 6.6365,8.9115 C6.06016667,9.14116667 5.434,9.256 4.758,9.256 Z" id="Path"></path>
        </g>
        <rect id="Rectangle" fill="#1E3D49" transform="translate(287.396540, 266.250000) rotate(-180.000000) translate(-287.396540, -266.250000) " x="274.14654" y="253" width="26.5" height="26.5" rx="4"></rect>
        <g id="B" transform="translate(287.780040, 265.700000) rotate(-360.000000) translate(-287.780040, -265.700000) translate(283.977540, 261.150000)" fill="#FFFFFF" fill-rule="nonzero">
            <path d="M5.733,4.407 C6.331,4.537 6.7925,4.79483333 7.1175,5.1805 C7.4425,5.56616667 7.605,6.06233333 7.605,6.669 C7.605,7.449 7.31683333,8.04916667 6.7405,8.4695 C6.16416667,8.88983333 5.31266667,9.1 4.186,9.1 L2.69948894e-13,9.1 L2.69948894e-13,-2.27373675e-13 L3.926,-2.27373675e-13 C4.94,-2.27373675e-13 5.7265,0.203666667 6.2855,0.611 C6.8445,1.01833333 7.124,1.59466667 7.124,2.34 C7.124,2.84266667 7.0005,3.2695 6.7535,3.6205 C6.5065,3.9715 6.16633333,4.23366667 5.733,4.407 Z M0.962,0.793 L0.962,4.095 L3.861,4.095 C4.59766667,4.095 5.16533333,3.95416667 5.564,3.6725 C5.96266667,3.39083333 6.162,2.98133333 6.162,2.444 C6.162,1.90666667 5.96266667,1.49716667 5.564,1.2155 C5.16533333,0.933833333 4.59766667,0.793 3.861,0.793 L0.962,0.793 Z M4.173,8.307 C4.98766667,8.307 5.603,8.16833333 6.019,7.891 C6.435,7.61366667 6.643,7.18033333 6.643,6.591 C6.643,5.45566667 5.81966667,4.888 4.173,4.888 L0.962,4.888 L0.962,8.307 L4.173,8.307 Z" id="Shape"></path>
        </g>
        <polyline id="Path-2" fill="#1E3D49" transform="translate(273.146540, 266.250000) rotate(-180.000000) translate(-273.146540, -266.250000) " points="271.14654 262.25 271.14654 270.25 275.14654 266.25"></polyline>
        <rect id="Rectangle" fill="#0086B2" x="70.6465404" y="379.68038" width="26.5" height="26.5" rx="4"></rect>
        <g id="F" transform="translate(81.264040, 387.830380)" fill="#FFFFFF" fill-rule="nonzero">
            <polygon id="Path" points="0.962 0.832 0.962 4.407 5.668 4.407 5.668 5.239 0.962 5.239 0.962 9.1 0 9.1 0 0 6.24 0 6.24 0.832"></polygon>
        </g>
        <rect id="Rectangle" fill="#FFFFFF" x="443" y="178.75" width="26.5" height="26.5" rx="4"></rect>
        <g id="D" transform="translate(452.363000, 186.900000)" fill="#0086B2" fill-rule="nonzero">
            <path d="M0,0 L3.705,0 C4.667,0 5.51633333,0.192833333 6.253,0.5785 C6.98966667,0.964166667 7.56166667,1.5015 7.969,2.1905 C8.37633333,2.8795 8.58,3.666 8.58,4.55 C8.58,5.434 8.37633333,6.2205 7.969,6.9095 C7.56166667,7.5985 6.98966667,8.13583333 6.253,8.5215 C5.51633333,8.90716667 4.667,9.1 3.705,9.1 L0,9.1 L0,0 Z M3.653,8.268 C4.45033333,8.268 5.148,8.10983333 5.746,7.7935 C6.344,7.47716667 6.80766667,7.0395 7.137,6.4805 C7.46633333,5.9215 7.631,5.278 7.631,4.55 C7.631,3.822 7.46633333,3.1785 7.137,2.6195 C6.80766667,2.0605 6.344,1.62283333 5.746,1.3065 C5.148,0.990166667 4.45033333,0.832 3.653,0.832 L0.962,0.832 L0.962,8.268 L3.653,8.268 Z" id="Shape"></path>
        </g>
        <path d="M443,184 L318.333333,184 C313.915055,184 310.333333,180.418278 310.333333,176 L310.333333,129 C310.333333,124.581722 306.751611,121 302.333333,121 L297.296296,121 L297.296296,121" id="Path-3" stroke="#D3D3D3" stroke-dasharray="2"></path>
        <path d="M443,267.087217 L320,267.087217 C315.581722,267.087217 312,263.505495 312,259.087217 L312,203 C312,198.581722 308.418278,195 304,195 L300,195 L300,195" id="Path-3" stroke="#D3D3D3" stroke-dasharray="2" transform="translate(371.500000, 231.043608) scale(1, -1) translate(-371.500000, -231.043608) "></path>
        <path d="M443,343 L388,343 C383.581722,343 380,339.418278 380,335 L380,208 C380,203.581722 376.418278,200 372,200 L327,200 L327,200" id="Path-3" stroke="#D3D3D3" stroke-dasharray="2" transform="translate(385.000000, 271.500000) scale(1, -1) translate(-385.000000, -271.500000) "></path>
        <rect id="Rectangle" stroke="#D3D3D3" stroke-width="2" x="26" y="43" width="300" height="396" rx="16"></rect>
        <line x1="327" y1="394" x2="559" y2="394" id="Path-24" stroke="#D3D3D3" stroke-width="2"></line>
        <g id="ant-design:shopping-cart-outlined" transform="translate(154.000000, 380.000000)">
            <rect id="ViewBox" x="0" y="0" width="26.5" height="26.5"></rect>
            <path d="M23.8836426,17.6118896 L8.47275391,17.6118896 L9.2465332,16.0358643 L22.1031738,16.0125732 C22.5379395,16.0125732 22.9105957,15.7020264 22.9882324,15.2724365 L24.7687012,5.30646973 C24.8152832,5.04509277 24.7454102,4.77595215 24.5746094,4.57150879 C24.403755,4.36786558 24.1520487,4.24958257 23.8862305,4.24802246 L7.53076172,4.19367676 L7.39101562,3.53635254 C7.30302734,3.11711426 6.92519531,2.81174316 6.49560547,2.81174316 L2.49731445,2.81174316 C1.99278831,2.81174316 1.58378906,3.22074241 1.58378906,3.72526855 C1.58378906,4.2297947 1.99278831,4.63879395 2.49731445,4.63879395 L5.75546875,4.63879395 L6.36621094,7.54240723 L7.86977539,14.8221436 L5.9340332,17.981958 C5.72896288,18.2587395 5.69886336,18.6279602 5.85639648,18.9343018 C6.01166992,19.2422607 6.32480469,19.4363525 6.67158203,19.4363525 L8.29677734,19.4363525 C7.95030654,19.8965344 7.7631644,20.4570523 7.76367187,21.0330811 C7.76367187,22.4978271 8.95410156,23.6882568 10.4188477,23.6882568 C11.8835937,23.6882568 13.0740234,22.4978271 13.0740234,21.0330811 C13.0740234,20.4559814 12.8825195,19.8944092 12.540918,19.4363525 L16.7100098,19.4363525 C16.363539,19.8965344 16.1763968,20.4570523 16.1769043,21.0330811 C16.1769043,22.4978271 17.367334,23.6882568 18.8320801,23.6882568 C20.2968262,23.6882568 21.4872559,22.4978271 21.4872559,21.0330811 C21.4872559,20.4559814 21.295752,19.8944092 20.9541504,19.4363525 L23.8862305,19.4363525 C24.3882813,19.4363525 24.7997559,19.0274658 24.7997559,18.5228271 C24.7966266,18.0190125 24.3874669,17.6121644 23.8836426,17.6118896 Z M7.91118164,5.99484863 L22.8122559,6.04401855 L21.3526855,14.2165771 L9.64765625,14.2372803 L7.91118164,5.99484863 Z M10.4188477,21.8508545 C9.96855469,21.8508545 9.60107422,21.483374 9.60107422,21.0330811 C9.60107422,20.5827881 9.96855469,20.2153076 10.4188477,20.2153076 C10.8691406,20.2153076 11.2366211,20.5827881 11.2366211,21.0330811 C11.2366211,21.4847249 10.8704915,21.8508545 10.4188477,21.8508545 Z M18.8320801,21.8508545 C18.3817871,21.8508545 18.0143066,21.483374 18.0143066,21.0330811 C18.0143066,20.5827881 18.3817871,20.2153076 18.8320801,20.2153076 C19.282373,20.2153076 19.6498535,20.5827881 19.6498535,21.0330811 C19.6498535,21.4847249 19.2837239,21.8508545 18.8320801,21.8508545 L18.8320801,21.8508545 Z" id="Shape" fill="#FFFFFF" fill-rule="nonzero"></path>
        </g>
    </g>
</svg>