<svg width="461" height="454" xmlns="http://www.w3.org/2000/svg" xmlns:xlink="http://www.w3.org/1999/xlink">
    <defs>
        <path d="m157.102 126.668 289.494-13.535c2.163-.102 3.563 1.987 3.127 4.665l-12.886 79.082c-.436 2.677-2.543 4.834-4.706 4.816l-289.494-2.377c-2.164-.018-3.563-1.803-3.127-3.988l12.885-64.524c.437-2.185 2.544-4.038 4.707-4.139z" id="a"/>
        <path d="M80.365 96.926 362.72 84.989c4.332-.183 7.135 3.996 6.261 9.335-.874 5.339-5.094 9.775-9.425 9.909L77.2 112.946c-4.332.134-7.135-3.324-6.261-7.723.874-4.4 5.093-8.114 9.425-8.297z" id="b"/>
        <path d="m68.62 132.123 24.712-.438c.963-.017 1.586.779 1.392 1.777l-.41 2.11c-.195.998-1.133 1.818-2.095 1.83l-24.712.34c-.962.013-1.585-.77-1.391-1.748l.41-2.068c.195-.979 1.132-1.786 2.095-1.803z" id="c"/>
        <path d="m66.55 142.569 31.032-.318c.963-.01 1.586.795 1.391 1.797l-.41 2.12c-.194 1.002-1.132 1.82-2.095 1.825l-31.03.194c-.964.006-1.586-.782-1.392-1.76l.41-2.069c.194-.978 1.132-1.78 2.095-1.79z" id="d"/>
        <path d="m64.48 153.014 18.878-.052c.962-.003 1.585.8 1.391 1.795l-.41 2.1c-.194.995-1.132 1.8-2.095 1.799l-18.877-.024c-.963-.001-1.586-.795-1.392-1.774l.41-2.067c.195-.979 1.133-1.774 2.095-1.777z" id="e"/>
        <path d="m70.691 121.678 22.28-.561c.963-.024 1.586.764 1.392 1.76l-.41 2.106c-.194.997-1.132 1.821-2.095 1.841l-22.28.472c-.963.02-1.586-.756-1.392-1.735l.41-2.067c.195-.979 1.133-1.792 2.095-1.816z" id="f"/>
        <path d="m118.919 120.463 24.71-.622c.964-.025 1.586.792 1.392 1.824l-.41 2.181c-.194 1.032-1.132 1.885-2.095 1.906l-24.71.523c-.964.02-1.586-.784-1.392-1.796l.41-2.14c.194-1.011 1.132-1.852 2.095-1.876z" id="g"/>
        <path d="m116.849 131.267 31.031-.55c.963-.017 1.585.81 1.391 1.846l-.41 2.19c-.194 1.037-1.132 1.888-2.095 1.9l-31.031.426c-.963.013-1.585-.797-1.391-1.809l.41-2.14c.194-1.011 1.132-1.846 2.095-1.863z" id="h"/>
        <path d="m114.779 142.071 18.877-.193c.963-.01 1.585.815 1.391 1.843l-.41 2.172c-.194 1.028-1.132 1.866-2.095 1.872l-18.877.118c-.963.006-1.586-.81-1.391-1.822l.41-2.139c.194-1.012 1.132-1.84 2.095-1.85z" id="i"/>
        <path d="m112.709 152.875 22.28-.062c.963-.002 1.586.83 1.391 1.86l-.41 2.178c-.194 1.03-1.132 1.865-2.094 1.864l-22.281-.028c-.963 0-1.586-.822-1.391-1.835l.41-2.139c.194-1.012 1.132-1.835 2.095-1.838z" id="j"/>
        <path d="m166.366 130.391 24.711-.438c.963-.017 1.586.834 1.392 1.9l-.41 2.255c-.195 1.067-1.133 1.942-2.095 1.955l-24.712.339c-.962.013-1.585-.825-1.39-1.872l.41-2.212c.194-1.047 1.131-1.91 2.094-1.927z" id="k"/>
        <path d="m162.225 152.742 31.032-.086c.962-.003 1.585.863 1.391 1.934l-.41 2.264c-.194 1.071-1.132 1.938-2.095 1.937l-31.031-.038c-.963-.001-1.586-.85-1.392-1.898l.41-2.212c.195-1.047 1.133-1.898 2.095-1.9z" id="l"/>
        <path d="m168.436 119.216 18.878-.476c.962-.024 1.585.818 1.391 1.88l-.41 2.246c-.194 1.062-1.132 1.94-2.095 1.96l-18.877.4c-.963.02-1.586-.811-1.392-1.858l.41-2.213c.195-1.047 1.133-1.915 2.095-1.94z" id="m"/>
        <path d="m164.296 141.567 22.28-.229c.963-.01 1.586.846 1.392 1.91l-.41 2.251c-.195 1.065-1.133 1.933-2.095 1.94l-22.28.138c-.963.006-1.586-.837-1.392-1.884l.41-2.213c.194-1.047 1.132-1.904 2.095-1.913z" id="n"/>
        <path d="m215.696 118.025 24.711-.622c.963-.025 1.586.847 1.392 1.947l-.41 2.324c-.195 1.1-1.133 2.008-2.095 2.029l-24.712.523c-.962.02-1.585-.839-1.391-1.919l.41-2.282c.195-1.08 1.132-1.976 2.095-2z" id="o"/>
        <path d="m211.555 141.082 31.032-.318c.962-.01 1.585.877 1.391 1.981l-.41 2.334c-.195 1.104-1.132 2.004-2.095 2.01l-31.031.194c-.963.006-1.586-.865-1.392-1.945l.41-2.283c.195-1.08 1.133-1.963 2.095-1.973z" id="p"/>
        <path d="m213.626 129.554 18.877-.335c.963-.017 1.586.857 1.391 1.953l-.41 2.316c-.194 1.095-1.132 1.994-2.094 2.008l-18.878.258c-.963.013-1.585-.851-1.391-1.931l.41-2.283c.194-1.08 1.132-1.97 2.095-1.986z" id="q"/>
        <path d="m209.485 152.61 22.28-.061c.963-.003 1.586.885 1.392 1.983l-.41 2.32c-.195 1.099-1.132 1.988-2.095 1.987l-22.28-.028c-.963-.001-1.586-.877-1.392-1.957l.41-2.283c.195-1.08 1.132-1.958 2.095-1.96z" id="r"/>
        <path d="m135.976 215.752 50.545.69c1.604.022 2.642 1.415 2.318 3.112l-26.426 138.538c-.324 1.696-1.887 2.924-3.491 2.743l-50.545-5.724c-1.604-.182-2.643-1.65-2.32-3.281l26.428-133.165c.323-1.63 1.886-2.935 3.49-2.913z" id="s"/>
        <path d="m186.597 282.566 223.095 13.508c1.604.099 2.642 1.7 2.319 3.578l-6.036 34.994c-.323 1.876-1.886 3.28-3.49 3.138l-223.096-19.578c-1.604-.139-2.642-1.545-2.319-3.141l6.036-29.78c.323-1.597 1.886-2.814 3.49-2.719z" id="t"/>
        <path d="m305.168 55.026 59.84 30.473" id="u"/>
        <path d="m377.55 79.51 71.586 33.44" id="v"/>
        <path d="m155.758 201.696 31.848 15.135" id="w"/>
        <path d="m72.599 340.274 34.874 14.417" id="x"/>
        <path d="m66.062 262.884 111.15 53.736" id="y"/>
        <path d="m16.354 82.994 56.245 29.167" id="z"/>
        <path d="m358.941 209.913 65.07 36.716" id="A"/>
        <path d="m314.745 250.352 60.063 34.04" id="B"/>
        <path d="m301.094 234.404 109.294 61.55" id="C"/>
        <mask id="D" maskContentUnits="userSpaceOnUse" maskUnits="objectBoundingBox" x="0" y="0" width="310.372" height="88.567" fill="#fff">
            <use xlink:href="#a"/>
        </mask>
        <mask id="E" maskContentUnits="userSpaceOnUse" maskUnits="objectBoundingBox" x="0" y="0" width="298.36" height="27.967" fill="#fff">
            <use xlink:href="#b"/>
        </mask>
        <mask id="F" maskContentUnits="userSpaceOnUse" maskUnits="objectBoundingBox" x="0" y="0" width="28.678" height="6.056" fill="#fff">
            <use xlink:href="#c"/>
        </mask>
        <mask id="G" maskContentUnits="userSpaceOnUse" maskUnits="objectBoundingBox" x="0" y="0" width="34.999" height="5.936" fill="#fff">
            <use xlink:href="#d"/>
        </mask>
        <mask id="H" maskContentUnits="userSpaceOnUse" maskUnits="objectBoundingBox" x="0" y="0" width="22.845" height="5.694" fill="#fff">
            <use xlink:href="#e"/>
        </mask>
        <mask id="I" maskContentUnits="userSpaceOnUse" maskUnits="objectBoundingBox" x="0" y="0" width="26.248" height="6.18" fill="#fff">
            <use xlink:href="#f"/>
        </mask>
        <mask id="J" maskContentUnits="userSpaceOnUse" maskUnits="objectBoundingBox" x="0" y="0" width="28.678" height="6.435" fill="#fff">
            <use xlink:href="#g"/>
        </mask>
        <mask id="K" maskContentUnits="userSpaceOnUse" maskUnits="objectBoundingBox" x="0" y="0" width="34.999" height="6.362" fill="#fff">
            <use xlink:href="#h"/>
        </mask>
        <mask id="L" maskContentUnits="userSpaceOnUse" maskUnits="objectBoundingBox" x="0" y="0" width="22.845" height="6.006" fill="#fff">
            <use xlink:href="#i"/>
        </mask>
        <mask id="M" maskContentUnits="userSpaceOnUse" maskUnits="objectBoundingBox" x="0" y="0" width="26.248" height="5.901" fill="#fff">
            <use xlink:href="#j"/>
        </mask>
        <mask id="N" maskContentUnits="userSpaceOnUse" maskUnits="objectBoundingBox" x="0" y="0" width="28.678" height="6.449" fill="#fff">
            <use xlink:href="#k"/>
        </mask>
        <mask id="O" maskContentUnits="userSpaceOnUse" maskUnits="objectBoundingBox" x="0" y="0" width="34.999" height="6.135" fill="#fff">
            <use xlink:href="#l"/>
        </mask>
        <mask id="P" maskContentUnits="userSpaceOnUse" maskUnits="objectBoundingBox" x="0" y="0" width="22.845" height="6.487" fill="#fff">
            <use xlink:href="#m"/>
        </mask>
        <mask id="Q" maskContentUnits="userSpaceOnUse" maskUnits="objectBoundingBox" x="0" y="0" width="26.248" height="6.239" fill="#fff">
            <use xlink:href="#n"/>
        </mask>
        <mask id="R" maskContentUnits="userSpaceOnUse" maskUnits="objectBoundingBox" x="0" y="0" width="28.678" height="6.824" fill="#fff">
            <use xlink:href="#o"/>
        </mask>
        <mask id="S" maskContentUnits="userSpaceOnUse" maskUnits="objectBoundingBox" x="0" y="0" width="34.999" height="6.519" fill="#fff">
            <use xlink:href="#p"/>
        </mask>
        <mask id="T" maskContentUnits="userSpaceOnUse" maskUnits="objectBoundingBox" x="0" y="0" width="22.845" height="6.536" fill="#fff">
            <use xlink:href="#q"/>
        </mask>
        <mask id="U" maskContentUnits="userSpaceOnUse" maskUnits="objectBoundingBox" x="0" y="0" width="26.248" height="6.29" fill="#fff">
            <use xlink:href="#r"/>
        </mask>
        <mask id="V" maskContentUnits="userSpaceOnUse" maskUnits="objectBoundingBox" x="0" y="0" width="82.9" height="145.101" fill="#fff">
            <use xlink:href="#s"/>
        </mask>
        <mask id="W" maskContentUnits="userSpaceOnUse" maskUnits="objectBoundingBox" x="0" y="0" width="235.059" height="55.233" fill="#fff">
            <use xlink:href="#t"/>
        </mask>
        <mask id="X" maskContentUnits="userSpaceOnUse" maskUnits="objectBoundingBox" x="0" y="0" width="60.564" height="30.608" fill="#fff">
            <use xlink:href="#u"/>
        </mask>
        <mask id="Y" maskContentUnits="userSpaceOnUse" maskUnits="objectBoundingBox" x="0" y="0" width="72.286" height="33.864" fill="#fff">
            <use xlink:href="#v"/>
        </mask>
        <mask id="Z" maskContentUnits="userSpaceOnUse" maskUnits="objectBoundingBox" x="0" y="0" width="33" height="16" fill="#fff">
            <use xlink:href="#w"/>
        </mask>
        <mask id="aa" maskContentUnits="userSpaceOnUse" maskUnits="objectBoundingBox" x="0" y="0" width="36" height="15" fill="#fff">
            <use xlink:href="#x"/>
        </mask>
        <mask id="ab" maskContentUnits="userSpaceOnUse" maskUnits="objectBoundingBox" x="0" y="0" width="112.011" height="54.052" fill="#fff">
            <use xlink:href="#y"/>
        </mask>
        <mask id="ac" maskContentUnits="userSpaceOnUse" maskUnits="objectBoundingBox" x="0" y="0" width="56.657" height="29.305" fill="#fff">
            <use xlink:href="#z"/>
        </mask>
        <mask id="ad" maskContentUnits="userSpaceOnUse" maskUnits="objectBoundingBox" x="0" y="0" width="65.774" height="37.12" fill="#fff">
            <use xlink:href="#A"/>
        </mask>
        <mask id="ae" maskContentUnits="userSpaceOnUse" maskUnits="objectBoundingBox" x="0" y="0" width="61.216" height="34.515" fill="#fff">
            <use xlink:href="#B"/>
        </mask>
        <mask id="af" maskContentUnits="userSpaceOnUse" maskUnits="objectBoundingBox" x="0" y="0" width="110.058" height="61.867" fill="#fff">
            <use xlink:href="#C"/>
        </mask>
    </defs>
    <g fill="none" fill-rule="evenodd">
        <circle fill="#80C0A1" style="mix-blend-mode:darken" cx="227" cy="227" r="227"/>
        <path d="m151.74 117.869 304.896-14.256c2.278-.106 3.752 2.094 3.293 4.914l-47.707 285.836c-.46 2.82-2.68 4.885-4.957 4.613l-304.897-36.473c-2.278-.272-3.752-2.359-3.293-4.66l47.707-235.615c.46-2.301 2.679-4.253 4.957-4.36z" fill="#E7E7E7"/>
        <use stroke="#D3D3D3" mask="url(#D)" stroke-width="2" stroke-dasharray="3" xlink:href="#a"/>
        <path d="m195.472 239.64 35.149.892c1.604.04 2.642 1.497 2.319 3.252l-6.036 32.741c-.323 1.756-1.886 3.112-3.49 3.03l-35.15-1.805c-1.604-.082-2.642-1.534-2.318-3.241l6.035-31.85c.324-1.707 1.886-3.059 3.49-3.018zM242.53 240.834l35.15.89c1.604.041 2.643 1.542 2.319 3.352l-6.035 33.766c-.324 1.81-1.887 3.212-3.491 3.13l-35.15-1.806c-1.604-.082-2.642-1.578-2.318-3.34l6.035-32.874c.324-1.763 1.887-3.159 3.49-3.118zM289.59 242.026l35.15.891c1.604.041 2.642 1.586 2.318 3.452l-6.035 34.79c-.324 1.866-1.887 3.311-3.491 3.229l-35.15-1.805c-1.604-.082-2.642-1.623-2.318-3.44l6.035-33.899c.324-1.818 1.887-3.258 3.491-3.218zM336.65 243.22l35.148.89c1.605.04 2.643 1.63 2.32 3.551l-6.036 35.815c-.324 1.92-1.887 3.41-3.491 3.328L329.441 285c-1.603-.083-2.642-1.668-2.318-3.54l6.035-34.924c.324-1.872 1.887-3.357 3.491-3.317z" fill="#FFF" opacity=".426"/>
        <path d="m384.394 243.793 35.149.89c1.604.042 2.642 1.676 2.319 3.651l-6.036 36.84c-.323 1.976-1.886 3.51-3.49 3.428l-35.15-1.805c-1.604-.083-2.642-1.712-2.319-3.64l6.036-35.948c.323-1.927 1.886-3.457 3.49-3.416z" fill="#FDCB5B"/>
        <path d="m178.313 323.859 35.149 3.067c1.604.14 2.642 1.676 2.319 3.432l-6.036 32.74c-.323 1.757-1.886 3.032-3.49 2.85l-35.15-3.98c-1.604-.182-2.642-1.714-2.319-3.421l6.036-31.85c.323-1.707 1.886-2.978 3.49-2.838zM225.372 327.965l35.149 3.067c1.604.14 2.642 1.72 2.319 3.531l-6.036 33.766c-.323 1.81-1.886 3.131-3.49 2.95l-35.15-3.981c-1.604-.182-2.642-1.758-2.318-3.521l6.035-32.874c.324-1.763 1.886-3.078 3.49-2.938zM272.431 332.071l35.15 3.067c1.603.14 2.642 1.766 2.318 3.631l-6.035 34.79c-.324 1.866-1.887 3.231-3.491 3.05l-35.15-3.982c-1.604-.181-2.642-1.802-2.318-3.62l6.035-33.898c.324-1.818 1.887-3.178 3.491-3.038zM319.49 336.177l35.15 3.067c1.604.14 2.642 1.81 2.318 3.73l-6.035 35.816c-.324 1.92-1.887 3.33-3.491 3.148l-35.15-3.98c-1.604-.182-2.642-1.848-2.318-3.72l6.035-34.924c.324-1.872 1.887-3.277 3.491-3.137zM366.55 340.283l35.148 3.067c1.605.14 2.643 1.855 2.32 3.83l-6.036 36.84c-.324 1.976-1.887 3.43-3.49 3.248l-35.15-3.98c-1.604-.182-2.643-1.892-2.319-3.82l6.035-35.948c.324-1.928 1.887-3.377 3.491-3.237z" fill="#FFF" opacity=".426"/>
        <path d="m70.335 91.82 304.897-14.256c2.278-.107 3.753 2.093 3.293 4.914l-13.57 83.289c-.46 2.82-2.68 5.091-4.958 5.073L55.1 168.336c-2.278-.019-3.752-1.9-3.292-4.2l13.57-67.957c.46-2.301 2.68-4.253 4.957-4.36z" fill="#1E3D49"/>
        <path d="M304.13 55.532c1.981-.084 3.61.831 4.647 2.375 1.073 1.6 1.513 3.856 1.1 6.38-.42 2.567-1.644 4.917-3.285 6.642-1.607 1.69-3.617 2.784-5.662 2.847L18.575 82.49c-1.99.061-3.636-.69-4.679-1.977-1.05-1.295-1.48-3.117-1.076-5.15.416-2.094 1.632-4.022 3.255-5.451 1.618-1.424 3.644-2.356 5.7-2.443z" stroke="#D3D3D3" fill="#FFF"/>
        <use stroke="#D3D3D3" mask="url(#E)" stroke-width="2" opacity=".429" stroke-dasharray="3,3" xlink:href="#b"/>
        <g fill="#FDCB5B">
            <path d="m63.035 129.074 24.711-.438c.963-.017 1.586.779 1.392 1.777l-.41 2.11c-.195.998-1.133 1.817-2.095 1.83l-24.712.34c-.962.013-1.585-.77-1.391-1.748l.41-2.068c.195-.979 1.132-1.786 2.095-1.803zM60.965 139.52l31.03-.319c.964-.01 1.586.795 1.392 1.798l-.41 2.119c-.194 1.003-1.132 1.82-2.095 1.826l-31.031.194c-.963.006-1.586-.783-1.391-1.761l.41-2.068c.194-.978 1.132-1.78 2.095-1.79zM58.894 149.965l18.878-.053c.962-.002 1.585.801 1.391 1.796l-.41 2.1c-.195.995-1.132 1.8-2.095 1.798l-18.877-.023c-.963-.001-1.586-.795-1.392-1.774l.41-2.068c.195-.978 1.133-1.773 2.095-1.776zM65.105 118.629l22.28-.561c.963-.025 1.586.763 1.392 1.76l-.41 2.106c-.194.996-1.132 1.82-2.095 1.841l-22.28.472c-.963.02-1.586-.756-1.392-1.735l.41-2.068c.195-.978 1.133-1.79 2.095-1.815zM113.333 117.414l24.71-.623c.963-.024 1.586.793 1.392 1.825l-.41 2.181c-.194 1.032-1.132 1.885-2.095 1.906l-24.711.523c-.963.02-1.586-.784-1.391-1.796l.41-2.14c.194-1.012 1.132-1.852 2.095-1.876zM111.263 128.218l31.03-.55c.963-.017 1.586.81 1.392 1.846l-.41 2.19c-.194 1.037-1.132 1.887-2.095 1.9l-31.031.426c-.963.013-1.586-.797-1.391-1.809l.41-2.14c.194-1.012 1.132-1.846 2.095-1.863zM109.192 139.022l18.878-.193c.962-.01 1.585.815 1.391 1.843l-.41 2.172c-.194 1.028-1.132 1.866-2.095 1.872l-18.877.118c-.963.006-1.586-.81-1.391-1.822l.41-2.14c.194-1.011 1.132-1.84 2.094-1.85zM107.122 149.826l22.281-.062c.963-.003 1.586.83 1.391 1.86l-.41 2.178c-.194 1.03-1.132 1.865-2.095 1.864l-22.28-.028c-.963-.001-1.586-.823-1.391-1.835l.41-2.14c.194-1.011 1.132-1.834 2.094-1.837zM160.78 127.342l24.711-.438c.963-.017 1.586.834 1.392 1.9l-.41 2.255c-.195 1.067-1.133 1.942-2.095 1.955l-24.712.339c-.962.013-1.585-.825-1.39-1.872l.41-2.213c.194-1.046 1.131-1.909 2.094-1.926zM156.64 149.693l31.03-.086c.963-.003 1.586.863 1.392 1.934l-.41 2.264c-.194 1.07-1.132 1.938-2.095 1.937l-31.031-.038c-.963-.001-1.586-.851-1.392-1.898l.41-2.213c.195-1.047 1.133-1.897 2.095-1.9zM162.85 116.166l18.878-.475c.962-.024 1.585.817 1.391 1.88l-.41 2.246c-.194 1.062-1.132 1.94-2.095 1.96l-18.877.4c-.963.02-1.586-.811-1.392-1.858l.41-2.213c.195-1.047 1.133-1.915 2.095-1.94zM158.71 138.517l22.28-.228c.963-.01 1.586.845 1.392 1.91l-.41 2.251c-.195 1.065-1.133 1.933-2.095 1.94l-22.28.138c-.963.006-1.586-.838-1.392-1.884l.41-2.213c.194-1.047 1.132-1.904 2.095-1.914zM210.11 114.976l24.711-.623c.963-.024 1.586.848 1.392 1.948l-.41 2.324c-.195 1.1-1.133 2.008-2.095 2.028l-24.712.524c-.962.02-1.585-.839-1.391-1.919l.41-2.283c.195-1.08 1.132-1.975 2.095-2zM205.97 138.033l31.03-.318c.963-.01 1.586.877 1.392 1.981l-.41 2.334c-.195 1.104-1.132 2.004-2.095 2.01l-31.031.194c-.963.006-1.586-.865-1.392-1.945l.41-2.283c.195-1.08 1.133-1.963 2.095-1.973zM208.04 126.504l18.877-.334c.963-.017 1.585.857 1.391 1.953l-.41 2.316c-.194 1.095-1.132 1.994-2.095 2.007l-18.877.26c-.963.012-1.586-.853-1.391-1.933l.41-2.282c.194-1.08 1.132-1.97 2.095-1.987zM203.899 149.561l22.28-.062c.963-.002 1.586.886 1.392 1.984l-.41 2.32c-.195 1.099-1.133 1.988-2.095 1.987l-22.28-.028c-.963-.001-1.586-.878-1.392-1.958l.41-2.282c.195-1.08 1.132-1.958 2.095-1.96z"/>
        </g>
        <use stroke="#D3D3D3" mask="url(#F)" stroke-width="2" opacity=".429" stroke-dasharray="3,3" xlink:href="#c"/>
        <use stroke="#D3D3D3" mask="url(#G)" stroke-width="2" opacity=".429" stroke-dasharray="3,3" xlink:href="#d"/>
        <use stroke="#D3D3D3" mask="url(#H)" stroke-width="2" opacity=".429" stroke-dasharray="3,3" xlink:href="#e"/>
        <use stroke="#D3D3D3" mask="url(#I)" stroke-width="2" opacity=".429" stroke-dasharray="3,3" xlink:href="#f"/>
        <use stroke="#D3D3D3" mask="url(#J)" stroke-width="2" opacity=".429" stroke-dasharray="3,3" xlink:href="#g"/>
        <use stroke="#D3D3D3" mask="url(#K)" stroke-width="2" opacity=".429" stroke-dasharray="3,3" xlink:href="#h"/>
        <use stroke="#D3D3D3" mask="url(#L)" stroke-width="2" opacity=".429" stroke-dasharray="3,3" xlink:href="#i"/>
        <use stroke="#D3D3D3" mask="url(#M)" stroke-width="2" opacity=".429" stroke-dasharray="3,3" xlink:href="#j"/>
        <use stroke="#D3D3D3" mask="url(#N)" stroke-width="2" opacity=".429" stroke-dasharray="3,3" xlink:href="#k"/>
        <use stroke="#D3D3D3" mask="url(#O)" stroke-width="2" opacity=".429" stroke-dasharray="3,3" xlink:href="#l"/>
        <use stroke="#D3D3D3" mask="url(#P)" stroke-width="2" opacity=".429" stroke-dasharray="3,3" xlink:href="#m"/>
        <use stroke="#D3D3D3" mask="url(#Q)" stroke-width="2" opacity=".429" stroke-dasharray="3,3" xlink:href="#n"/>
        <use stroke="#D3D3D3" mask="url(#R)" stroke-width="2" opacity=".429" stroke-dasharray="3,3" xlink:href="#o"/>
        <use stroke="#D3D3D3" mask="url(#S)" stroke-width="2" opacity=".429" stroke-dasharray="3,3" xlink:href="#p"/>
        <use stroke="#D3D3D3" mask="url(#T)" stroke-width="2" opacity=".429" stroke-dasharray="3,3" xlink:href="#q"/>
        <use stroke="#D3D3D3" mask="url(#U)" stroke-width="2" opacity=".429" stroke-dasharray="3,3" xlink:href="#r"/>
        <path d="m133.586 183.448 24.37.333c1.605.022 2.643 1.452 2.32 3.195l-.496 2.67c-.324 1.743-1.887 3.13-3.491 3.099l-24.37-.48c-1.604-.032-2.643-1.442-2.319-3.15l.496-2.615c.323-1.708 1.886-3.074 3.49-3.052zM102.835 200.54l50.545.69c1.604.023 2.643 1.416 2.319 3.112L129.272 342.88c-.323 1.697-1.886 2.925-3.49 2.743l-50.546-5.724c-1.604-.181-2.642-1.65-2.319-3.281l26.427-133.165c.324-1.63 1.887-2.935 3.491-2.913z" fill="#FDCB5B"/>
        <use stroke="#D3D3D3" mask="url(#V)" stroke-width="2" stroke-dasharray="3,3" xlink:href="#s"/>
        <path d="m169.577 183.933 28.962.395c1.605.022 2.643 1.491 2.32 3.282l-.496 2.742c-.324 1.79-1.887 3.216-3.491 3.184l-28.962-.57c-1.605-.031-2.643-1.475-2.32-3.225l.496-2.68c.324-1.75 1.887-3.15 3.491-3.128zM210.158 184.494l40.771.557c1.605.022 2.643 1.541 2.32 3.392l-.496 2.836c-.324 1.852-1.887 3.327-3.491 3.296l-40.772-.803c-1.604-.031-2.642-1.514-2.319-3.311l.496-2.753c.324-1.797 1.886-3.236 3.49-3.214zM262.549 185.21l28.962.396c1.605.022 2.643 1.579 2.32 3.478l-.496 2.908c-.324 1.9-1.887 3.413-3.491 3.381l-28.963-.57c-1.604-.031-2.642-1.563-2.318-3.422l.495-2.846c.324-1.858 1.887-3.347 3.491-3.325zM21.039 70.383l81.046-3.23c1.604-.064 2.643 1.292 2.319 3.029l-.645 3.458c-.323 1.737-1.886 3.188-3.49 3.241L19.222 79.58c-1.604.054-2.642-1.228-2.319-2.863l.645-3.257c.323-1.635 1.886-3.012 3.49-3.076z" fill="#FDCB5B"/>
        <path d="M301.777 60.286c1.76-.07 2.898 1.626 2.543 3.786a5.397 5.397 0 0 1-.913 2.22l1.685 2.521c.14.21.083.559-.128.78-.194.204-.451.228-.6.066l-.035-.045-1.662-2.485c-.643.578-1.404.938-2.175.965-1.759.06-2.897-1.635-2.542-3.787s2.068-3.952 3.827-4.021zm-.18 1.1c-1.264.048-2.495 1.341-2.75 2.888-.255 1.547.563 2.764 1.826 2.72 1.264-.045 2.495-1.338 2.75-2.889.254-1.55-.563-2.768-1.827-2.72z" fill="#1E3D49" fill-rule="nonzero"/>
        <path d="m75.473 227.825 223.095 6.315c1.605.047 2.643 1.615 2.32 3.503l-6.036 35.189c-.324 1.886-1.887 3.34-3.49 3.25L68.265 263.697c-1.604-.087-2.643-1.46-2.319-3.067l6.035-29.974c.324-1.608 1.887-2.875 3.491-2.831z" fill="#FFF"/>
        <use stroke="#D3D3D3" mask="url(#W)" stroke-width="2" stroke-dasharray="3" xlink:href="#t"/>
        <path d="M88.412 258.273c6.366.317 12.567-4.724 13.852-11.26 1.284-6.537-2.836-12.005-9.202-12.212-6.366-.206-12.567 4.838-13.851 11.265-1.284 6.426 2.835 11.89 9.201 12.207zM119.72 259.835c6.367.32 12.568-4.841 13.852-11.528 1.284-6.688-2.835-12.28-9.201-12.487-6.366-.208-12.567 4.956-13.852 11.533-1.284 6.576 2.836 12.164 9.202 12.482zM151.03 261.408c6.365.321 12.567-4.96 13.85-11.798 1.285-6.84-2.835-12.554-9.2-12.764-6.366-.21-12.568 5.076-13.852 11.804-1.284 6.726 2.835 12.438 9.201 12.758zM182.338 262.99c6.366.324 12.567-5.08 13.851-12.069 1.284-6.99-2.835-12.83-9.201-13.041-6.366-.21-12.567 5.196-13.851 12.075-1.285 6.877 2.835 12.713 9.2 13.036zM213.646 264.583c6.366.325 12.568-5.2 13.852-12.342 1.284-7.143-2.836-13.107-9.202-13.32-6.365-.212-12.567 5.317-13.85 12.347-1.285 7.03 2.835 12.99 9.2 13.315zM244.955 266.185c6.366.327 12.567-5.32 13.851-12.615 1.284-7.296-2.835-13.385-9.201-13.6-6.366-.213-12.567 5.438-13.851 12.62-1.284 7.183 2.835 13.268 9.2 13.595zM276.263 267.797c6.366.329 12.568-5.44 13.852-12.889 1.284-7.45-2.836-13.664-9.201-13.88-6.366-.216-12.568 5.558-13.852 12.894-1.284 7.335 2.836 13.547 9.201 13.875z" fill="#FDCB5B"/>
        <use stroke="#D3D3D3" mask="url(#X)" stroke-width="2" opacity=".429" stroke-dasharray="3,3" xlink:href="#u"/>
        <use stroke="#D3D3D3" mask="url(#Y)" stroke-width="2" opacity=".429" stroke-dasharray="3,3" xlink:href="#v"/>
        <use stroke="#D3D3D3" mask="url(#Z)" stroke-width="2" stroke-dasharray="3,3" xlink:href="#w"/>
        <use stroke="#D3D3D3" mask="url(#aa)" stroke-width="2" stroke-dasharray="3,3" xlink:href="#x"/>
        <use stroke="#D3D3D3" mask="url(#ab)" stroke-width="2" stroke-dasharray="3,3" xlink:href="#y"/>
        <use stroke="#D3D3D3" mask="url(#ac)" stroke-width="2" opacity=".429" stroke-dasharray="3,3" xlink:href="#z"/>
        <path d="m322.553 207.143 35.15.89c1.603.041 2.642 1.676 2.318 3.651l-6.035 36.84c-.324 1.975-1.887 3.51-3.491 3.428l-35.15-1.805c-1.604-.083-2.642-1.712-2.318-3.64l6.035-35.948c.324-1.927 1.887-3.457 3.491-3.416z" fill="#FDCB5B"/>
        <use stroke="#D3D3D3" mask="url(#ad)" stroke-width="2" stroke-dasharray="3,3" xlink:href="#A"/>
        <use stroke="#D3D3D3" mask="url(#ae)" stroke-width="2" stroke-dasharray="3,3" xlink:href="#B"/>
        <use stroke="#D3D3D3" mask="url(#af)" stroke-width="2" stroke-dasharray="3,3" xlink:href="#C"/>
    </g>
</svg>
