<svg width="746" height="389" xmlns="http://www.w3.org/2000/svg" xmlns:xlink="http://www.w3.org/1999/xlink"><defs><filter x="-.6%" y="-1.3%" width="102.6%" height="101.8%" filterUnits="objectBoundingBox" id="a"><feOffset dx="1" dy="-1" in="SourceAlpha" result="shadowOffsetOuter1"/><feColorMatrix values="0 0 0 0 0.821699502 0 0 0 0 0.821699502 0 0 0 0 0.821699502 0 0 0 0.5 0" in="shadowOffsetOuter1"/></filter><filter x="-.6%" y="-1.3%" width="102.6%" height="101.8%" filterUnits="objectBoundingBox" id="c"><feOffset dx="1" dy="-1" in="SourceAlpha" result="shadowOffsetOuter1"/><feColorMatrix values="0 0 0 0 0.821699502 0 0 0 0 0.821699502 0 0 0 0 0.821699502 0 0 0 0.5 0" in="shadowOffsetOuter1"/></filter><filter x="-.3%" y="-.2%" width="101.2%" height="100%" filterUnits="objectBoundingBox" id="e"><feOffset dx="2" dy="-1" in="SourceAlpha" result="shadowOffsetOuter1"/><feColorMatrix values="0 0 0 0 0.793365036 0 0 0 0 0.793365036 0 0 0 0 0.793365036 0 0 0 0.5 0" in="shadowOffsetOuter1"/></filter><filter x="-.3%" y="-.2%" width="101.2%" height="100%" filterUnits="objectBoundingBox" id="h"><feOffset dx="2" dy="-1" in="SourceAlpha" result="shadowOffsetOuter1"/><feColorMatrix values="0 0 0 0 0.793365036 0 0 0 0 0.793365036 0 0 0 0 0.793365036 0 0 0 0.5 0" in="shadowOffsetOuter1"/></filter><filter x="-.3%" y="-.2%" width="101.2%" height="100%" filterUnits="objectBoundingBox" id="j"><feOffset dx="2" dy="-1" in="SourceAlpha" result="shadowOffsetOuter1"/><feColorMatrix values="0 0 0 0 0.776296422 0 0 0 0 0.776296422 0 0 0 0 0.776296422 0 0 0 0.5 0" in="shadowOffsetOuter1"/></filter><filter x="-.2%" y="-.9%" width="100.7%" height="101.2%" filterUnits="objectBoundingBox" id="o"><feOffset dx="1" dy="-1" in="SourceAlpha" result="shadowOffsetOuter1"/><feColorMatrix values="0 0 0 0 0.637935915 0 0 0 0 0.620091214 0 0 0 0 0.620091214 0 0 0 0.5 0" in="shadowOffsetOuter1"/></filter><filter x="-18.1%" y="-23.6%" width="138.2%" height="145.1%" filterUnits="objectBoundingBox" id="r"><feGaussianBlur stdDeviation="6.349" in="SourceGraphic"/></filter><filter x="-19.1%" y="-24.8%" width="140.1%" height="147.3%" filterUnits="objectBoundingBox" id="s"><feOffset dx="2" dy="-2" in="SourceAlpha" result="shadowOffsetOuter1"/><feComposite in="shadowOffsetOuter1" in2="SourceAlpha" operator="out" result="shadowOffsetOuter1"/><feColorMatrix values="0 0 0 0 0.637935915 0 0 0 0 0.620091214 0 0 0 0 0.620091214 0 0 0 0.5 0" in="shadowOffsetOuter1"/></filter><filter x="-21.4%" y="-19%" width="145.1%" height="136.1%" filterUnits="objectBoundingBox" id="u"><feGaussianBlur stdDeviation="6.349" in="SourceGraphic"/></filter><filter x="-22.5%" y="-19.9%" width="147.3%" height="137.9%" filterUnits="objectBoundingBox" id="v"><feOffset dx="2" dy="-2" in="SourceAlpha" result="shadowOffsetOuter1"/><feComposite in="shadowOffsetOuter1" in2="SourceAlpha" operator="out" result="shadowOffsetOuter1"/><feColorMatrix values="0 0 0 0 0.637935915 0 0 0 0 0.620091214 0 0 0 0 0.620091214 0 0 0 0.5 0" in="shadowOffsetOuter1"/></filter><filter x="-21.4%" y="-27.3%" width="145.1%" height="152.1%" filterUnits="objectBoundingBox" id="x"><feGaussianBlur stdDeviation="6.349" in="SourceGraphic"/></filter><filter x="-22.5%" y="-28.6%" width="147.3%" height="154.7%" filterUnits="objectBoundingBox" id="y"><feOffset dx="2" dy="-2" in="SourceAlpha" result="shadowOffsetOuter1"/><feComposite in="shadowOffsetOuter1" in2="SourceAlpha" operator="out" result="shadowOffsetOuter1"/><feColorMatrix values="0 0 0 0 0.637935915 0 0 0 0 0.620091214 0 0 0 0 0.620091214 0 0 0 0.5 0" in="shadowOffsetOuter1"/></filter><filter x="-.5%" y="-1.9%" width="102.1%" height="102.5%" filterUnits="objectBoundingBox" id="A"><feOffset dx="1" dy="-1" in="SourceAlpha" result="shadowOffsetOuter1"/><feColorMatrix values="0 0 0 0 0.694916214 0 0 0 0 0.694916214 0 0 0 0 0.694916214 0 0 0 0.5 0" in="shadowOffsetOuter1"/></filter><filter x="-.6%" y="-1.3%" width="102.6%" height="101.8%" filterUnits="objectBoundingBox" id="D"><feOffset dx="1" dy="-1" in="SourceAlpha" result="shadowOffsetOuter1"/><feColorMatrix values="0 0 0 0 0.821699502 0 0 0 0 0.821699502 0 0 0 0 0.821699502 0 0 0 0.5 0" in="shadowOffsetOuter1"/></filter><filter x="-.6%" y="-1.3%" width="102.6%" height="101.8%" filterUnits="objectBoundingBox" id="G"><feOffset dx="1" dy="-1" in="SourceAlpha" result="shadowOffsetOuter1"/><feColorMatrix values="0 0 0 0 0.821699502 0 0 0 0 0.821699502 0 0 0 0 0.821699502 0 0 0 0.5 0" in="shadowOffsetOuter1"/></filter><path d="m343.006 267.042 75.988 22.519c.556.165 1.006.764 1.006 1.339v88.315c0 .575-.45.907-1.006.743l-75.988-22.519c-.556-.165-1.006-.764-1.006-1.339v-88.315c0-.575.45-.907 1.006-.743Z" id="b"/><path d="m305.006 217.042 75.988 22.519c.556.165 1.006.764 1.006 1.339v88.315c0 .575-.45.907-1.006.743l-75.988-22.519c-.556-.165-1.006-.764-1.006-1.339v-88.315c0-.575.45-.907 1.006-.743Z" id="d"/><path d="m278.907 7.667 335.709 94.72a4.646 4.646 0 0 1 3.384 4.471v214.004a4.646 4.646 0 0 1-5.907 4.471l-335.709-94.72a4.646 4.646 0 0 1-3.384-4.471V12.138a4.646 4.646 0 0 1 5.907-4.471Z" id="f"/><path d="m236.907 19.667 335.709 94.72a4.646 4.646 0 0 1 3.384 4.471v214.004a4.646 4.646 0 0 1-5.907 4.471l-335.709-94.72a4.646 4.646 0 0 1-3.384-4.471V24.138a4.646 4.646 0 0 1 5.907-4.471Z" id="i"/><path d="m5.907 1.667 335.709 94.72a4.646 4.646 0 0 1 3.384 4.471v214.004a4.646 4.646 0 0 1-5.907 4.471L3.384 224.613A4.646 4.646 0 0 1 0 220.142V6.138a4.646 4.646 0 0 1 5.907-4.471Z" id="k"/><path d="M1.965.077 265.52 74.44c1.085.306 1.965 1.435 1.965 2.52v80.377c0 1.086-.88 1.718-1.965 1.412L1.965 84.386C.88 84.08 0 82.95 0 81.866V1.488C0 .403.88-.229 1.965.078Z" id="m"/><path d="m121.48.123 263.04 70.982c1.922.518 3.48 2.535 3.48 4.503v88.644c0 1.969-1.558 3.144-3.48 2.625L121.48 95.895c-1.922-.518-3.48-2.535-3.48-4.503V2.748c0-1.969 1.558-3.144 3.48-2.625Z" id="p"/><path d="m185.354 211.048 102.292 27.806c.748.203 1.354.993 1.354 1.764v58.306c0 .77-.606 1.231-1.354 1.028l-102.292-27.806c-.748-.203-1.354-.993-1.354-1.764v-58.306c0-.77.606-1.231 1.354-1.028Z" id="t"/><path d="m319.147 231.06 86.706 34.68c.633.253 1.147 1.238 1.147 2.2v72.718c0 .961-.514 1.536-1.147 1.282l-86.706-34.68c-.633-.253-1.147-1.238-1.147-2.2v-72.718c0-.961.514-1.536 1.147-1.282Z" id="w"/><path d="m352.147 286.042 86.706 24.056c.633.176 1.147.86 1.147 1.527v50.444c0 .667-.514 1.065-1.147.89l-86.706-24.057c-.633-.176-1.147-.86-1.147-1.527v-50.444c0-.667.514-1.065 1.147-.89Z" id="z"/><path d="m165.225 100.043 92.55 24.994c.677.183 1.225.893 1.225 1.586v52.41c0 .693-.548 1.106-1.225.924l-92.55-24.994c-.677-.183-1.225-.893-1.225-1.586v-52.41c0-.693.548-1.106 1.225-.924Z" id="B"/><path d="m343.006 267.042 75.988 22.519c.556.165 1.006.764 1.006 1.339v88.315c0 .575-.45.907-1.006.743l-75.988-22.519c-.556-.165-1.006-.764-1.006-1.339v-88.315c0-.575.45-.907 1.006-.743Z" id="E"/><path d="m305.006 217.042 75.988 22.519c.556.165 1.006.764 1.006 1.339v88.315c0 .575-.45.907-1.006.743l-75.988-22.519c-.556-.165-1.006-.764-1.006-1.339v-88.315c0-.575.45-.907 1.006-.743Z" id="H"/><linearGradient x1="47.674%" y1="21.439%" x2="47.674%" y2="151.061%" id="g"><stop stop-color="#FFF" stop-opacity=".752" offset="0%"/><stop stop-color="#EEE" offset="100%"/></linearGradient><linearGradient x1="47.674%" y1="21.439%" x2="47.674%" y2="151.061%" id="l"><stop stop-color="#FFF" offset="0%"/><stop stop-color="#D8D8D8" offset="100%"/></linearGradient><linearGradient x1="50%" y1="0%" x2="50%" y2="99.555%" id="q"><stop stop-color="#FFF" stop-opacity=".341" offset="0%"/><stop stop-color="#E6E6E6" offset="100%"/></linearGradient><linearGradient x1="50%" y1="0%" x2="50%" y2="100%" id="C"><stop stop-color="#FFF" stop-opacity=".651" offset="0%"/><stop stop-color="#DEDEDE" offset="100%"/></linearGradient><linearGradient x1="89.327%" y1="117.835%" x2="37.474%" y2="43.831%" id="F"><stop stop-color="#FFF" stop-opacity=".872" offset="0%"/><stop stop-color="#EEE" stop-opacity=".699" offset="100%"/></linearGradient><linearGradient x1="50%" y1="-39.666%" x2="50%" y2="169.827%" id="I"><stop stop-color="#FFF" stop-opacity=".612" offset="0%"/><stop stop-color="#EEE" stop-opacity=".634" offset="100%"/></linearGradient></defs><g fill="none" fill-rule="evenodd"><path fill="#FFF" d="M0 0h746v389H0z"/><use fill="#000" filter="url(#a)" xlink:href="#b"/><use fill="#FFF" xlink:href="#b"/><use fill="#000" filter="url(#c)" xlink:href="#d"/><use fill="#FFF" xlink:href="#d"/><path d="m121.48.123 263.04 70.982c1.922.518 3.48 2.535 3.48 4.503v88.644c0 1.969-1.558 3.144-3.48 2.625L121.48 95.895c-1.922-.518-3.48-2.535-3.48-4.503V2.748c0-1.969 1.558-3.144 3.48-2.625Z" fill="#FFF"/><path d="m193.907 31.667 335.709 94.72a4.646 4.646 0 0 1 3.384 4.471v214.004a4.646 4.646 0 0 1-5.907 4.471l-335.709-94.72a4.646 4.646 0 0 1-3.384-4.471V36.138a4.646 4.646 0 0 1 5.907-4.471Z" fill="#FFF"/><path d="m236.907 19.667 335.709 94.72a4.646 4.646 0 0 1 3.384 4.471v214.004a4.646 4.646 0 0 1-5.907 4.471l-335.709-94.72a4.646 4.646 0 0 1-3.384-4.471V24.138a4.646 4.646 0 0 1 5.907-4.471Z" fill="#FFF"/><path d="m278.907 7.667 335.709 94.72a4.646 4.646 0 0 1 3.384 4.471v214.004a4.646 4.646 0 0 1-5.907 4.471l-335.709-94.72a4.646 4.646 0 0 1-3.384-4.471V12.138a4.646 4.646 0 0 1 5.907-4.471Z" fill="#FFF"/><circle fill="#80C0A1" cx="142" cy="229" r="142"/><circle fill="#FDCB5B" cx="629.5" cy="125.5" r="116.5"/><use fill="#000" filter="url(#e)" xlink:href="#f"/><use fill="url(#g)" xlink:href="#f"/><use fill="#000" filter="url(#h)" xlink:href="#i"/><use fill="url(#g)" xlink:href="#i"/><circle fill="#53B9C9" cx="31" cy="57" r="31"/><g transform="translate(188 30)"><use fill="#000" filter="url(#j)" xlink:href="#k"/><use fill="url(#l)" xlink:href="#k"/></g><g transform="translate(226.867 68.964)"><mask id="n" fill="#fff"><use xlink:href="#m"/></mask><use fill="#0086B2" xlink:href="#m"/><path d="M214.278 78.984c.687.194 1.25.88 1.297 1.562l.003.093v10.005l4.917 11.137c1.827 4.15 2.81 8.42 2.878 12.495l.004.42v42.885c0 .681-.533 1.088-1.207.945l-.093-.023-51.99-14.668c-.686-.194-1.248-.88-1.296-1.563l-.003-.093V99.295c.005-4.06.927-7.806 2.695-10.965l.186-.325 4.917-8.362V69.638c0-.681.533-1.088 1.207-.945l.093.023 36.392 10.268Zm-2.102 12.293-33.487-9.448-4.694 7.985c-1.31 2.237-2.144 4.819-2.462 7.623l-.041.402 21.99 6.205c.719.203 1.3.944 1.3 1.655 0 .681-.532 1.088-1.206.945l-.093-.023-22.096-6.234v41.237l33.793 9.535v-41.596c.005-4.06.927-7.806 2.696-10.965l.186-.325 4.114-6.996Zm8.601 23.045-12.997-3.667v41.237l12.997 3.667v-41.237Zm-3.9 6.632c.688.194 1.25.88 1.297 1.563l.004.093v23.195c0 .681-.533 1.088-1.207.945l-.093-.023-5.199-1.467c-.687-.193-1.249-.88-1.296-1.562l-.004-.093v-23.196c0-.68.533-1.088 1.207-.945l.093.023 5.199 1.467Zm-15.596-4.4c.687.193 1.25.88 1.297 1.562l.003.093v23.196c0 .68-.532 1.088-1.207.945l-.093-.023-25.994-7.335c-.687-.194-1.25-.88-1.297-1.562l-.003-.093V110.14c0-.68.532-1.088 1.207-.945l.093.023 25.994 7.335Zm14.297 6.61-2.6-.733v20.619l2.6.733v-20.618Zm-15.597-4.4-23.395-6.6v20.618l23.395 6.6v-20.618Zm-11.697-.723c3.583 1.011 6.499 5.302 6.499 9.565 0 4.264-2.916 6.91-6.5 5.899-3.582-1.011-6.498-5.302-6.498-9.566 0-4.263 2.916-6.91 6.499-5.898Zm-.77 2.461c-1.783-.029-3.13 1.677-3.13 4.17 0 2.495 1.347 4.96 3.13 5.937a8.935 8.935 0 0 0-.437-1.476c-.99-2.649-.99-5.311 0-7.4.191-.382.337-.794.437-1.23Zm2.556 1.196a7.24 7.24 0 0 1-.58 1.673c-.742 1.545-.742 3.522 0 5.486.257.663.451 1.333.58 2 1.254-.505 2.113-1.993 2.113-3.984 0-1.991-.86-3.963-2.113-5.175Zm11.211-15.454c.718.203 1.3.944 1.3 1.656 0 .68-.532 1.088-1.207.945l-.093-.023-2.6-.734c-.717-.202-1.299-.944-1.299-1.655 0-.681.532-1.088 1.207-.945l.093.023 2.6.733Zm14.297-9.837v13.871l5.095 1.438c-.269-2.977-1.054-6.028-2.319-9.012l-.184-.426-2.592-5.87Zm-2.6-.733-2.591 4.408c-1.31 2.238-2.143 4.819-2.461 7.623l-.042.402 5.095 1.438V95.674Zm0-9.325-33.792-9.535v2.578l33.793 9.534V86.35Zm0-5.155-33.792-9.534v2.577l33.793 9.535v-2.578ZM264.937 113.371c.489.138.889.625.923 1.11l.002.065v7.094l3.5 7.9c1.302 2.945 2.001 5.972 2.05 8.862l.003.299v30.407c0 .482-.38.77-.86.669l-.066-.017-37.016-10.444c-.489-.138-.89-.625-.923-1.109l-.003-.066v-30.407c.004-2.878.66-5.533 1.92-7.772l.132-.23 3.5-5.925v-7.094c0-.483.38-.771.86-.669l.066.016 25.912 7.311Zm-1.498 8.715-23.842-6.727-3.342 5.658c-.934 1.585-1.527 3.415-1.753 5.403l-.03.285 15.658 4.418c.511.144.926.67.926 1.174 0 .483-.38.771-.86.67l-.066-.017-15.732-4.439v29.239l24.06 6.789v-29.494c.004-2.878.66-5.533 1.92-7.772l.132-.23 2.93-4.957Zm6.125 16.347-9.254-2.61v29.238l9.254 2.61v-29.238Zm-2.776 4.7c.488.137.889.624.923 1.108l.002.066v16.447c0 .482-.38.77-.86.669l-.065-.017-3.702-1.044c-.489-.138-.89-.625-.923-1.109l-.003-.066V142.74c0-.482.38-.77.86-.669l.066.017 3.702 1.044Zm-11.105-3.134c.489.138.889.625.923 1.109l.002.066v16.446c0 .483-.379.771-.86.67l-.065-.017-18.508-5.222c-.49-.138-.89-.625-.924-1.109l-.002-.066V135.43c0-.482.38-.77.86-.669l.066.017 18.508 5.222Zm10.18 4.7-1.852-.523v14.62l1.851.522v-14.62Zm-11.106-3.134-16.657-4.7v14.62l16.657 4.7v-14.62Zm-8.328-.522c2.55.72 4.627 3.765 4.627 6.787 0 3.023-2.076 4.897-4.627 4.177-2.552-.72-4.627-3.765-4.627-6.788 0-3.022 2.075-4.896 4.627-4.176Zm-.549 1.744c-1.269-.022-2.228 1.186-2.228 2.955 0 1.768.96 3.517 2.228 4.211-.07-.349-.175-.7-.31-1.047-.706-1.879-.706-3.766 0-5.247.135-.27.24-.562.31-.872Zm1.82.85c-.092.42-.23.818-.412 1.186-.529 1.095-.529 2.496 0 3.89.182.47.32.945.412 1.418.893-.357 1.505-1.41 1.505-2.823 0-1.412-.612-2.81-1.505-3.671Zm7.983-10.948c.51.144.925.67.925 1.175 0 .483-.379.771-.86.669l-.065-.016-1.851-.523c-.511-.144-.926-.67-.926-1.174 0-.483.38-.771.86-.67l.066.017 1.85.522Zm10.18-6.963v9.835l3.627 1.024c-.192-2.111-.75-4.275-1.652-6.392l-.13-.302-1.846-4.165Zm-1.852-.522-1.845 3.123c-.933 1.586-1.526 3.416-1.752 5.404l-.03.285 3.627 1.023v-9.835Zm0-6.612-24.06-6.788v1.827l24.06 6.789v-1.828Zm0-3.654-24.06-6.79v1.828l24.06 6.789v-1.827ZM153.14 81.828c.488.138.888.625.922 1.108l.003.066v7.094l3.5 7.901c1.301 2.944 2.001 5.972 2.05 8.862l.002.298v30.407c0 .483-.379.771-.86.669l-.065-.016-37.017-10.445c-.488-.137-.889-.625-.923-1.108l-.002-.066V96.19c.003-2.878.66-5.534 1.92-7.772l.132-.23 3.5-5.926V75.17c0-.482.38-.77.86-.669l.066.017 25.911 7.31Zm-1.498 8.714L127.8 83.815l-3.343 5.658c-.933 1.585-1.526 3.415-1.752 5.403l-.03.285 15.658 4.418c.51.144.925.67.925 1.175 0 .482-.379.77-.86.669l-.065-.017-15.732-4.438v29.238l24.06 6.789v-29.493c.004-2.879.66-5.534 1.92-7.772l.132-.23 2.929-4.958Zm6.124 16.347-9.254-2.61v29.238l9.254 2.611V106.89Zm-2.776 4.7c.489.137.89.625.923 1.108l.002.066v16.447c0 .483-.379.77-.859.669l-.066-.016-3.702-1.045c-.488-.138-.889-.625-.923-1.109l-.002-.066v-16.446c0-.483.38-.771.86-.67l.065.017 3.702 1.044Zm-11.105-3.134c.489.138.89.625.923 1.109l.003.066v16.447c0 .482-.38.77-.86.669l-.066-.017-18.508-5.222c-.489-.138-.89-.625-.923-1.109l-.002-.066v-16.446c0-.483.379-.771.859-.67l.066.017 18.508 5.222Zm10.18 4.7-1.851-.523v14.62l1.85.522v-14.62Zm-11.105-3.134-16.658-4.7v14.62l16.658 4.7v-14.62Zm-8.329-.522c2.551.72 4.627 3.765 4.627 6.788s-2.076 4.896-4.627 4.176c-2.551-.72-4.627-3.764-4.627-6.787s2.076-4.897 4.627-4.177Zm-.548 1.745c-1.27-.023-2.228 1.186-2.228 2.954 0 1.768.959 3.517 2.228 4.211-.071-.349-.175-.7-.311-1.047-.705-1.878-.705-3.766 0-5.247.136-.27.24-.562.31-.871Zm1.82.85c-.092.42-.23.817-.413 1.185-.528 1.095-.528 2.497 0 3.89.183.47.321.945.413 1.418.893-.357 1.504-1.41 1.504-2.823 0-1.412-.611-2.81-1.504-3.67Zm7.982-10.949c.511.145.926.67.926 1.175 0 .483-.38.771-.86.67l-.066-.017-1.85-.522c-.512-.145-.926-.67-.926-1.175 0-.483.379-.771.86-.67l.065.017 1.851.522Zm10.18-6.963v9.836l3.627 1.023c-.191-2.11-.75-4.275-1.651-6.392l-.131-.302-1.845-4.165Zm-1.851-.522-1.846 3.124c-.933 1.585-1.526 3.415-1.752 5.403l-.03.285 3.628 1.023V93.66Zm0-6.611-24.06-6.789v1.827l24.06 6.79v-1.828Zm0-3.655-24.06-6.789v1.828l24.06 6.788v-1.827Z" fill="#FFF" fill-rule="nonzero" opacity=".388" mask="url(#n)"/></g><path d="M248.157 229.569c11.758 3.318 21.29-3.527 21.29-15.289 0-11.76-9.532-23.985-21.29-27.302-11.758-3.318-21.29 3.527-21.29 15.289 0 11.76 9.532 23.985 21.29 27.302Z" fill="#80C0A1"/><path d="M304.492 245.464c11.758 3.318 21.29-3.527 21.29-15.289 0-11.76-9.532-23.985-21.29-27.302-11.758-3.318-21.29 3.527-21.29 15.289 0 11.76 9.532 23.985 21.29 27.302Z" fill="#53B9C9"/><path d="M360.61 261.298c11.757 3.317 21.289-3.528 21.289-15.29 0-11.76-9.532-23.984-21.29-27.302-11.758-3.317-21.29 3.528-21.29 15.29 0 11.76 9.532 23.984 21.29 27.302Z" fill="#FDCB5B"/><path d="M473.062 293.026c11.758 3.318 21.29-3.527 21.29-15.289 0-11.76-9.532-23.984-21.29-27.302-11.758-3.317-21.29 3.528-21.29 15.289 0 11.76 9.532 23.985 21.29 27.302Z" fill="#E67962"/><path d="M489.64 136.73c2.592.732 4.694-.777 4.694-3.37 0-2.594-2.102-5.29-4.695-6.021-2.593-.732-4.694.778-4.694 3.371 0 2.594 2.101 5.29 4.694 6.02ZM477.061 133.182c2.593.732 4.695-.778 4.695-3.371 0-2.594-2.102-5.29-4.695-6.02-2.593-.732-4.695.777-4.695 3.37 0 2.594 2.102 5.29 4.695 6.021Z" fill="#D8D8D8"/><path d="M416.945 277.193c11.758 3.317 21.29-3.528 21.29-15.289s-9.532-23.985-21.29-27.302c-11.758-3.318-21.29 3.527-21.29 15.288s9.532 23.985 21.29 27.303Z" fill="#8B6391"/><path d="m227.117 162.736 42.08 11.873v8.435l-42.08-11.872v-8.436Z" stroke="#AEAEAE" stroke-width=".5" fill="#FFF"/><path d="m269.696 174.75 42.08 11.872v8.436l-42.08-11.873v-8.435Z" stroke="#AEAEAE" stroke-width=".5" fill="#D8D8D8"/><path d="m228.505 230.358 39.304 11.09c.904.255 1.637 1.195 1.637 2.1s-.733 1.431-1.637 1.176l-39.304-11.09c-.905-.255-1.638-1.195-1.638-2.1 0-.904.733-1.43 1.638-1.176ZM284.84 246.253l39.304 11.09c.904.255 1.638 1.195 1.638 2.1s-.734 1.431-1.638 1.176l-39.304-11.09c-.904-.255-1.637-1.195-1.637-2.1 0-.904.733-1.43 1.637-1.176ZM340.957 262.087l39.304 11.09c.905.255 1.638 1.195 1.638 2.1 0 .904-.733 1.43-1.638 1.176l-39.304-11.09c-.904-.255-1.637-1.195-1.637-2.1s.733-1.431 1.637-1.176ZM397.293 277.982l39.304 11.09c.904.255 1.637 1.195 1.637 2.1 0 .904-.733 1.431-1.637 1.176l-39.304-11.09c-.905-.255-1.638-1.195-1.638-2.1s.733-1.431 1.638-1.176ZM453.41 293.815l39.304 11.09c.904.255 1.637 1.195 1.637 2.1s-.733 1.431-1.637 1.176l-39.304-11.09c-.905-.255-1.638-1.195-1.638-2.1 0-.904.733-1.43 1.638-1.176Z" fill="#D8D8D8"/><path d="m251.137 92.808 74.394 20.99c1.344.38 2.434 1.777 2.434 3.122 0 1.344-1.09 2.127-2.434 1.748l-74.394-20.99c-1.345-.38-2.434-1.778-2.434-3.122 0-1.345 1.09-2.128 2.434-1.748Z" fill="#FFF"/><path d="m250.014 127.812 76.63 21.62c.725.205 1.313.959 1.313 1.683 0 .725-.588 1.147-1.312.942l-76.63-21.62c-.725-.205-1.312-.959-1.312-1.683 0-.725.587-1.147 1.311-.942Z" fill="#FFF" opacity=".593"/><path d="m228.505 237.348 30.57 8.625c.904.255 1.637 1.195 1.637 2.1s-.733 1.431-1.638 1.176l-30.57-8.625c-.904-.255-1.637-1.196-1.637-2.1 0-.905.733-1.432 1.638-1.176ZM284.84 253.243l30.57 8.625c.904.255 1.637 1.195 1.637 2.1s-.733 1.431-1.637 1.176l-30.57-8.625c-.904-.255-1.637-1.196-1.637-2.1 0-.905.733-1.432 1.637-1.176ZM340.957 269.076l30.57 8.625c.904.256 1.638 1.196 1.638 2.1 0 .905-.734 1.432-1.638 1.177l-30.57-8.626c-.904-.255-1.637-1.195-1.637-2.1 0-.904.733-1.431 1.637-1.176ZM397.293 284.971l30.57 8.625c.904.256 1.637 1.196 1.637 2.1 0 .905-.733 1.432-1.638 1.177l-30.57-8.626c-.904-.255-1.637-1.195-1.637-2.1 0-.904.733-1.43 1.638-1.176ZM453.41 300.805l30.57 8.625c.904.255 1.637 1.195 1.637 2.1s-.733 1.431-1.638 1.176l-30.57-8.625c-.904-.255-1.637-1.196-1.637-2.1 0-.905.733-1.431 1.638-1.176Z" fill="#D8D8D8"/><path d="m251.137 103.196 58.135 16.403c1.344.38 2.434 1.777 2.434 3.121 0 1.345-1.09 2.128-2.434 1.748l-58.135-16.403c-1.345-.379-2.434-1.777-2.434-3.121 0-1.345 1.09-2.127 2.434-1.748Z" fill="#FFF"/><path d="m250.014 133.41 69.115 19.502c.725.204 1.312.957 1.312 1.682s-.587 1.147-1.312.942l-69.115-19.5c-.724-.205-1.311-.958-1.311-1.683 0-.725.587-1.147 1.311-.942Z" fill="#FFF" opacity=".593"/><path d="m228.505 244.337 19.87 5.606c.904.256 1.638 1.196 1.638 2.1 0 .905-.734 1.432-1.638 1.177l-19.87-5.607c-.905-.255-1.638-1.195-1.638-2.1s.733-1.431 1.638-1.176ZM284.84 260.232l19.87 5.606c.905.256 1.638 1.196 1.638 2.1 0 .905-.733 1.432-1.638 1.177l-19.87-5.607c-.904-.255-1.637-1.195-1.637-2.1s.733-1.431 1.637-1.176ZM340.957 276.065l19.87 5.607c.905.255 1.638 1.195 1.638 2.1s-.733 1.431-1.637 1.176l-19.87-5.606c-.905-.255-1.638-1.196-1.638-2.1 0-.905.733-1.432 1.637-1.177ZM397.293 291.96l19.87 5.607c.904.255 1.638 1.195 1.638 2.1s-.734 1.431-1.638 1.176l-19.87-5.606c-.905-.255-1.638-1.196-1.638-2.1 0-.905.733-1.432 1.638-1.176ZM453.41 307.794l19.87 5.606c.905.256 1.638 1.196 1.638 2.1 0 .905-.733 1.432-1.638 1.177l-19.87-5.607c-.905-.255-1.638-1.195-1.638-2.1s.733-1.431 1.638-1.176Z" fill="#D8D8D8"/><path d="m251.137 113.584 38.218 10.783c1.344.38 2.434 1.777 2.434 3.122 0 1.344-1.09 2.127-2.434 1.748l-38.218-10.784c-1.345-.379-2.434-1.776-2.434-3.121s1.09-2.127 2.434-1.748Z" fill="#FFF"/><path d="m250.014 139.01 58.867 16.61c.724.204 1.312.957 1.312 1.682s-.588 1.146-1.312.942l-58.867-16.61c-.724-.204-1.311-.957-1.311-1.682s.587-1.146 1.311-.942Z" fill="#FFF" opacity=".593"/><path d="m312.275 186.763 42.08 11.873v8.436l-42.08-11.873v-8.436Z" stroke="#AEAEAE" stroke-width=".5" fill="#D8D8D8"/><path d="m462.144 228.79 30.57 8.624c.904.256 1.637 1.196 1.637 2.1 0 .905-.733 1.432-1.637 1.177l-30.57-8.626c-.904-.255-1.638-1.195-1.638-2.1 0-.904.734-1.431 1.638-1.176ZM227.994 60.598l8.32 2.348c.638.18 1.155.842 1.155 1.48s-.517 1.01-1.154.83l-8.32-2.348c-.638-.18-1.155-.843-1.155-1.48 0-.639.517-1.01 1.154-.83ZM227.994 57.057l8.32 2.348c.638.18 1.155.842 1.155 1.48s-.517 1.009-1.154.829l-8.32-2.348c-.638-.18-1.155-.842-1.155-1.48s.517-1.009 1.154-.83ZM227.994 53.516l8.32 2.347c.638.18 1.155.843 1.155 1.48 0 .639-.517 1.01-1.154.83l-8.32-2.348c-.638-.18-1.155-.843-1.155-1.48 0-.638.517-1.01 1.154-.83Z" fill="#D8D8D8"/><circle fill="#8B6391" cx="433" cy="19" r="17"/><circle fill="#80C0A1" cx="255.5" cy="362.5" r="11.5"/><g><use fill="#000" filter="url(#o)" xlink:href="#p"/><use fill="url(#q)" xlink:href="#p"/></g><g opacity=".127" filter="url(#r)"><use fill="#000" filter="url(#s)" xlink:href="#t"/><path stroke="#CDCDCD" stroke-width=".635" d="M184.589 211.45c.175-.134.418-.167.681-.096l102.293 27.806c.31.084.587.293.789.556.201.263.33.584.33.902v58.306c0 .27-.096.494-.27.626-.176.134-.419.167-.682.096L185.437 271.84a1.529 1.529 0 0 1-.789-.556 1.514 1.514 0 0 1-.33-.902v-58.306c0-.27.096-.494.27-.626Z" stroke-linejoin="square" fill="#878787"/></g><g opacity=".127" filter="url(#u)"><use fill="#000" filter="url(#v)" xlink:href="#w"/><path stroke="#CDCDCD" stroke-width=".635" d="m318.573 231.457 87.162 34.577c.258.103.48.366.647.687.186.355.3.79.3 1.219v72.718c0 .383-.087.698-.255.885a.4.4 0 0 1-.206.131.42.42 0 0 1-.25-.029l-86.706-34.679c-.258-.103-.48-.366-.647-.687-.186-.355-.3-.79-.3-1.219v-72.718c0-.383.087-.698.255-.885Z" stroke-linejoin="square" fill="#878787"/></g><g opacity=".127" filter="url(#x)"><use fill="#000" filter="url(#y)" xlink:href="#z"/><path stroke="#CDCDCD" stroke-width=".635" d="M351.53 286.421c.137-.106.328-.13.532-.074l86.706 24.057c.252.07.477.245.642.464.166.22.273.49.273.757v50.444c0 .219-.074.402-.214.51-.136.106-.327.13-.531.074l-86.706-24.057a1.247 1.247 0 0 1-.642-.464 1.287 1.287 0 0 1-.273-.757v-50.444c0-.219.074-.402.214-.51Z" stroke-linejoin="square" fill="#878787"/></g><g><use fill="#000" filter="url(#A)" xlink:href="#B"/><use fill="url(#C)" xlink:href="#B"/></g><g><use fill="#000" filter="url(#D)" xlink:href="#E"/><use fill="url(#F)" xlink:href="#E"/></g><path d="M397.69 306c.567 0 1.093.285 1.407.762.314.478.372 1.08.156 1.61l-.95 2.32 1.118 2.997c.515 1.403 1.324 2.646 2.34 3.6 1.983 1.864 3.1 4.672 3.232 8.12v.014a24.038 24.038 0 0 1-4.003 13.905.953.953 0 0 1-1.328.265.979.979 0 0 1-.261-1.347 22.084 22.084 0 0 0 3.68-12.77c-.08-2.037-.598-4.862-2.621-6.763-.35-.328-.678-.685-.984-1.065 1.041 2.618.441 5.732-.245 8.338l-.004.014c-1.7 6.1-5.65 11.191-11.12 14.334-3.622 2.08-7.624 3.142-11.666 3.142-.446 0-.891-.014-1.337-.04a1.923 1.923 0 0 0-1.166 1.823c.021.923.638 1.739 1.5 1.984 2.155.613 4.393.883 6.65.802a21.437 21.437 0 0 0 11.538-3.871.949.949 0 0 1 1.331.248.979.979 0 0 1-.244 1.35A23.33 23.33 0 0 1 381.308 350c-2.168 0-4.312-.298-6.386-.888-1.692-.482-2.856-2.012-2.897-3.809-.018-.78.194-1.52.581-2.147a23.583 23.583 0 0 1-9.002-3.514c-1.477-.966-2.144-2.776-1.66-4.505.162-.58.45-1.09.824-1.514a23.753 23.753 0 0 1-5.829-5.037 4.065 4.065 0 0 1-.292-4.8c1.123-1.767 3.466-2.3 5.225-1.189l.012.008c2.48 1.565 5.261 2.523 8.267 2.847 9.642 1.038 18.73-4.996 21.773-14.39v-3.347c0-.946.759-1.715 1.691-1.715Zm-.221 35.197c.252 0 .499.104.677.284a.98.98 0 0 1 0 1.373.956.956 0 0 1-.677.284.957.957 0 0 1-.677-.284.985.985 0 0 1-.28-.687c0-.255.102-.505.28-.686a.957.957 0 0 1 .677-.284Zm-1.234-28.94-2.29.01a23.348 23.348 0 0 1-4.9 14.128c-3.342 4.29-8.081 7.22-13.344 8.247-3.254.635-6.483.53-9.588-.31-1-.272-2.046.327-2.328 1.334-.249.889.104 1.853.856 2.345a21.593 21.593 0 0 0 6.122 2.755c11.452 3.14 23.392-3.718 26.62-15.288.607-2.303 1.183-4.93.362-6.988-.832-2.089-1.34-4.182-1.51-6.232Zm-4.629 4.134c-4.454 7.486-12.843 11.94-21.658 10.99-3.295-.354-6.349-1.407-9.077-3.13l-.012-.007a1.894 1.894 0 0 0-2.603.593c-.494.776-.434 1.802.144 2.496a21.837 21.837 0 0 0 6.218 5.13c.63-.175 1.311-.19 1.982-.008 2.835.767 5.772.86 8.74.281 8.352-1.63 14.621-8.164 16.266-16.345Zm5.75-8.45h-3.518v2.385l2.547-.01.972-2.375Z" fill="#FDCB5B" fill-rule="nonzero"/><g><use fill="#000" filter="url(#G)" xlink:href="#H"/><use fill="url(#I)" xlink:href="#H"/></g><path d="M137.11 276.493c17.641 7.379 32.79-2.082 33.833-21.132 1.044-19.05-12.41-40.475-30.053-47.854-17.641-7.379-32.79 2.082-33.833 21.132-1.044 19.05 12.41 40.475 30.053 47.854Z" fill-opacity=".572" fill="#1E3D49"/><g opacity=".936" stroke="#FFF" stroke-linecap="round" stroke-linejoin="round" stroke-width="3.644"><path d="M138.222 252.226c5.646 2.248 10.222-.736 10.222-6.667 0-5.93-4.576-12.561-10.222-14.81-5.645-2.249-10.222.736-10.222 6.667 0 5.93 4.577 12.56 10.222 14.81ZM151 260l-5.558-8.053"/></g><path d="M159.723 38.876c1.567-.574 3.284-.657 5.085-.17L340.99 86.319c3.756 1.015 7.14 4.29 9.597 8.728 2.488 4.494 4.026 10.188 4.026 16.019 0 5.794-1.517 10.633-3.99 13.763-1.235 1.563-2.707 2.696-4.346 3.295-1.567.574-3.284.657-5.085.17L165.01 80.681c-3.756-1.015-7.14-4.29-9.597-8.728-2.488-4.494-4.026-10.188-4.026-16.019 0-5.794 1.517-10.633 3.99-13.763 1.235-1.563 2.707-2.696 4.346-3.295Z" stroke="#DDD" stroke-width=".774" fill="#FFF"/><path d="M359.929 286.4c1.09.302 1.989 1.554 2.05 2.856.032.663.027 1.318-.014 1.96-.635 9.56-5.833 13.498-14.636 11.097-8.846-2.448-14.044-9.243-14.679-19.148a16.768 16.768 0 0 1-.017-1.976c.064-1.265.962-2.021 2.05-1.725l25.246 6.936Zm-25.248-5.322c-.364-.096-.663.159-.684.582-.029.575-.024 1.16.016 1.754.581 9.059 5.171 15.031 13.275 17.273 8.142 2.222 12.733-1.227 13.314-9.965a16.08 16.08 0 0 0 .01-1.75c-.02-.434-.32-.853-.683-.957l-25.248-6.937Zm19.918 7.087c1.315.363 2.537 1.498 3.236 3.005.7 1.507.779 3.175.21 4.418-1.74 3.782-5.345 4.96-10.716 3.496-5.41-1.499-9.015-4.657-10.757-9.394-.57-1.556-.491-3.182.209-4.305.699-1.123 1.921-1.586 3.236-1.226 1.292.378 2.491 1.477 3.21 2.942.72 1.399 2.321 2.614 4.08 3.097 1.76.483 3.361.148 4.081-.854.718-1.07 1.916-1.51 3.207-1.18l.004.001Zm-2.097 2.418c-.98 1.37-2.972 1.84-5.194 1.23-2.223-.611-4.214-2.176-5.195-4.085-.464-.964-1.246-1.694-2.092-1.954-.846-.232-1.631.065-2.082.786-.45.721-.501 1.765-.136 2.766 1.516 4.124 4.619 6.784 9.485 8.132 4.908 1.337 8.011.382 9.526-2.91.364-.799.313-1.87-.136-2.838-.45-.968-1.234-1.696-2.079-1.93-.851-.207-1.633.094-2.097.803Zm-15.231-39.477.126.042c1.533.421 2.734 1.815 2.734 3.173a1.948 1.948 0 0 1-.092.567.46.46 0 0 1-.015.07l-.023.056-.007.017c-.29.742-.505 1.54-.64 2.38 2.998 1.203 7.025.648 8.699.332.395-.08.848.166 1.137.616.288.45.353 1.01.161 1.408-.69 1.446-1.593 2.696-2.676 3.705 2.097 1.497 3.285 2.956 3.618 4.46.044.198.052.396.022.578 2.493 3.99 3.748 8.692 3.478 13.034-.016.25-.036.486-.057.722-.035.403-.329.636-.68.54-.02-.005-.043-.016-.068-.022a.967.967 0 0 1-.46-.422 1.094 1.094 0 0 1-.148-.634c.02-.224.038-.45.054-.679.239-3.98-.935-8.29-3.248-11.923l-.04-.011c-1.213-.52-2.442-.822-3.645-.896 1.214 2.147 2.009 4.52 2.307 6.886.055.547-.196.989-.615 1.08a.835.835 0 0 1-.41-.013c-.305-.084-.593-.325-.786-.656-1.087-1.86-2.145-2.725-4.064-4.296a101.463 101.463 0 0 1-2.256-1.887 13.97 13.97 0 0 1-2.033-2.128 4.55 4.55 0 0 1-.247-.372 2.119 2.119 0 0 1-.246.237c-.617.456-1.3.796-2.034 1.01-.858.27-1.6.47-2.256.646-1.918.518-2.976.803-4.063 2.065-.193.225-.481.307-.786.224a1.183 1.183 0 0 1-.41-.212 1.65 1.65 0 0 1-.615-1.42c.299-2.207 1.097-4.146 2.315-5.627-1.182-.568-2.388-.931-3.577-1.075l-.085-.023c-2.307 2.367-3.478 6.03-3.242 10.14.54 8.444 4.056 14.415 10.444 17.745.342.178.576.619.54 1.02-.035.402-.327.635-.677.54a.703.703 0 0 1-.137-.054c-6.961-3.627-10.949-10.371-11.533-19.502-.268-4.514 1-8.544 3.515-11.17a1.42 1.42 0 0 1 .026-.513c.334-1.318 1.52-2.125 3.616-2.47a24.914 24.914 0 0 1-2.678-5.176c-.191-.502-.127-1.028.161-1.32.29-.291.742-.288 1.138.01 2.258 1.702 4.635 3.056 7.059 4.02.107-1.33.401-2.577.872-3.694a.994.994 0 0 1 .06-.155l.02-.024c.526-.93 1.524-1.282 2.573-.907l-.126-.042Zm11.745 41.983c.378.104.684.55.684.995v1.615c0 .446-.306.723-.684.62-.377-.104-.683-.55-.683-.996v-1.614c0-.446.306-.723.683-.62Zm-3.417-.939c.377.104.683.55.683.995v1.615c0 .446-.306.723-.683.62-.378-.104-.684-.55-.684-.996v-1.614c0-.446.306-.723.684-.62Zm5.85.885c.337-.107.748.168.917.614l.683 1.802c.169.445.032.893-.306 1-.338.106-.749-.17-.917-.615l-.684-1.802c-.169-.445-.032-.893.306-1Zm-8.8-2.462c.171-.02.359.047.521.187.163.14.286.343.343.561a.895.895 0 0 1-.037.607l-.683 1.427c-.169.352-.58.401-.917.11-.338-.293-.475-.815-.307-1.168l.684-1.427a.5.5 0 0 1 .395-.297Zm-2.318-2.863c.268-.232.694-.11.958.273.264.384.267.889.008 1.134l-1.367 1.24c-.171.162-.425.176-.664.037a1.094 1.094 0 0 1-.489-.71c-.062-.3.01-.58.187-.735l1.367-1.239Zm12.995 3.58c.264-.238.69-.126.958.254l1.367 1.99c.26.388.256.89-.008 1.13-.264.238-.69.126-.958-.254l-1.367-1.99c-.26-.388-.256-.89.008-1.13Zm-28.674-15.918c.366.007.728.378.812.832.791 4.496 2.715 7.795 5.886 10.093.308.223.49.652.43 1.019-.06.367-.344.567-.674.476a.755.755 0 0 1-.243-.12c-3.582-2.598-5.85-6.464-6.735-11.49-.076-.455.158-.816.524-.81Zm-.242-2.767c.377.104.683.55.683.995 0 .446-.306.723-.683.62-.378-.104-.684-.55-.684-.996 0-.445.306-.723.684-.62Zm10.832-10.17c-1.574-.388-3.224.472-4.77 2.483-.844 1.04-1.486 2.307-1.893 3.738a9.381 9.381 0 0 1 3.706-1.554c.644-.173 1.373-.37 2.216-.636a5.515 5.515 0 0 0 1.734-.852c.448-.333.6-1.034.376-1.742-.203-.676-.7-1.228-1.262-1.403l-.015-.004a.198.198 0 0 0-.049-.018l-.043-.012Zm4.265 1.166c-.586-.17-1.116.108-1.326.697-.224.586-.074 1.371.374 1.952.527.674 1.11 1.28 1.734 1.804.842.73 1.572 1.326 2.215 1.853 1.345.988 2.598 2.201 3.71 3.594a19.149 19.149 0 0 0-1.893-4.783c-1.547-2.858-3.199-4.625-4.77-5.105l-.044-.012Zm5.665.555c-3.3-2.173-4.391-1.971-4.708-1.785 1.59.915 3.01 2.37 4.05 4.155 1.369.01 2.776.271 4.176.775l-.003-.001-.141-.204c-.634-.89-1.398-1.635-2.232-2.18l-.194-.121c-.31-.218-.608-.42-.893-.606a.879.879 0 0 1-.055-.033Zm-10.831-3.508c-.417-.42-1.578-1.077-4.648-.742-.307.028-.619.068-.951.118a4.051 4.051 0 0 0-2.564 1.093c1.38.26 2.766.761 4.116 1.486a5.362 5.362 0 0 1 4.081-1.911c-.013-.015-.02-.03-.034-.044Zm1.151-5.85c-.18.75-.285 1.542-.311 2.36-.025.862.028 1.746.159 2.637.3.384.517.845.621 1.323.56.31 1.062.81 1.436 1.428.225-.246.498-.426.803-.53-.34-1.502-.439-3.004-.294-4.419.048-.513.124-1.014.23-1.5a3.166 3.166 0 0 1-.74-.106c-.678-.17-1.343-.586-1.904-1.192Zm12.206 4.73-.176.027c-2.08.3-5.522.527-8.305-.583-.019.696.027 1.41.137 2.129.091-.099.193-.183.304-.252 1.037-.615 2.865-.067 5.559 1.65.972-.806 1.81-1.809 2.486-2.977l-.005.006Zm-20.533-5.64a23.59 23.59 0 0 0 2.49 4.335c1.348-.21 2.785-.054 4.217.458a17.403 17.403 0 0 1-.064-1.162c-2.274-.868-4.508-2.09-6.643-3.632Zm10.232-1.126c-.836-.23-1.367.103-1.367.432 0 .33.532.954 1.367 1.183.505.198 1.002.092 1.325-.282l.022-.054a.318.318 0 0 0 .02-.096c0-.33-.534-.954-1.367-1.183Z" fill="#D44A6F" fill-rule="nonzero"/><g opacity=".218" stroke="#1E3D49" stroke-linecap="round" stroke-linejoin="round" stroke-width="3.644"><path d="M332.846 114.299c4.114 1.649 7.732-.54 8.08-4.889.35-4.349-2.703-9.211-6.818-10.86-4.114-1.65-7.732.539-8.08 4.888-.35 4.35 2.703 9.212 6.818 10.86ZM342 120l-3.708-5.906"/></g><path stroke="#1E3D49" stroke-width=".864" stroke-dasharray="1.728522495031357,3.457044990062714" d="M124.434 205.564 169.78 70M169.387 242.614l67.177-31.182"/><path d="m305.839 322.081 34.322 10.21c1.016.301 1.839 1.358 1.839 2.36 0 1.002-.823 1.57-1.839 1.268l-34.322-10.21c-1.016-.301-1.839-1.358-1.839-2.36 0-1.002.823-1.57 1.839-1.268ZM342.839 371.081l34.322 10.21c1.016.301 1.839 1.358 1.839 2.36 0 1.002-.823 1.57-1.839 1.268l-34.322-10.21c-1.016-.301-1.839-1.358-1.839-2.36 0-1.002.823-1.57 1.839-1.268Z" fill="#D8D8D8"/><path d="m179.565 128.092 47.87 12.774c1.417.377 2.565 1.813 2.565 3.205 0 1.393-1.148 2.215-2.565 1.837l-47.87-12.774c-1.417-.377-2.565-1.813-2.565-3.205 0-1.393 1.148-2.215 2.565-1.837Z" fill="#BEBBBB"/><path d="m305.846 313.082 44.308 13.19c1.02.303 1.846 1.366 1.846 2.373 0 1.007-.827 1.577-1.846 1.273l-44.308-13.19c-1.02-.303-1.846-1.366-1.846-2.373 0-1.007.827-1.577 1.846-1.273ZM342.846 363.082l44.308 13.19c1.02.303 1.846 1.366 1.846 2.373 0 1.007-.827 1.577-1.846 1.273l-44.308-13.19c-1.02-.303-1.846-1.366-1.846-2.373 0-1.007.827-1.577 1.846-1.273Z" fill="#D8D8D8"/><path d="m179.577 117.093 61.846 16.69c1.423.383 2.577 1.842 2.577 3.257s-1.154 2.25-2.577 1.867l-61.846-16.69c-1.423-.383-2.577-1.842-2.577-3.257s1.154-2.25 2.577-1.867Z" fill="#BEBBBB"/><path d="m305.84 330.078 22.32 6.364c1.016.29 1.84 1.304 1.84 2.265 0 .96-.824 1.505-1.84 1.215l-22.32-6.364c-1.016-.29-1.84-1.304-1.84-2.265 0-.96.824-1.505 1.84-1.215ZM342.84 379.078l22.32 6.364c1.016.29 1.84 1.304 1.84 2.265 0 .96-.824 1.505-1.84 1.215l-22.32-6.364c-1.016-.29-1.84-1.304-1.84-2.265 0-.96.824-1.505 1.84-1.215Z" fill="#D8D8D8"/><path d="m179.618 139.095 31.764 8.592c1.446.39 2.618 1.876 2.618 3.317 0 1.44-1.172 2.292-2.618 1.9l-31.764-8.59c-1.446-.392-2.618-1.877-2.618-3.318 0-1.44 1.172-2.292 2.618-1.9Z" fill="#BEBBBB"/><path stroke="#1E3D49" stroke-width=".864" stroke-dasharray="1.728522495031357,3.457044990062714" d="m157.321 218.684 42.358-61.368"/><path d="m297.65 288.298 29.7 9.003c3.673 1.114 6.65 5.016 6.65 8.716 0 3.7-2.977 5.798-6.65 4.685l-29.7-9.003c-3.673-1.114-6.65-5.016-6.65-8.716 0-3.7 2.977-5.798 6.65-4.685Z" fill="#0086B2"/><path stroke="#1E3D49" stroke-width=".864" stroke-dasharray="1.728522495031357,3.457044990062714" d="m166.318 267.306 128.246 27.257"/></g></svg>