<svg id="Capa_1" data-name="Capa 1" xmlns="http://www.w3.org/2000/svg" viewBox="0 0 751 387"><defs><style>.cls-1,.cls-15,.cls-16,.cls-17,.cls-2,.cls-20,.cls-21,.cls-22,.cls-25,.cls-3,.cls-4,.cls-6,.cls-7{fill:none;}.cls-1{stroke:#8b6391;}.cls-1,.cls-15,.cls-16,.cls-17,.cls-2,.cls-20,.cls-22,.cls-25,.cls-3,.cls-4,.cls-6{stroke-miterlimit:10;}.cls-1,.cls-25{stroke-width:0.5px;}.cls-2,.cls-22{stroke:#0086b2;}.cls-17,.cls-2,.cls-20,.cls-3{stroke-width:0.5px;}.cls-16,.cls-3{stroke:#80c0a1;}.cls-15,.cls-20,.cls-4{stroke:#243c47;}.cls-15,.cls-16,.cls-4,.cls-6{stroke-width:1.01px;}.cls-4{opacity:0.63;}.cls-5{fill:#243d48;}.cls-6{stroke:#979797;}.cls-8{fill:#1e3d49;}.cls-9{fill:#53b9c9;}.cls-10{fill:#8f8f8f;}.cls-11,.cls-13,.cls-14{fill:#80c0a1;}.cls-12{fill:#fdfdfd;}.cls-13,.cls-19{fill-rule:evenodd;}.cls-14{opacity:0.23;}.cls-17{stroke:#53b9c9;}.cls-17,.cls-20{stroke-dasharray:3.42 2.57;}.cls-18{fill:#243c47;}.cls-19,.cls-26{fill:#8b6391;}.cls-21{stroke:#d2d2d2;stroke-linecap:round;stroke-linejoin:round;stroke-width:1.52px;}.cls-22{stroke-width:0.51px;}.cls-23{fill:#fff;}.cls-24{fill:#0086b2;}.cls-25{stroke:#8f8f8f;}</style></defs><line class="cls-1" x1="248" y1="158.25" x2="441" y2="158.5"/><path class="cls-2" d="M278,158.3h15.93a99.28,99.28,0,0,1,32.22,5.37q19.37,6.63,43,6.63h74.43"/><path class="cls-3" d="M278,158.3h15.86A98.46,98.46,0,0,0,326,152.93q19.31-6.63,42.78-6.63h74.13"/><circle class="cls-4" cx="592.5" cy="157.5" r="34.5"/><path class="cls-5" d="M172,214.54l-1.17-1.64-1.16,1.64h-.92l1.61-2.2-1.52-2.12h.91l1.1,1.54,1.09-1.54h.87l-1.51,2.09,1.62,2.23Z"/><path class="cls-5" d="M178.66,214.32a2.13,2.13,0,0,1-.83-.8,2.16,2.16,0,0,1-.3-1.14,2.21,2.21,0,0,1,.3-1.14,2.25,2.25,0,0,1,.83-.79,2.45,2.45,0,0,1,1.18-.29,2.33,2.33,0,0,1,1,.19,2,2,0,0,1,.74.53l-.52.49a1.51,1.51,0,0,0-1.15-.5,1.59,1.59,0,0,0-.79.19,1.36,1.36,0,0,0-.55.54,1.64,1.64,0,0,0,0,1.57,1.36,1.36,0,0,0,.55.54,1.59,1.59,0,0,0,.79.19,1.49,1.49,0,0,0,1.15-.51l.52.49a2,2,0,0,1-.74.54,2.54,2.54,0,0,1-1,.18A2.42,2.42,0,0,1,178.66,214.32Z"/><path class="cls-5" d="M184.36,214.32a2.13,2.13,0,0,1-.83-.8,2.21,2.21,0,0,1-.3-1.14,2.16,2.16,0,0,1,1.13-1.93,2.61,2.61,0,0,1,2.39,0,2.18,2.18,0,0,1,.83.79,2.21,2.21,0,0,1,.3,1.14,2.16,2.16,0,0,1-.3,1.14,2.13,2.13,0,0,1-.83.8,2.69,2.69,0,0,1-2.39,0Zm2-.61a1.45,1.45,0,0,0,.55-.55,1.55,1.55,0,0,0,.19-.78,1.61,1.61,0,0,0-.19-.78,1.5,1.5,0,0,0-.55-.54,1.68,1.68,0,0,0-1.55,0,1.4,1.4,0,0,0-.54.54,1.51,1.51,0,0,0-.2.78,1.46,1.46,0,0,0,.2.78,1.36,1.36,0,0,0,.54.55,1.68,1.68,0,0,0,1.55,0Z"/><path class="cls-5" d="M194,214.54v-2.86l-1.42,2.37h-.36l-1.42-2.33v2.82H190v-4.32h.66l1.71,2.87,1.69-2.87h.66v4.32Z"/><path class="cls-5" d="M200,210.41a1.4,1.4,0,0,1,.64.53,1.46,1.46,0,0,1,.22.82,1.48,1.48,0,0,1-.22.82,1.4,1.4,0,0,1-.64.53,2.45,2.45,0,0,1-1,.19h-1v1.24h-.8v-4.32H199A2.45,2.45,0,0,1,200,210.41Zm-.22,2a.78.78,0,0,0,.27-.64.8.8,0,0,0-.27-.64,1.28,1.28,0,0,0-.79-.22H198v1.72H199A1.28,1.28,0,0,0,199.77,212.4Z"/><path class="cls-5" d="M203.85,214.32a2.06,2.06,0,0,1-.83-.8,2.12,2.12,0,0,1-.31-1.14,2.19,2.19,0,0,1,1.14-1.93,2.47,2.47,0,0,1,1.19-.29,2.49,2.49,0,0,1,1.19.29,2.18,2.18,0,0,1,.83.79,2.21,2.21,0,0,1,.3,1.14,2.16,2.16,0,0,1-.3,1.14,2.13,2.13,0,0,1-.83.8,2.49,2.49,0,0,1-1.19.28A2.46,2.46,0,0,1,203.85,214.32Zm2-.61a1.33,1.33,0,0,0,.55-.55,1.56,1.56,0,0,0,.2-.78,1.62,1.62,0,0,0-.2-.78,1.36,1.36,0,0,0-.55-.54,1.52,1.52,0,0,0-.77-.19,1.55,1.55,0,0,0-.78.19,1.4,1.4,0,0,0-.54.54,1.62,1.62,0,0,0-.2.78,1.56,1.56,0,0,0,.2.78,1.36,1.36,0,0,0,.54.55,1.55,1.55,0,0,0,.78.19A1.52,1.52,0,0,0,205.81,213.71Z"/><path class="cls-5" d="M213.36,210.22v4.32h-.66l-2.38-2.92v2.92h-.8v-4.32h.66l2.38,2.93v-2.93Z"/><path class="cls-5" d="M219.06,213.87v.67h-3.24v-4.32H219v.68h-2.35V212h2.08v.66h-2.08v1.19Z"/><path class="cls-5" d="M225.1,210.22v4.32h-.66l-2.38-2.92v2.92h-.8v-4.32h.66l2.38,2.93v-2.93Z"/><path class="cls-5" d="M228.44,210.9H227v-.68h3.67v.68h-1.43v3.64h-.81Z"/><path class="cls-5" d="M232.92,214.46a2,2,0,0,1-.74-.37l.28-.63a1.9,1.9,0,0,0,.65.34,2.32,2.32,0,0,0,.77.14,1.28,1.28,0,0,0,.72-.16.46.46,0,0,0,.24-.4.42.42,0,0,0-.13-.31,1,1,0,0,0-.34-.19l-.56-.15a6.45,6.45,0,0,1-.79-.24,1.29,1.29,0,0,1-.53-.36,1,1,0,0,1-.22-.68,1.16,1.16,0,0,1,.2-.65,1.3,1.3,0,0,1,.58-.46,2.28,2.28,0,0,1,1-.18,3.4,3.4,0,0,1,.78.1,2.2,2.2,0,0,1,.66.29l-.25.62a2.24,2.24,0,0,0-.6-.25,2.06,2.06,0,0,0-.59-.09,1.22,1.22,0,0,0-.71.16.51.51,0,0,0-.23.43.38.38,0,0,0,.13.3.85.85,0,0,0,.34.18c.13,0,.32.1.55.16a5.18,5.18,0,0,1,.79.23,1.39,1.39,0,0,1,.53.36,1,1,0,0,1,.22.67,1.14,1.14,0,0,1-.2.65,1.3,1.3,0,0,1-.58.46,2.37,2.37,0,0,1-1,.17A3.1,3.1,0,0,1,232.92,214.46Z"/><path class="cls-5" d="M240.5,212.51h1.7v.64h-1.7Z"/><path class="cls-5" d="M247.9,214.1a1.91,1.91,0,0,1-.5-1.44v-2.44h.8v2.41c0,.85.36,1.27,1.09,1.27s1.1-.42,1.1-1.27v-2.41h.79v2.44a2,2,0,0,1-.5,1.44,2.18,2.18,0,0,1-2.78,0Z"/><path class="cls-5" d="M253.61,210.22h.8v4.32h-.8Z"/><path class="cls-5" d="M260.11,173.87a1.67,1.67,0,0,1-.42-1.22v-2.07h.68v2q0,1.08.93,1.08t.93-1.08v-2h.67v2.07a1.68,1.68,0,0,1-.43,1.22,1.58,1.58,0,0,1-1.17.42A1.63,1.63,0,0,1,260.11,173.87Z"/><path class="cls-5" d="M265,170.58h.68v3.66H265Z"/><path class="cls-5" d="M273,173.67v.57h-2.75v-3.66H273v.57h-2v.95h1.77v.56H271v1Z"/><path class="cls-5" d="M278.19,170.58l-1.6,3.66h-.67l-1.6-3.66h.74l1.22,2.83,1.23-2.83Z"/><path class="cls-5" d="M282.42,173.67v.57h-2.74v-3.66h2.67v.57h-2v.95h1.77v.56h-1.77v1Z"/><path class="cls-5" d="M287.54,170.58v3.66H287l-2-2.48v2.48h-.67v-3.66h.56l2,2.48v-2.48Z"/><path class="cls-5" d="M290.38,171.16h-1.22v-.58h3.11v.58h-1.22v3.08h-.67Z"/><path class="cls-5" d="M294.17,174.17a1.76,1.76,0,0,1-.63-.31l.24-.53a1.9,1.9,0,0,0,.55.29,2.17,2.17,0,0,0,.66.11,1.07,1.07,0,0,0,.6-.13.4.4,0,0,0,.21-.35.3.3,0,0,0-.12-.25.64.64,0,0,0-.28-.16,3.67,3.67,0,0,0-.47-.13c-.28-.07-.51-.14-.68-.2a1.14,1.14,0,0,1-.44-.31.85.85,0,0,1-.19-.58,1,1,0,0,1,.17-.55,1.08,1.08,0,0,1,.49-.39,2,2,0,0,1,.82-.15,2.82,2.82,0,0,1,.65.08,1.93,1.93,0,0,1,.56.24l-.21.53a2.41,2.41,0,0,0-.5-.21,1.89,1.89,0,0,0-.51-.07,1.07,1.07,0,0,0-.6.13.41.41,0,0,0-.19.36.31.31,0,0,0,.11.26.75.75,0,0,0,.28.15l.47.14a4,4,0,0,1,.67.19,1.1,1.1,0,0,1,.45.31.85.85,0,0,1,.18.57,1,1,0,0,1-.16.55,1.18,1.18,0,0,1-.5.39,2,2,0,0,1-.81.14A2.76,2.76,0,0,1,294.17,174.17Z"/><path class="cls-5" d="M387.21,136.58h1.59a2.35,2.35,0,0,1,1.05.23,1.73,1.73,0,0,1,.7.64,1.81,1.81,0,0,1,.25,1,1.79,1.79,0,0,1-.25,1,1.67,1.67,0,0,1-.7.64,2.22,2.22,0,0,1-1.05.23h-1.59Zm1.56,3.09a1.46,1.46,0,0,0,.71-.16,1.06,1.06,0,0,0,.47-.44,1.37,1.37,0,0,0,0-1.32,1.11,1.11,0,0,0-.47-.44,1.58,1.58,0,0,0-.71-.15h-.89v2.51Z"/><path class="cls-5" d="M392.63,136.58h.68v3.66h-.68Z"/><path class="cls-5" d="M395.72,140.17a1.71,1.71,0,0,1-.62-.31l.23-.53a2,2,0,0,0,.55.29,2.17,2.17,0,0,0,.66.11,1.11,1.11,0,0,0,.61-.13.41.41,0,0,0,.2-.35.33.33,0,0,0-.11-.25.68.68,0,0,0-.29-.16,3.25,3.25,0,0,0-.47-.13c-.27-.07-.5-.14-.67-.2a1.17,1.17,0,0,1-.45-.31.89.89,0,0,1-.18-.58,1,1,0,0,1,.16-.55,1.11,1.11,0,0,1,.5-.39,2,2,0,0,1,.81-.15,3,3,0,0,1,.66.08,2.06,2.06,0,0,1,.56.24l-.22.53a2.21,2.21,0,0,0-.5-.21,1.77,1.77,0,0,0-.5-.07,1.07,1.07,0,0,0-.6.13.42.42,0,0,0-.2.36.35.35,0,0,0,.11.26.8.8,0,0,0,.29.15l.47.14a4.7,4.7,0,0,1,.67.19,1.14,1.14,0,0,1,.44.31.8.8,0,0,1,.19.57,1,1,0,0,1-.16.55,1.18,1.18,0,0,1-.5.39,2,2,0,0,1-.82.14A2.86,2.86,0,0,1,395.72,140.17Z"/><path class="cls-5" d="M402.14,136.74a1.2,1.2,0,0,1,.54.45,1.29,1.29,0,0,1,.19.69,1.19,1.19,0,0,1-.73,1.15,2.12,2.12,0,0,1-.83.16h-.83v1.05h-.68v-3.66h1.51A2.12,2.12,0,0,1,402.14,136.74Zm-.19,1.68a.63.63,0,0,0,.23-.54.62.62,0,0,0-.23-.53,1,1,0,0,0-.67-.19h-.8v1.45h.8A1,1,0,0,0,402,138.42Z"/><path class="cls-5" d="M406.84,139.4H405l-.37.84H404l1.65-3.66h.67l1.65,3.66h-.71Zm-.22-.54-.69-1.6-.68,1.6Z"/><path class="cls-5" d="M410.05,137.16h-1.21v-.58H412v.58h-1.22v3.08h-.68Z"/><path class="cls-5" d="M414.21,140.05a1.74,1.74,0,0,1-.7-.67,1.88,1.88,0,0,1-.26-1,1.86,1.86,0,0,1,1-1.64,2.08,2.08,0,0,1,1-.24,2,2,0,0,1,.83.16,1.63,1.63,0,0,1,.62.45l-.44.42a1.25,1.25,0,0,0-1-.43,1.37,1.37,0,0,0-.68.16,1.13,1.13,0,0,0-.46.46,1.23,1.23,0,0,0-.17.66,1.26,1.26,0,0,0,.17.67,1.17,1.17,0,0,0,.46.45,1.37,1.37,0,0,0,.68.17,1.26,1.26,0,0,0,1-.44l.44.42a1.71,1.71,0,0,1-.63.46,2.18,2.18,0,0,1-.82.15A2.08,2.08,0,0,1,414.21,140.05Z"/><path class="cls-5" d="M421.67,136.58v3.66H421v-1.57h-1.9v1.57h-.68v-3.66h.68v1.51H421v-1.51Z"/><rect class="cls-6" x="179" y="148" width="69" height="20" rx="4.28"/><rect class="cls-7" x="179" y="148" width="69" height="20" rx="4.28"/><path class="cls-5" d="M16.65,214.54a2.05,2.05,0,0,1-.74-.38l.28-.62a2.09,2.09,0,0,0,.65.34,2.27,2.27,0,0,0,.77.13,1.38,1.38,0,0,0,.72-.15.47.47,0,0,0,.24-.41.39.39,0,0,0-.14-.3.82.82,0,0,0-.33-.19c-.14-.05-.32-.1-.56-.16a4.86,4.86,0,0,1-.79-.23,1.31,1.31,0,0,1-.53-.37,1,1,0,0,1-.22-.67,1.14,1.14,0,0,1,.2-.65,1.31,1.31,0,0,1,.58-.47,2.46,2.46,0,0,1,1-.17,3,3,0,0,1,.78.1,2.19,2.19,0,0,1,.66.28l-.25.62a2.63,2.63,0,0,0-.6-.25,2.08,2.08,0,0,0-.6-.09,1.29,1.29,0,0,0-.7.16.49.49,0,0,0-.23.43.38.38,0,0,0,.13.3,1,1,0,0,0,.34.19l.55.15a7.28,7.28,0,0,1,.79.23,1.41,1.41,0,0,1,.53.37,1,1,0,0,1,.22.67,1.13,1.13,0,0,1-.2.64,1.29,1.29,0,0,1-.59.47,2.46,2.46,0,0,1-1,.17A3.43,3.43,0,0,1,16.65,214.54Z"/><path class="cls-5" d="M25.43,210.3v4.32h-.81v-1.85H22.39v1.85h-.8V210.3h.8v1.78h2.23V210.3Z"/><path class="cls-5" d="M28.85,214.39a2.2,2.2,0,0,1,0-3.86,2.59,2.59,0,0,1,2.38,0,2.1,2.1,0,0,1,.83.79,2.32,2.32,0,0,1,0,2.28,2.1,2.1,0,0,1-.83.79,2.59,2.59,0,0,1-2.38,0Zm2-.61a1.4,1.4,0,0,0,.54-.54,1.62,1.62,0,0,0,0-1.56,1.4,1.4,0,0,0-.54-.54,1.62,1.62,0,0,0-1.56,0,1.4,1.4,0,0,0-.54.54,1.62,1.62,0,0,0,0,1.56,1.4,1.4,0,0,0,.54.54,1.62,1.62,0,0,0,1.56,0Z"/><path class="cls-5" d="M37.41,210.49A1.38,1.38,0,0,1,38,211a1.49,1.49,0,0,1-.63,2.17,2.48,2.48,0,0,1-1,.18h-1v1.25h-.8V210.3h1.78A2.32,2.32,0,0,1,37.41,210.49Zm-.22,2a.88.88,0,0,0,0-1.27,1.23,1.23,0,0,0-.8-.22h-.94v1.71h.94A1.23,1.23,0,0,0,37.19,212.47Z"/><path class="cls-5" d="M43.26,210.49a1.4,1.4,0,0,1,.64.53,1.62,1.62,0,0,1,0,1.63,1.49,1.49,0,0,1-.64.54,2.45,2.45,0,0,1-1,.18h-1v1.25H40.5V210.3h1.78A2.29,2.29,0,0,1,43.26,210.49Zm-.22,2a.88.88,0,0,0,0-1.27,1.23,1.23,0,0,0-.8-.22h-.93v1.71h.93A1.23,1.23,0,0,0,43,212.47Z"/><path class="cls-5" d="M49.6,214v.67H46.36V210.3h3.15V211H47.16v1.12h2.08v.66H47.16V214Z"/><path class="cls-5" d="M54.75,214.62l-.88-1.27H52.73v1.26h-.8V210.3H53.7a2.29,2.29,0,0,1,1,.19,1.4,1.4,0,0,1,.64.53,1.46,1.46,0,0,1,.22.82,1.42,1.42,0,0,1-.24.83,1.36,1.36,0,0,1-.68.53l1,1.42Zm-.29-3.42a1.2,1.2,0,0,0-.79-.22h-.94v1.72h.94a1.2,1.2,0,0,0,.79-.23.88.88,0,0,0,0-1.27Z"/><path class="cls-8" d="M58.59,31a2.76,2.76,0,0,1-.71-2V25.5H59v3.41c0,1.2.52,1.8,1.55,1.8s1.55-.6,1.55-1.8V25.5h1.12V29a2.76,2.76,0,0,1-.71,2,3.09,3.09,0,0,1-3.94,0Z"/><path class="cls-8" d="M67.39,31.5a2.74,2.74,0,0,1-1-.53l.39-.88a3,3,0,0,0,.92.48,3.22,3.22,0,0,0,1.1.19,1.82,1.82,0,0,0,1-.22.64.64,0,0,0,.34-.57.56.56,0,0,0-.19-.44,1.25,1.25,0,0,0-.47-.26c-.2-.07-.46-.14-.79-.22a9.05,9.05,0,0,1-1.13-.33,1.85,1.85,0,0,1-.74-.52,1.4,1.4,0,0,1-.31-1,1.65,1.65,0,0,1,.27-.92,1.85,1.85,0,0,1,.83-.66,3.41,3.41,0,0,1,1.36-.24,4.1,4.1,0,0,1,1.1.14A2.81,2.81,0,0,1,71,26l-.35.88a3.43,3.43,0,0,0-.84-.36,3.23,3.23,0,0,0-.85-.12,1.78,1.78,0,0,0-1,.23.69.69,0,0,0-.33.6.57.57,0,0,0,.19.43,1.38,1.38,0,0,0,.48.26c.19.06.45.14.78.22a8,8,0,0,1,1.12.32,2.07,2.07,0,0,1,.75.52,1.43,1.43,0,0,1,.31.95,1.53,1.53,0,0,1-.28.91,1.8,1.8,0,0,1-.83.66,3.45,3.45,0,0,1-1.36.24A4.45,4.45,0,0,1,67.39,31.5Z"/><path class="cls-8" d="M79,30.67v.95H74.39V25.5h4.46v1H75.52V28h3V29h-3v1.69Z"/><path class="cls-8" d="M86.28,31.62,85,29.83H83.41v1.78H82.28V25.5h2.51a3.35,3.35,0,0,1,1.39.27,2,2,0,0,1,.9.75,2.07,2.07,0,0,1,.31,1.16,2.13,2.13,0,0,1-.33,1.19,2,2,0,0,1-1,.74l1.41,2Zm-.41-4.84a1.77,1.77,0,0,0-1.13-.32H83.41V28.9h1.33a1.77,1.77,0,0,0,1.13-.32,1.26,1.26,0,0,0,0-1.8Z"/><rect class="cls-7" x="1" width="145" height="58"/><path class="cls-9" d="M170.71,34.77a2,2,0,0,1,.9.75,2.08,2.08,0,0,1,.32,1.16,2.12,2.12,0,0,1-.32,1.16,2,2,0,0,1-.9.75,3.27,3.27,0,0,1-1.38.26H168v1.77h-1.14V34.5h2.52A3.27,3.27,0,0,1,170.71,34.77Zm-.31,2.81a1.26,1.26,0,0,0,0-1.8,1.75,1.75,0,0,0-1.13-.32H168v2.43h1.32A1.75,1.75,0,0,0,170.4,37.58Z"/><path class="cls-9" d="M179.1,40.62l-1.25-1.79h-1.62v1.78H175.1V34.5h2.51a3.35,3.35,0,0,1,1.39.27,2,2,0,0,1,.9.75,2.08,2.08,0,0,1,.32,1.16,2.13,2.13,0,0,1-.34,1.19,2,2,0,0,1-1,.74l1.4,2Zm-.41-4.84a1.75,1.75,0,0,0-1.13-.32h-1.33V37.9h1.33a1.75,1.75,0,0,0,1.13-.32,1.26,1.26,0,0,0,0-1.8Z"/><path class="cls-9" d="M188.1,39.67v.95h-4.58V34.5H188v1h-3.33V37h2.95V38h-2.95v1.69Z"/><path class="cls-9" d="M191.93,40.5a2.82,2.82,0,0,1-1-.53l.39-.88a3,3,0,0,0,.92.48,3.27,3.27,0,0,0,1.1.19,1.89,1.89,0,0,0,1-.22.65.65,0,0,0,.33-.57.59.59,0,0,0-.18-.44,1.38,1.38,0,0,0-.48-.26,7.2,7.2,0,0,0-.79-.22,9.6,9.6,0,0,1-1.13-.33,1.92,1.92,0,0,1-.74-.52,1.4,1.4,0,0,1-.31-1,1.65,1.65,0,0,1,.27-.92,1.85,1.85,0,0,1,.83-.66,3.45,3.45,0,0,1,1.36-.24,4.1,4.1,0,0,1,1.1.14,2.87,2.87,0,0,1,.94.4l-.36.88a3.43,3.43,0,0,0-.84-.36,3.17,3.17,0,0,0-.85-.12,1.8,1.8,0,0,0-1,.23.71.71,0,0,0-.32.6.57.57,0,0,0,.18.43,1.38,1.38,0,0,0,.48.26c.19.06.45.14.79.22a8.18,8.18,0,0,1,1.11.32,2.07,2.07,0,0,1,.75.52,1.38,1.38,0,0,1,.31,1,1.6,1.6,0,0,1-.27.91,1.89,1.89,0,0,1-.84.66,3.45,3.45,0,0,1-1.36.24A4.5,4.5,0,0,1,191.93,40.5Z"/><path class="cls-9" d="M203.52,39.67v.95h-4.59V34.5h4.47v1h-3.33V37h3V38h-3v1.69Z"/><path class="cls-9" d="M212.25,34.5v6.12h-.93L208,36.48v4.14h-1.13V34.5h.93l3.37,4.14V34.5Z"/><path class="cls-9" d="M217.17,35.46h-2v-1h5.19v1h-2v5.16h-1.13Z"/><path class="cls-9" d="M226.88,39.2h-3.06l-.6,1.42h-1.17l2.75-6.12h1.12l2.76,6.12h-1.19Zm-.38-.89-1.15-2.67-1.14,2.67Z"/><path class="cls-9" d="M232.43,35.46h-2v-1h5.19v1h-2v5.16h-1.13Z"/><path class="cls-9" d="M238.48,34.5h1.13v6.12h-1.13Z"/><path class="cls-9" d="M244.47,40.3a3.12,3.12,0,0,1,0-5.48,3.75,3.75,0,0,1,3.37,0A3.1,3.1,0,0,1,249,35.94a3.27,3.27,0,0,1,0,3.24,3.1,3.1,0,0,1-1.18,1.12,3.75,3.75,0,0,1-3.37,0Zm2.78-.87a1.94,1.94,0,0,0,.77-.76,2.18,2.18,0,0,0,.28-1.11,2.12,2.12,0,0,0-.28-1.1,1.9,1.9,0,0,0-.77-.77,2.12,2.12,0,0,0-1.1-.28,2.17,2.17,0,0,0-1.1.28,1.94,1.94,0,0,0-.76.77,2.12,2.12,0,0,0-.28,1.1,2.18,2.18,0,0,0,.28,1.11,2,2,0,0,0,.76.76,2.17,2.17,0,0,0,1.1.28A2.12,2.12,0,0,0,247.25,39.43Z"/><path class="cls-9" d="M258.12,34.5v6.12h-.93l-3.38-4.14v4.14h-1.12V34.5h.93L257,38.64V34.5Z"/><rect class="cls-7" x="161" y="17" width="105" height="41"/><path class="cls-9" d="M214,8.2h-3.06l-.6,1.42h-1.17l2.75-6.12H213l2.76,6.12h-1.19Zm-.38-.89-1.15-2.67-1.15,2.67Z"/><rect class="cls-7" x="161" width="105" height="17"/><path class="cls-9" d="M346.61,7a1.54,1.54,0,0,1,.3,1,1.39,1.39,0,0,1-.61,1.22,3.06,3.06,0,0,1-1.78.44h-3V3.5h2.86a2.75,2.75,0,0,1,1.67.43,1.36,1.36,0,0,1,.59,1.16,1.55,1.55,0,0,1-.21.81,1.44,1.44,0,0,1-.58.54A1.54,1.54,0,0,1,346.61,7Zm-4-2.6V6.08h1.61a1.63,1.63,0,0,0,.91-.21.7.7,0,0,0,.32-.63.69.69,0,0,0-.32-.63,1.63,1.63,0,0,0-.91-.22Zm3.16,3.45c0-.58-.44-.88-1.32-.88h-1.84V8.73h1.84C345.33,8.73,345.77,8.43,345.77,7.84Z"/><rect class="cls-7" x="279" width="132" height="41"/><path class="cls-9" d="M473.79,9.3a3.1,3.1,0,0,1-1.18-1.12,3.16,3.16,0,0,1-.42-1.62,3,3,0,0,1,1.6-2.74,3.48,3.48,0,0,1,1.68-.4,3.41,3.41,0,0,1,1.37.26,2.72,2.72,0,0,1,1,.76l-.73.69a2.13,2.13,0,0,0-1.63-.72,2.23,2.23,0,0,0-1.13.28,1.88,1.88,0,0,0-.77.76,2.27,2.27,0,0,0,0,2.22,1.88,1.88,0,0,0,.77.76,2.23,2.23,0,0,0,1.13.28A2.11,2.11,0,0,0,477.15,8l.73.7a2.68,2.68,0,0,1-1.05.76,3.71,3.71,0,0,1-3-.14Z"/><rect class="cls-7" x="410" width="132" height="41"/><path class="cls-9" d="M329.22,31.53v1h-4.59V26.37h4.47v.95h-3.33v1.59h3v.94h-3v1.68Z"/><path class="cls-9" d="M338,26.37l-2.66,6.12h-1.12l-2.67-6.12h1.23l2,4.72,2.05-4.72Z"/><path class="cls-9" d="M345.29,31.53v1H340.7V26.37h4.47v.95h-3.33v1.59h3v.94h-3v1.68Z"/><path class="cls-9" d="M354,26.37v6.12h-.93l-3.37-4.14v4.14h-1.13V26.37h.93l3.38,4.14V26.37Z"/><path class="cls-9" d="M358.94,27.33h-2v-1h5.19v1h-2v5.16h-1.14Z"/><path class="cls-9" d="M293.36,47.73a3.17,3.17,0,0,1-1.18-4.35,3.05,3.05,0,0,1,1.18-1.13,3.67,3.67,0,0,1,3.37,0,3,3,0,0,1,1.18,1.12,3.07,3.07,0,0,1,.43,1.62,3,3,0,0,1-.43,1.61,3.06,3.06,0,0,1-1.18,1.13,3.75,3.75,0,0,1-3.37,0Zm2.79-.87a2,2,0,0,0,.77-.77,2.4,2.4,0,0,0,0-2.21,2.11,2.11,0,0,0-.77-.77,2.27,2.27,0,0,0-1.1-.27,2.21,2.21,0,0,0-1.1.27,2,2,0,0,0-.77.77,2.32,2.32,0,0,0,0,2.21,1.9,1.9,0,0,0,.77.77,2.22,2.22,0,0,0,1.1.28A2.28,2.28,0,0,0,296.15,46.86Z"/><path class="cls-9" d="M305.58,48l-1.25-1.79h-1.62V48h-1.13V41.93h2.51a3.48,3.48,0,0,1,1.39.26,2.09,2.09,0,0,1,.9.75,2.14,2.14,0,0,1,.32,1.17A2,2,0,0,1,305.4,46l1.4,2Zm-.41-4.83a1.75,1.75,0,0,0-1.13-.32h-1.33v2.44H304a1.75,1.75,0,0,0,1.13-.32,1.11,1.11,0,0,0,.38-.9A1.1,1.1,0,0,0,305.17,43.21Z"/><path class="cls-9" d="M311.16,47.73A3.13,3.13,0,0,1,310,46.6a3.28,3.28,0,0,1,0-3.23,3,3,0,0,1,1.17-1.12,3.48,3.48,0,0,1,1.68-.41,3.42,3.42,0,0,1,1.37.27,2.73,2.73,0,0,1,1.05.76l-.74.68a2.14,2.14,0,0,0-1.63-.71,2.33,2.33,0,0,0-1.13.27,2,2,0,0,0-.77.77,2.13,2.13,0,0,0-.28,1.11A2.18,2.18,0,0,0,311,46.1a1.94,1.94,0,0,0,.77.76,2.34,2.34,0,0,0,1.13.28,2.13,2.13,0,0,0,1.63-.73l.74.7a2.91,2.91,0,0,1-1.06.76,3.56,3.56,0,0,1-1.37.26A3.41,3.41,0,0,1,311.16,47.73Z"/><path class="cls-9" d="M323.81,41.93V48h-1.13V45.42h-3.16V48h-1.14V41.93h1.14v2.52h3.16V41.93Z"/><path class="cls-9" d="M332.08,47.09V48h-4.59V41.93H332v1h-3.32v1.59h2.95v.94h-2.95v1.68Z"/><path class="cls-9" d="M335.91,47.93a2.87,2.87,0,0,1-1.05-.53l.4-.88a3.07,3.07,0,0,0,.92.48,3.21,3.21,0,0,0,1.09.19,1.84,1.84,0,0,0,1-.22.68.68,0,0,0,.34-.58.57.57,0,0,0-.19-.43,1.47,1.47,0,0,0-.48-.27l-.78-.21a8.38,8.38,0,0,1-1.13-.34,1.85,1.85,0,0,1-.75-.52,1.41,1.41,0,0,1-.31-.95,1.64,1.64,0,0,1,.28-.92,1.8,1.8,0,0,1,.83-.66,3.24,3.24,0,0,1,1.36-.25,4.54,4.54,0,0,1,1.1.14,3.3,3.3,0,0,1,.93.4l-.36.89a3.36,3.36,0,0,0-1.68-.48,1.79,1.79,0,0,0-1,.22.72.72,0,0,0-.33.61.52.52,0,0,0,.19.42,1.42,1.42,0,0,0,.47.27l.79.21a10,10,0,0,1,1.12.33,2.07,2.07,0,0,1,.75.52,1.4,1.4,0,0,1,.31.94,1.64,1.64,0,0,1-.28.92,1.87,1.87,0,0,1-.83.66,3.5,3.5,0,0,1-1.37.24A4.76,4.76,0,0,1,335.91,47.93Z"/><path class="cls-9" d="M344.06,42.89h-2v-1h5.19v1h-2V48h-1.13Z"/><path class="cls-9" d="M354.11,48l-1.25-1.79h-1.61V48h-1.14V41.93h2.52a3.43,3.43,0,0,1,1.38.26,2.12,2.12,0,0,1,.91.75,2.22,2.22,0,0,1,.31,1.17,2,2,0,0,1-.34,1.18,2,2,0,0,1-1,.75l1.4,2Zm-.41-4.83a1.75,1.75,0,0,0-1.13-.32h-1.32v2.44h1.32A1.75,1.75,0,0,0,353.7,45a1.09,1.09,0,0,0,.39-.9A1.08,1.08,0,0,0,353.7,43.21Z"/><path class="cls-9" d="M362.5,46.63h-3.06l-.6,1.41h-1.17l2.75-6.11h1.12L364.29,48h-1.18Zm-.38-.89L361,43.07l-1.15,2.67Z"/><path class="cls-9" d="M368,42.89h-2v-1h5.18v1h-2V48H368Z"/><path class="cls-9" d="M374.09,41.93h1.14V48h-1.14Z"/><path class="cls-9" d="M380.08,47.73a3.17,3.17,0,0,1-1.17-4.35,3,3,0,0,1,1.17-1.13,3.69,3.69,0,0,1,3.38,0,2.93,2.93,0,0,1,1.17,1.12,3.07,3.07,0,0,1,.43,1.62,3.08,3.08,0,0,1-1.6,2.74,3.77,3.77,0,0,1-3.38,0Zm2.79-.87a2,2,0,0,0,.77-.77,2.32,2.32,0,0,0,0-2.21,2,2,0,0,0-.77-.77,2.38,2.38,0,0,0-2.2,0,2,2,0,0,0-.77.77,2.32,2.32,0,0,0,0,2.21,2,2,0,0,0,.77.77,2.3,2.3,0,0,0,2.2,0Z"/><path class="cls-9" d="M393.74,41.93V48h-.94l-3.37-4.14V48H388.3V41.93h.94l3.37,4.14V41.93Z"/><rect class="cls-7" x="278" y="17" width="132" height="41"/><path class="cls-9" d="M449.94,29.86a1.54,1.54,0,0,1,.3,1,1.42,1.42,0,0,1-.61,1.22,3.09,3.09,0,0,1-1.79.44h-3V26.37h2.87a2.84,2.84,0,0,1,1.67.42,1.38,1.38,0,0,1,.58,1.17,1.52,1.52,0,0,1-.21.8,1.44,1.44,0,0,1-.57.55A1.63,1.63,0,0,1,449.94,29.86Zm-4-2.6V29h1.61a1.57,1.57,0,0,0,.91-.22.77.77,0,0,0,0-1.25,1.57,1.57,0,0,0-.91-.22Zm3.15,3.45c0-.59-.44-.88-1.32-.88h-1.83v1.76h1.83C448.65,31.59,449.09,31.3,449.09,30.71Z"/><path class="cls-9" d="M454.14,31.86a2.76,2.76,0,0,1-.71-2V26.37h1.14v3.41c0,1.2.52,1.8,1.55,1.8s1.55-.6,1.55-1.8V26.37h1.12v3.45a2.76,2.76,0,0,1-.71,2,2.59,2.59,0,0,1-2,.71A2.64,2.64,0,0,1,454.14,31.86Z"/><path class="cls-9" d="M462.94,32.37a2.74,2.74,0,0,1-1-.53l.39-.88a3,3,0,0,0,.92.48,3.22,3.22,0,0,0,1.1.19,1.82,1.82,0,0,0,1-.22.65.65,0,0,0,.34-.58.56.56,0,0,0-.19-.43,1.25,1.25,0,0,0-.47-.26c-.2-.07-.46-.14-.79-.22a9.6,9.6,0,0,1-1.13-.33,1.85,1.85,0,0,1-.74-.52,1.4,1.4,0,0,1-.31-1,1.63,1.63,0,0,1,.27-.92,1.85,1.85,0,0,1,.83-.66,3.44,3.44,0,0,1,1.36-.25,4.54,4.54,0,0,1,1.1.14,3.22,3.22,0,0,1,.94.41l-.36.88a3.43,3.43,0,0,0-.84-.36,3.17,3.17,0,0,0-.85-.12,1.7,1.7,0,0,0-1,.23.69.69,0,0,0-.33.6.57.57,0,0,0,.19.43,1.57,1.57,0,0,0,.48.26l.78.22a8,8,0,0,1,1.12.32,2.07,2.07,0,0,1,.75.52,1.38,1.38,0,0,1,.31,1,1.55,1.55,0,0,1-.28.91,1.8,1.8,0,0,1-.83.66,3.45,3.45,0,0,1-1.36.24A4.5,4.5,0,0,1,462.94,32.37Z"/><path class="cls-9" d="M469.94,26.37h1.14v6.12h-1.14Z"/><path class="cls-9" d="M480.19,26.37v6.12h-.93l-3.37-4.14v4.14h-1.13V26.37h.94l3.37,4.14V26.37Z"/><path class="cls-9" d="M488.46,31.53v1h-4.59V26.37h4.46v.95H485v1.59H488v.94H485v1.68Z"/><path class="cls-9" d="M492.29,32.37a2.87,2.87,0,0,1-1.05-.53l.39-.88a2.91,2.91,0,0,0,.93.48,3.21,3.21,0,0,0,1.09.19,1.84,1.84,0,0,0,1-.22.67.67,0,0,0,.34-.58.59.59,0,0,0-.19-.43,1.38,1.38,0,0,0-.48-.26,7.6,7.6,0,0,0-.78-.22,9.28,9.28,0,0,1-1.14-.33,2,2,0,0,1-.74-.52,1.46,1.46,0,0,1-.31-1,1.56,1.56,0,0,1,.28-.92,1.8,1.8,0,0,1,.83-.66,3.39,3.39,0,0,1,1.35-.25,4.63,4.63,0,0,1,1.11.14,3,3,0,0,1,.93.41l-.36.88a3.43,3.43,0,0,0-.84-.36,3.15,3.15,0,0,0-.84-.12,1.68,1.68,0,0,0-1,.23.69.69,0,0,0-.33.6.54.54,0,0,0,.19.43,1.4,1.4,0,0,0,.47.26L494,29a8.37,8.37,0,0,1,1.12.32,2,2,0,0,1,.74.52,1.38,1.38,0,0,1,.31,1,1.62,1.62,0,0,1-.27.91,1.78,1.78,0,0,1-.84.66,3.41,3.41,0,0,1-1.36.24A4.39,4.39,0,0,1,492.29,32.37Z"/><path class="cls-9" d="M499.81,32.37a2.82,2.82,0,0,1-1-.53l.39-.88a3,3,0,0,0,.92.48,3.27,3.27,0,0,0,1.1.19,1.89,1.89,0,0,0,1-.22.66.66,0,0,0,.33-.58.58.58,0,0,0-.18-.43,1.38,1.38,0,0,0-.48-.26,7.2,7.2,0,0,0-.79-.22,9.6,9.6,0,0,1-1.13-.33,1.92,1.92,0,0,1-.74-.52,1.4,1.4,0,0,1-.31-1,1.56,1.56,0,0,1,.28-.92,1.8,1.8,0,0,1,.83-.66,3.39,3.39,0,0,1,1.35-.25,4.48,4.48,0,0,1,1.1.14,3.11,3.11,0,0,1,.94.41l-.36.88a3.43,3.43,0,0,0-.84-.36,3.17,3.17,0,0,0-.85-.12,1.72,1.72,0,0,0-1,.23.71.71,0,0,0-.32.6.57.57,0,0,0,.18.43,1.57,1.57,0,0,0,.48.26l.79.22a8.18,8.18,0,0,1,1.11.32,2,2,0,0,1,.75.52,1.38,1.38,0,0,1,.31,1,1.62,1.62,0,0,1-.27.91,1.83,1.83,0,0,1-.84.66,3.41,3.41,0,0,1-1.36.24A4.5,4.5,0,0,1,499.81,32.37Z"/><path class="cls-9" d="M456.55,41.93h1.14v5.15h3.19v1h-4.33Z"/><path class="cls-9" d="M464.88,47.73a3,3,0,0,1-1.18-1.13,3.23,3.23,0,0,1,0-3.22,2.92,2.92,0,0,1,1.18-1.13,3.48,3.48,0,0,1,1.68-.41,3.52,3.52,0,0,1,1.69.41,2.93,2.93,0,0,1,1.17,1.12,3.07,3.07,0,0,1,.43,1.62,3.08,3.08,0,0,1-1.6,2.74,3.51,3.51,0,0,1-1.69.4A3.48,3.48,0,0,1,464.88,47.73Zm2.78-.87a2,2,0,0,0,.77-.77,2.32,2.32,0,0,0,0-2.21,2,2,0,0,0-.77-.77,2.38,2.38,0,0,0-2.2,0,2,2,0,0,0-.77.77,2.32,2.32,0,0,0,0,2.21,2,2,0,0,0,.77.77,2.3,2.3,0,0,0,2.2,0Z"/><path class="cls-9" d="M477.27,44.92h1.07v2.43a3.3,3.3,0,0,1-1.1.58,4.34,4.34,0,0,1-1.29.2,3.51,3.51,0,0,1-1.69-.4,3.13,3.13,0,0,1-1.18-1.13,3.09,3.09,0,0,1-.42-1.61,3.16,3.16,0,0,1,.42-1.62,3,3,0,0,1,1.19-1.12,3.53,3.53,0,0,1,1.7-.41,3.66,3.66,0,0,1,1.39.26,2.75,2.75,0,0,1,1.06.74l-.72.7a2.26,2.26,0,0,0-1.68-.7,2.41,2.41,0,0,0-1.15.27,2,2,0,0,0-.79.76A2.19,2.19,0,0,0,473.8,45a2.06,2.06,0,0,0,1.07,1.87,2.38,2.38,0,0,0,1.14.28,2.46,2.46,0,0,0,1.26-.32Z"/><path class="cls-9" d="M481.87,41.93H483V48h-1.14Z"/><path class="cls-9" d="M487.85,47.73a3,3,0,0,1-1.17-1.13,3.1,3.1,0,0,1-.43-1.61,3.16,3.16,0,0,1,.43-1.62,3,3,0,0,1,1.18-1.12,3.44,3.44,0,0,1,1.67-.41,3.38,3.38,0,0,1,1.37.27,2.73,2.73,0,0,1,1.05.76l-.74.68a2.14,2.14,0,0,0-1.63-.71,2.29,2.29,0,0,0-1.12.27,1.93,1.93,0,0,0-.78.77A2.13,2.13,0,0,0,487.4,45a2.18,2.18,0,0,0,.28,1.11,1.9,1.9,0,0,0,.78.76,2.3,2.3,0,0,0,1.12.28,2.13,2.13,0,0,0,1.63-.73l.74.7a3,3,0,0,1-1.05.76,3.65,3.65,0,0,1-1.38.26A3.44,3.44,0,0,1,487.85,47.73Z"/><rect class="cls-7" x="410" y="17" width="130" height="41"/><path class="cls-5" d="M334.88,210.22l-1.43,4.32h-.85l-1.07-3.19-1.08,3.19h-.86l-1.43-4.32H329l1.07,3.29,1.12-3.29h.74l1.09,3.3,1.1-3.3Z"/><path class="cls-5" d="M336.84,210.22h.8v4.32h-.8Z"/><path class="cls-5" d="M342.94,214.54l-.88-1.26h-1.14v1.26h-.8v-4.32h1.77a2.45,2.45,0,0,1,1,.19,1.4,1.4,0,0,1,.64.53,1.61,1.61,0,0,1,0,1.66,1.39,1.39,0,0,1-.68.52l1,1.42Zm-.29-3.42a1.29,1.29,0,0,0-.8-.22h-.93v1.72h.93a1.23,1.23,0,0,0,.8-.22.78.78,0,0,0,.27-.64A.8.8,0,0,0,342.65,211.12Z"/><path class="cls-5" d="M345.93,210.22h.8v4.32h-.8Z"/><path class="cls-5" d="M353,210.22v4.32h-.66L350,211.62v2.92h-.79v-4.32h.66l2.38,2.93v-2.93Z"/><path class="cls-5" d="M358.46,212.33h.76v1.72a2.43,2.43,0,0,1-.78.41,2.83,2.83,0,0,1-.91.14,2.46,2.46,0,0,1-1.19-.28,2.09,2.09,0,0,1-.84-.8,2.16,2.16,0,0,1-.3-1.14,2.21,2.21,0,0,1,.3-1.14,2.13,2.13,0,0,1,.84-.79,2.48,2.48,0,0,1,1.2-.29,2.64,2.64,0,0,1,1,.18,2,2,0,0,1,.74.53l-.5.49a1.62,1.62,0,0,0-1.19-.49,1.68,1.68,0,0,0-.82.19,1.34,1.34,0,0,0-.55.53,1.6,1.6,0,0,0-.2.79,1.56,1.56,0,0,0,.2.78,1.43,1.43,0,0,0,.55.54,1.68,1.68,0,0,0,.81.2,1.73,1.73,0,0,0,.89-.22Z"/><path class="cls-5" d="M489.91,250.71v-2.86l-1.42,2.37h-.36l-1.41-2.33v2.82h-.77v-4.32h.66l1.72,2.87,1.68-2.87h.66v4.32Z"/><path class="cls-5" d="M493.6,250.27a2,2,0,0,1-.5-1.44v-2.44h.8v2.41c0,.85.37,1.27,1.1,1.27s1.09-.42,1.09-1.27v-2.41h.79v2.44a2,2,0,0,1-.49,1.44,2.2,2.2,0,0,1-2.79,0Z"/><path class="cls-5" d="M500.11,247.07h-1.43v-.68h3.66v.68h-1.43v3.64h-.8Z"/><path class="cls-5" d="M506.84,249.71h-2.16l-.43,1h-.82l1.94-4.32h.79l1.95,4.32h-.84Zm-.27-.63-.81-1.88-.81,1.88Z"/><path class="cls-5" d="M510.62,247.07h-1.43v-.68h3.67v.68h-1.43v3.64h-.81Z"/><path class="cls-5" d="M518,250v.67h-3.24v-4.32h3.15v.68h-2.35v1.12h2.08v.66h-2.08V250Z"/><rect class="cls-7" x="481" y="243.17" width="43" height="11.66"/><path class="cls-5" d="M437.9,368.16a2,2,0,0,1-.74-.37l.28-.63a2,2,0,0,0,.65.34,2.32,2.32,0,0,0,.77.14,1.28,1.28,0,0,0,.72-.16.45.45,0,0,0,.24-.4.39.39,0,0,0-.13-.31,1,1,0,0,0-.34-.19l-.56-.15a6.45,6.45,0,0,1-.79-.24,1.29,1.29,0,0,1-.53-.36,1,1,0,0,1-.22-.68,1.16,1.16,0,0,1,.2-.65A1.3,1.3,0,0,1,438,364a2.32,2.32,0,0,1,1-.18,3.33,3.33,0,0,1,.78.1,2,2,0,0,1,.66.29l-.25.62a2.24,2.24,0,0,0-.6-.25,2.06,2.06,0,0,0-.59-.09,1.22,1.22,0,0,0-.71.16.51.51,0,0,0-.23.43.38.38,0,0,0,.13.3.85.85,0,0,0,.34.18c.13,0,.32.1.55.16a5.18,5.18,0,0,1,.79.23,1.39,1.39,0,0,1,.53.36,1,1,0,0,1,.22.67,1.14,1.14,0,0,1-.2.65,1.24,1.24,0,0,1-.58.46,2.37,2.37,0,0,1-1,.17A3.1,3.1,0,0,1,437.9,368.16Z"/><path class="cls-5" d="M443.53,364.6H442.1v-.68h3.66v.68h-1.43v3.64h-.8Z"/><path class="cls-5" d="M450.25,367.24H448.1l-.43,1h-.83l2-4.32h.79l1.95,4.32h-.84Zm-.26-.63-.81-1.88-.81,1.88Z"/><path class="cls-5" d="M454,364.6h-1.43v-.68h3.66v.68h-1.43v3.64H454Z"/><path class="cls-5" d="M461.42,367.57v.67h-3.23v-4.32h3.15v.68H459v1.12h2.08v.66H459v1.19Z"/><path class="cls-5" d="M567.37,213.54h-2.16l-.43,1H564l1.94-4.32h.79l1.95,4.32h-.84Zm-.27-.63-.81-1.88-.81,1.88Z"/><path class="cls-5" d="M573.25,210.41a1.4,1.4,0,0,1,.64.53,1.46,1.46,0,0,1,.22.82,1.48,1.48,0,0,1-.22.82,1.4,1.4,0,0,1-.64.53,2.48,2.48,0,0,1-1,.19h-1v1.24h-.81v-4.32h1.78A2.48,2.48,0,0,1,573.25,210.41Zm-.22,2a.78.78,0,0,0,.27-.64.8.8,0,0,0-.27-.64,1.29,1.29,0,0,0-.8-.22h-.93v1.72h.93A1.29,1.29,0,0,0,573,212.4Z"/><path class="cls-5" d="M576.22,210.22h.8v4.32h-.8Z"/><path class="cls-5" d="M585.3,213.54h-2.16l-.42,1h-.83l1.94-4.32h.79l2,4.32h-.84Zm-.26-.63-.82-1.88-.8,1.88Z"/><path class="cls-5" d="M588.43,210.22h1.89a2.64,2.64,0,0,1,1.22.27,2,2,0,0,1,.84.76,2.24,2.24,0,0,1,.29,1.13,2.18,2.18,0,0,1-.29,1.13,2,2,0,0,1-.84.76,2.64,2.64,0,0,1-1.22.27h-1.89Zm1.85,3.64a1.86,1.86,0,0,0,.84-.18,1.26,1.26,0,0,0,.55-.52,1.51,1.51,0,0,0,.2-.78,1.56,1.56,0,0,0-.2-.78,1.38,1.38,0,0,0-.55-.52,1.86,1.86,0,0,0-.84-.18h-1v3Z"/><path class="cls-5" d="M597.57,213.54h-2.16l-.42,1h-.83l1.94-4.32h.79l2,4.32H598Zm-.27-.63-.81-1.88-.81,1.88Z"/><path class="cls-5" d="M603.45,210.41a1.4,1.4,0,0,1,.64.53,1.46,1.46,0,0,1,.22.82,1.48,1.48,0,0,1-.22.82,1.4,1.4,0,0,1-.64.53,2.45,2.45,0,0,1-1,.19h-1v1.24h-.8v-4.32h1.77A2.45,2.45,0,0,1,603.45,210.41Zm-.22,2a.78.78,0,0,0,.27-.64.8.8,0,0,0-.27-.64,1.26,1.26,0,0,0-.79-.22h-.94v1.72h.94A1.26,1.26,0,0,0,603.23,212.4Z"/><path class="cls-5" d="M607.17,210.9h-1.43v-.68h3.66v.68H608v3.64h-.8Z"/><path class="cls-5" d="M614.55,213.87v.67h-3.23v-4.32h3.15v.68h-2.35V212h2.08v.66h-2.08v1.19Z"/><path class="cls-5" d="M619.58,214.54l-.88-1.26h-1.14v1.26h-.8v-4.32h1.77a2.45,2.45,0,0,1,1,.19,1.4,1.4,0,0,1,.64.53,1.61,1.61,0,0,1,0,1.66,1.39,1.39,0,0,1-.68.52l1,1.42Zm-.29-3.42a1.26,1.26,0,0,0-.79-.22h-.94v1.72h.94a1.2,1.2,0,0,0,.79-.22.78.78,0,0,0,.27-.64A.8.8,0,0,0,619.29,211.12Z"/><path class="cls-5" d="M460.93,213.54h-2.16l-.43,1h-.82l1.94-4.32h.79l1.95,4.32h-.84Zm-.27-.63-.81-1.88-.81,1.88Z"/><path class="cls-5" d="M464.81,214.32a2.13,2.13,0,0,1-.83-.8,2.16,2.16,0,0,1-.3-1.14,2.21,2.21,0,0,1,.31-1.14,2.11,2.11,0,0,1,.83-.79,2.43,2.43,0,0,1,1.18-.29,2.32,2.32,0,0,1,1,.19,2,2,0,0,1,.75.53l-.52.49a1.54,1.54,0,0,0-1.16-.5,1.59,1.59,0,0,0-.79.19,1.36,1.36,0,0,0-.55.54,1.64,1.64,0,0,0,0,1.57,1.36,1.36,0,0,0,.55.54,1.59,1.59,0,0,0,.79.19,1.51,1.51,0,0,0,1.16-.51l.52.49a2,2,0,0,1-.75.54,2.54,2.54,0,0,1-1,.18A2.42,2.42,0,0,1,464.81,214.32Z"/><path class="cls-5" d="M470.61,210.9h-1.43v-.68h3.66v.68h-1.43v3.64h-.8Z"/><path class="cls-5" d="M474.75,210.22h.81v4.32h-.81Z"/><path class="cls-5" d="M478.86,214.32a2.09,2.09,0,0,1-.84-.8,2.21,2.21,0,0,1-.3-1.14,2.15,2.15,0,0,1,.3-1.13,2.09,2.09,0,0,1,.84-.8,2.47,2.47,0,0,1,1.19-.29,2.49,2.49,0,0,1,1.19.29,2.18,2.18,0,0,1,.83.79,2.21,2.21,0,0,1,.3,1.14,2.16,2.16,0,0,1-.3,1.14,2.13,2.13,0,0,1-.83.8,2.49,2.49,0,0,1-1.19.28A2.46,2.46,0,0,1,478.86,214.32Zm2-.61a1.45,1.45,0,0,0,.55-.55,1.55,1.55,0,0,0,.19-.78,1.61,1.61,0,0,0-.19-.78,1.5,1.5,0,0,0-.55-.54,1.68,1.68,0,0,0-1.55,0,1.4,1.4,0,0,0-.54.54,1.51,1.51,0,0,0-.2.78,1.46,1.46,0,0,0,.2.78,1.36,1.36,0,0,0,.54.55,1.68,1.68,0,0,0,1.55,0Z"/><path class="cls-5" d="M488.37,210.22v4.32h-.66l-2.38-2.92v2.92h-.8v-4.32h.66l2.38,2.93v-2.93Z"/><path class="cls-5" d="M491.21,214.46a2,2,0,0,1-.74-.37l.28-.63a1.9,1.9,0,0,0,.65.34,2.28,2.28,0,0,0,.77.14,1.28,1.28,0,0,0,.72-.16.46.46,0,0,0,.24-.4.4.4,0,0,0-.14-.31,1,1,0,0,0-.33-.19l-.56-.15a6.68,6.68,0,0,1-.8-.24,1.32,1.32,0,0,1-.52-.36,1,1,0,0,1-.22-.68,1.16,1.16,0,0,1,.2-.65,1.24,1.24,0,0,1,.58-.46,2.28,2.28,0,0,1,1-.18,3.47,3.47,0,0,1,.78.1,2.2,2.2,0,0,1,.66.29l-.26.62a2.18,2.18,0,0,0-.59-.25,2.08,2.08,0,0,0-.6-.09,1.21,1.21,0,0,0-.7.16.49.49,0,0,0-.23.43.38.38,0,0,0,.13.3.85.85,0,0,0,.34.18c.13,0,.32.1.55.16a5.55,5.55,0,0,1,.79.23,1.39,1.39,0,0,1,.53.36,1,1,0,0,1,.22.67,1.14,1.14,0,0,1-.2.65,1.27,1.27,0,0,1-.59.46,2.29,2.29,0,0,1-1,.17A3.1,3.1,0,0,1,491.21,214.46Z"/><path class="cls-5" d="M712.41,103.54h-2.15l-.43,1H709l2-4.31h.79l2,4.31h-.84Zm-.26-.63-.82-1.88-.8,1.88Z"/><path class="cls-5" d="M718.29,100.41a1.35,1.35,0,0,1,.64.53,1.46,1.46,0,0,1,.23.82,1.49,1.49,0,0,1-.23.82,1.35,1.35,0,0,1-.64.53,2.4,2.4,0,0,1-1,.19h-1v1.24h-.8v-4.31h1.78A2.4,2.4,0,0,1,718.29,100.41Zm-.21,2a.78.78,0,0,0,.27-.64.76.76,0,0,0-.27-.63,1.25,1.25,0,0,0-.8-.23h-.94v1.72h.94A1.31,1.31,0,0,0,718.08,102.4Z"/><path class="cls-5" d="M721.26,100.23h.81v4.31h-.81Z"/><path class="cls-5" d="M331.69,337.22h1.88a2.71,2.71,0,0,1,1.23.27,1.91,1.91,0,0,1,.83.76,2.15,2.15,0,0,1,.3,1.13,2.1,2.1,0,0,1-.3,1.13,1.91,1.91,0,0,1-.83.76,2.71,2.71,0,0,1-1.23.27h-1.88Zm1.85,3.64a1.84,1.84,0,0,0,.83-.18,1.28,1.28,0,0,0,.56-.52,1.5,1.5,0,0,0,.19-.78,1.55,1.55,0,0,0-.19-.78,1.41,1.41,0,0,0-.56-.52,1.84,1.84,0,0,0-.83-.18h-1.05v3Z"/><path class="cls-5" d="M340.83,340.54h-2.16l-.43,1h-.83l1.95-4.32h.79l2,4.32h-.84Zm-.27-.63-.81-1.88-.81,1.88Z"/><path class="cls-5" d="M344.61,337.9h-1.43v-.68h3.66v.68h-1.43v3.64h-.8Z"/><path class="cls-5" d="M351.34,340.54h-2.16l-.42,1h-.83l1.94-4.32h.79l1.95,4.32h-.84Zm-.26-.63-.82-1.88-.81,1.88Z"/><path class="cls-10" d="M211.42,227.11l.21.39,3.37,6-.44.25-2.9-5.17,0,5-.09,26.54a79.29,79.29,0,0,0,77.69,79.57l1.31,0H309v.5H290.55a79.8,79.8,0,0,1-79.5-78.78v-1.32l.1-26.53,0-5-2.93,5.15-.44-.25,3.4-6Z"/><path class="cls-10" d="M475.44,228v32.15a79.72,79.72,0,0,1-1.58,16.16l-.21,1-1.24,4.88-1.55-5.72-.49.13,1.81,6.65.11.43.31-.32,4.76-5L477,278l-4.1,4.28,1.24-4.88a79.82,79.82,0,0,0,1.8-16.23V228Z"/><path class="cls-10" d="M469.76,290a79.33,79.33,0,0,1-72.34,49.73H377.59l5.16-2.92-.25-.44-6,3.39-.39.22.39.22,6,3.39.25-.44-5.16-2.92h18.86a79.82,79.82,0,0,0,73.41-49.15l.36-.9Z"/><polygon class="cls-10" points="169 154.9 175 158.28 175.39 158.5 175 158.72 169 162.1 168.75 161.67 173.91 158.75 107.42 158.75 107.42 158.25 173.91 158.25 168.75 155.33 169 154.9"/><polygon class="cls-10" points="80.07 154.9 86.07 158.28 86.46 158.5 86.07 158.72 80.07 162.1 79.82 161.67 84.98 158.75 55.43 158.75 55.43 158.25 84.98 158.25 79.82 155.33 80.07 154.9"/><polygon class="cls-10" points="518.12 154.69 518.36 155.13 513.18 158 518.21 158.04 538.54 158.2 543.57 158.24 538.43 155.29 538.68 154.85 544.66 158.28 545.05 158.51 544.65 158.72 538.63 162.06 538.38 161.62 543.57 158.75 538.54 158.71 518.21 158.55 513.17 158.51 518.31 161.46 518.06 161.9 512.09 158.47 511.7 158.24 512.09 158.03 518.12 154.69"/><polygon class="cls-10" points="651.53 154.69 651.77 155.13 646.59 158 651.62 158.04 671.95 158.2 676.98 158.24 671.84 155.29 672.1 154.85 678.07 158.28 678.46 158.51 678.07 158.72 672.04 162.06 671.79 161.62 676.98 158.75 671.95 158.71 651.62 158.55 646.58 158.51 651.72 161.46 651.47 161.9 645.5 158.47 645.11 158.24 645.5 158.03 651.53 154.69"/><circle class="cls-11" cx="99.5" cy="158.5" r="7.5"/><circle class="cls-12" cx="449.5" cy="314.5" r="34.5"/><circle class="cls-7" cx="449.5" cy="314.5" r="34.5"/><circle class="cls-4" cx="449.5" cy="314.5" r="34.5"/><circle class="cls-7" cx="449.5" cy="314.5" r="34.5"/><ellipse class="cls-11" cx="467.71" cy="147.68" rx="3.78" ry="3.68"/><ellipse class="cls-11" cx="467.71" cy="167.32" rx="3.78" ry="3.68"/><ellipse class="cls-11" cx="482.82" cy="147.68" rx="3.78" ry="3.68"/><ellipse class="cls-11" cx="482.82" cy="167.32" rx="3.78" ry="3.68"/><path class="cls-13" d="M475.26,161.18a3.68,3.68,0,1,0-3.77-3.68A3.73,3.73,0,0,0,475.26,161.18Z"/><ellipse class="cls-11" cx="460.78" cy="157.5" rx="3.78" ry="3.68"/><ellipse class="cls-11" cx="490.22" cy="157.5" rx="3.78" ry="3.68"/><path class="cls-14" d="M99.5,76.5a82,82,0,1,0,82,82A82,82,0,0,0,99.5,76.5Zm0-.5A82.5,82.5,0,1,1,17,158.5,82.5,82.5,0,0,1,99.5,76Z"/><circle class="cls-15" cx="475.5" cy="157.5" r="34.5"/><circle class="cls-4" cx="716.5" cy="157.5" r="34.5"/><path class="cls-9" d="M546.75,159h.5a45.75,45.75,0,0,0,91.08,6.25l.08-.68.3-5-3.21,5-.43-.28,3.74-5.78.24-.38.2.41,3,6.19-.45.22-2.6-5.33-.3,5A46.26,46.26,0,0,1,546.75,159Z"/><path class="cls-9" d="M639.25,155h-.5a45.75,45.75,0,0,0-91.08-6.25l-.08.68-.3,5,3.21-5,.43.28-3.74,5.78-.24.38-.2-.41-3-6.19.45-.22,2.6,5.33.3-5A46.26,46.26,0,0,1,639.25,155Z"/><circle class="cls-16" cx="99" cy="159" r="28"/><rect class="cls-7" x="65" y="125" width="68" height="68"/><path class="cls-11" d="M99.5,101A58.51,58.51,0,0,1,124,212.64v-.56a58,58,0,1,0-48,.46v.55A58.51,58.51,0,0,1,99.5,101Z"/><line class="cls-17" x1="277.5" x2="277.1" y2="52.93"/><line class="cls-17" x1="410.5" x2="410.1" y2="52.93"/><line class="cls-17" x1="542.5" y1="0.46" x2="542.5" y2="53.54"/><line class="cls-17" x1="145.5" x2="145.5" y2="53.54"/><line class="cls-17" x1="542.5" y1="16.5" x2="145.5" y2="16.5"/><line class="cls-17" x1="0.5" y1="0.5" x2="1.1" y2="61.72"/><path class="cls-5" d="M89.23,208.1a2,2,0,0,1-.5-1.44v-2.44h.8v2.41c0,.85.37,1.27,1.1,1.27s1.09-.42,1.09-1.27v-2.41h.79v2.44A2,2,0,0,1,92,208.1a1.88,1.88,0,0,1-1.4.5A1.85,1.85,0,0,1,89.23,208.1Z"/><path class="cls-5" d="M95.31,208.46a2,2,0,0,1-.73-.37l.27-.63a2.06,2.06,0,0,0,.66.34,2.28,2.28,0,0,0,.77.14,1.28,1.28,0,0,0,.72-.16.46.46,0,0,0,.24-.4.4.4,0,0,0-.14-.31,1.06,1.06,0,0,0-.33-.19l-.56-.15a6.68,6.68,0,0,1-.8-.24,1.32,1.32,0,0,1-.52-.36,1,1,0,0,1-.22-.68,1.15,1.15,0,0,1,.19-.65,1.33,1.33,0,0,1,.59-.46,2.28,2.28,0,0,1,1-.18,3.47,3.47,0,0,1,.78.1,2.2,2.2,0,0,1,.66.29l-.26.62a2.18,2.18,0,0,0-.59-.25,2.08,2.08,0,0,0-.6-.09,1.21,1.21,0,0,0-.7.16.49.49,0,0,0-.23.43.38.38,0,0,0,.13.3.88.88,0,0,0,.33.18l.56.16a5.55,5.55,0,0,1,.79.23,1.47,1.47,0,0,1,.53.36,1,1,0,0,1,.22.67,1.14,1.14,0,0,1-.2.65,1.33,1.33,0,0,1-.59.46,2.29,2.29,0,0,1-1,.17A3.16,3.16,0,0,1,95.31,208.46Z"/><path class="cls-5" d="M103.37,207.87v.67h-3.24v-4.32h3.15v.68h-2.35V206H103v.66h-2.09v1.19Z"/><path class="cls-5" d="M108.39,208.54l-.88-1.26h-1.14v1.26h-.8v-4.32h1.77a2.45,2.45,0,0,1,1,.19,1.4,1.4,0,0,1,.64.53,1.61,1.61,0,0,1,0,1.66,1.34,1.34,0,0,1-.68.52l1,1.42Zm-.29-3.42a1.26,1.26,0,0,0-.79-.22h-.94v1.72h.94a1.2,1.2,0,0,0,.79-.22.78.78,0,0,0,.27-.64A.8.8,0,0,0,108.1,205.12Z"/><path class="cls-5" d="M86.87,216.84h.8v4.32h-.8Z"/><path class="cls-5" d="M94,216.84v4.32h-.66l-2.38-2.92v2.92h-.8v-4.32h.66l2.38,2.93v-2.93Z"/><path class="cls-5" d="M99.2,217a1.4,1.4,0,0,1,.64.53,1.46,1.46,0,0,1,.22.82,1.5,1.5,0,0,1-.22.82,1.4,1.4,0,0,1-.64.53,2.45,2.45,0,0,1-1,.18h-1v1.25h-.8v-4.32h1.77A2.29,2.29,0,0,1,99.2,217ZM99,219a.76.76,0,0,0,.27-.63.78.78,0,0,0-.27-.64,1.22,1.22,0,0,0-.79-.22h-.94v1.72h.94A1.22,1.22,0,0,0,99,219Z"/><path class="cls-5" d="M102.63,220.72a2,2,0,0,1-.5-1.44v-2.44h.8v2.41c0,.84.37,1.27,1.1,1.27s1.09-.43,1.09-1.27v-2.41h.79v2.44a2,2,0,0,1-.49,1.44,2.2,2.2,0,0,1-2.79,0Z"/><path class="cls-5" d="M109.14,217.52h-1.43v-.68h3.66v.68h-1.43v3.64h-.8Z"/><rect class="cls-7" x="85" y="192" width="29" height="41"/><circle class="cls-18" cx="35.5" cy="155.5" r="21.5"/><circle class="cls-4" cx="35.5" cy="156.5" r="34.5"/><circle class="cls-7" cx="35.5" cy="156.5" r="34.5"/><circle class="cls-11" cx="593.5" cy="155.5" r="9.5"/><path class="cls-19" d="M594,146a9.51,9.51,0,0,1,0,19Z"/><line class="cls-20" x1="593.75" y1="123.5" x2="593.75" y2="192.5"/><ellipse class="cls-21" cx="236.56" cy="158.04" rx="3.32" ry="3.67"/><line class="cls-21" x1="240.71" y1="162.63" x2="238.91" y2="160.63"/><path class="cls-22" d="M715,140.69l-9.9,4.36a3.77,3.77,0,0,0-2.15,2.62l-2.56,11.42a3.74,3.74,0,0,0,.75,3.19l6,7.33A3.76,3.76,0,0,0,710,171H722.4a3.75,3.75,0,0,0,2.89-1.36l6.1-7.33a3.74,3.74,0,0,0,.77-3.26l-2.68-11.45a3.71,3.71,0,0,0-2.07-2.55l-9.3-4.33A3.73,3.73,0,0,0,715,140.69Z"/><path class="cls-23" d="M27.38,163.69l1.53-14.61h2.55v1.44a.65.65,0,0,0,1.3,0v-1.44h5.48v1.44a.65.65,0,0,0,1.3,0v-1.44h2.55l1.53,14.61Zm5.38-16.64a2.74,2.74,0,0,1,5.48,0v.72H32.76ZM45,164.28l-1.67-15.93a.66.66,0,0,0-.65-.58H39.54v-.72a4,4,0,1,0-8.08,0v.72H28.32a.66.66,0,0,0-.65.58L26,164.28a.62.62,0,0,0,.17.5.64.64,0,0,0,.48.22h17.7a.64.64,0,0,0,.48-.22A.62.62,0,0,0,45,164.28Z"/><path class="cls-24" d="M441.25,324.49a7.47,7.47,0,0,0,1.86,1.25,17.65,17.65,0,0,0,13.78,0,7.47,7.47,0,0,0,1.86-1.25v3.3c0,.88-.8,1.85-2.38,2.63a16.49,16.49,0,0,1-12.74,0c-1.58-.78-2.38-1.75-2.38-2.63Zm0-5.86a7.47,7.47,0,0,0,1.86,1.25,17.65,17.65,0,0,0,13.78,0,7.47,7.47,0,0,0,1.86-1.25v3.3c0,.88-.8,1.85-2.38,2.63a16.49,16.49,0,0,1-12.74,0c-1.58-.78-2.38-1.75-2.38-2.63Zm0-5.85a7.16,7.16,0,0,0,1.86,1.23,17.54,17.54,0,0,0,13.78,0,7.16,7.16,0,0,0,1.86-1.23v3.29c0,.88-.8,1.85-2.38,2.62a16.37,16.37,0,0,1-12.74,0c-1.58-.77-2.38-1.74-2.38-2.62ZM450,306.3a15.11,15.11,0,0,1,6.37,1.27c1.58.78,2.38,1.76,2.38,2.64s-.8,1.85-2.38,2.62a16.37,16.37,0,0,1-12.74,0c-1.58-.77-2.38-1.74-2.38-2.62s.8-1.86,2.38-2.64A15.11,15.11,0,0,1,450,306.3Zm10,3.91c0-1.64-1.3-2.94-3.11-3.82a17.77,17.77,0,0,0-13.78,0c-1.81.88-3.11,2.18-3.11,3.82,0,5.76,0,11.76,0,17.58,0,1.64,1.3,2.93,3.11,3.81a17.65,17.65,0,0,0,13.78,0c1.81-.88,3.11-2.17,3.11-3.81"/><line class="cls-25" x1="247.72" y1="158.3" x2="295.36" y2="158.3"/><path class="cls-13" d="M447.05,296.91a1.48,1.48,0,1,0-1.43-1.48A1.46,1.46,0,0,0,447.05,296.91Z"/><ellipse class="cls-11" cx="452.77" cy="295.43" rx="1.43" ry="1.48"/><path class="cls-13" d="M449.91,301a1.48,1.48,0,1,0-1.43-1.48A1.45,1.45,0,0,0,449.91,301Z"/><path class="cls-13" d="M444.43,293a1.48,1.48,0,1,0-1.43-1.48A1.45,1.45,0,0,0,444.43,293Z"/><path class="cls-13" d="M455.57,293a1.48,1.48,0,1,0-1.43-1.48A1.45,1.45,0,0,0,455.57,293Z"/><circle class="cls-26" cx="277.5" cy="158.5" r="3.5"/></svg>