<svg width="766" height="466" viewBox="0 0 766 466" fill="none" xmlns="http://www.w3.org/2000/svg">
<g clip-path="url(#clip0_0_60720)">
<rect width="766" height="466" fill="white"/>
<g opacity="0.626522">
<rect x="286.13" y="212.22" width="78.6456" height="92.0525" rx="5" fill="#E2E6E7"/>
<rect x="293.721" y="218.548" width="63.4642" height="49.798" rx="4.26585" fill="white"/>
<rect x="304.028" y="274.248" width="40.6595" height="6.2763" rx="3.13815" fill="#BBC3C6"/>
<rect x="292.66" y="286.166" width="63.395" height="11.7783" rx="5.88915" fill="#BBC3C6"/>
</g>
<g opacity="0.626522">
<rect x="198.235" y="212.22" width="78.6456" height="92.0525" rx="5" fill="#E2E6E7"/>
<rect x="205.826" y="218.548" width="63.4642" height="49.798" rx="4.26585" fill="white"/>
<rect x="216.133" y="274.248" width="40.6595" height="6.2763" rx="3.13815" fill="#BBC3C6"/>
<rect x="204.765" y="286.166" width="63.395" height="11.7783" rx="5.88915" fill="#BBC3C6"/>
</g>
<g opacity="0.626522">
<rect x="374.025" y="212.22" width="78.6456" height="92.0525" rx="5" fill="#E2E6E7"/>
<rect x="381.616" y="218.548" width="63.4642" height="49.798" rx="4.26585" fill="white"/>
<rect x="391.923" y="274.248" width="40.6595" height="6.2763" rx="3.13815" fill="#BBC3C6"/>
<rect x="380.555" y="286.166" width="63.395" height="11.7783" rx="5.88915" fill="#BBC3C6"/>
</g>
<g opacity="0.626522">
<rect x="461.921" y="212.22" width="78.6456" height="92.0525" rx="5" fill="#E2E6E7"/>
<rect x="469.511" y="218.548" width="63.4642" height="49.798" rx="4.26585" fill="white"/>
<rect x="479.818" y="274.248" width="40.6595" height="6.2763" rx="3.13815" fill="#BBC3C6"/>
<rect x="468.45" y="286.166" width="63.395" height="11.7783" rx="5.88915" fill="#BBC3C6"/>
</g>
<g opacity="0.626522">
<rect x="549.816" y="212.22" width="78.6456" height="92.0525" rx="5" fill="#E2E6E7"/>
<rect x="557.406" y="218.548" width="63.4642" height="49.798" rx="4.26585" fill="white"/>
<rect x="567.713" y="274.248" width="40.6595" height="6.2763" rx="3.13815" fill="#BBC3C6"/>
<rect x="556.345" y="286.166" width="63.395" height="11.7783" rx="5.88915" fill="#BBC3C6"/>
</g>
<g opacity="0.626522">
<rect x="637.711" y="212.22" width="78.6456" height="92.0525" rx="5" fill="#E2E6E7"/>
<rect x="645.301" y="218.548" width="63.4642" height="49.798" rx="4.26585" fill="white"/>
<rect x="655.608" y="274.248" width="40.6595" height="6.2763" rx="3.13815" fill="#BBC3C6"/>
<rect x="644.24" y="286.166" width="63.395" height="11.7783" rx="5.88915" fill="#BBC3C6"/>
</g>
<g opacity="0.626522">
<rect x="286.13" y="100.468" width="78.6456" height="92.0525" rx="5" fill="#E2E6E7"/>
<rect x="293.721" y="106.796" width="63.4642" height="49.798" rx="4.26585" fill="white"/>
<rect x="304.028" y="162.496" width="40.6595" height="6.2763" rx="3.13815" fill="#BBC3C6"/>
<rect x="292.66" y="174.414" width="63.395" height="11.7783" rx="5.88915" fill="#BBC3C6"/>
</g>
<g opacity="0.626522">
<rect x="198.235" y="100.468" width="78.6456" height="92.0525" rx="5" fill="#E2E6E7"/>
<rect x="205.826" y="106.796" width="63.4642" height="49.798" rx="4.26585" fill="white"/>
<rect x="216.133" y="162.496" width="40.6595" height="6.2763" rx="3.13815" fill="#BBC3C6"/>
<rect x="204.765" y="174.414" width="63.395" height="11.7783" rx="5.88915" fill="#BBC3C6"/>
</g>
<g opacity="0.626522">
<rect x="374.025" y="100.468" width="78.6456" height="92.0525" rx="5" fill="#E2E6E7"/>
<rect x="381.616" y="106.796" width="63.4642" height="49.798" rx="4.26585" fill="white"/>
<rect x="391.923" y="162.496" width="40.6595" height="6.2763" rx="3.13815" fill="#BBC3C6"/>
<rect x="380.555" y="174.414" width="63.395" height="11.7783" rx="5.88915" fill="#BBC3C6"/>
</g>
<g opacity="0.626522">
<rect x="461.921" y="100.468" width="78.6456" height="92.0525" rx="5" fill="#E2E6E7"/>
<rect x="469.511" y="106.796" width="63.4642" height="49.798" rx="4.26585" fill="white"/>
<rect x="479.818" y="162.496" width="40.6595" height="6.2763" rx="3.13815" fill="#BBC3C6"/>
<rect x="468.45" y="174.414" width="63.395" height="11.7783" rx="5.88915" fill="#BBC3C6"/>
</g>
<g opacity="0.626522">
<rect x="549.816" y="100.468" width="78.6456" height="92.0525" rx="5" fill="#E2E6E7"/>
<rect x="557.406" y="106.796" width="63.4642" height="49.798" rx="4.26585" fill="white"/>
<rect x="567.713" y="162.496" width="40.6595" height="6.2763" rx="3.13815" fill="#BBC3C6"/>
<rect x="556.345" y="174.414" width="63.395" height="11.7783" rx="5.88915" fill="#BBC3C6"/>
</g>
<g opacity="0.626522">
<rect x="637.711" y="100.468" width="78.6456" height="92.0525" rx="5" fill="#E2E6E7"/>
<rect x="645.301" y="106.796" width="63.4642" height="49.798" rx="4.26585" fill="white"/>
<rect x="655.608" y="162.496" width="40.6595" height="6.2763" rx="3.13815" fill="#BBC3C6"/>
<rect x="644.24" y="174.414" width="63.395" height="11.7783" rx="5.88915" fill="#BBC3C6"/>
</g>
<g opacity="0.626522">
<rect x="286.13" y="323.972" width="78.6456" height="92.0525" rx="5" fill="#E2E6E7"/>
<rect x="293.721" y="330.3" width="63.4642" height="49.798" rx="4.26585" fill="white"/>
<rect x="304.028" y="386" width="40.6595" height="6.2763" rx="3.13815" fill="#BBC3C6"/>
<rect x="292.66" y="397.918" width="63.395" height="11.7783" rx="5.88915" fill="#BBC3C6"/>
</g>
<g opacity="0.626522">
<rect x="198.235" y="323.972" width="78.6456" height="92.0525" rx="5" fill="#E2E6E7"/>
<rect x="205.826" y="330.3" width="63.4642" height="49.798" rx="4.26585" fill="white"/>
<rect x="216.133" y="386" width="40.6595" height="6.2763" rx="3.13815" fill="#BBC3C6"/>
<rect x="204.765" y="397.918" width="63.395" height="11.7783" rx="5.88915" fill="#BBC3C6"/>
</g>
<g opacity="0.626522">
<rect x="374.025" y="323.972" width="78.6456" height="92.0525" rx="5" fill="#E2E6E7"/>
<rect x="381.616" y="330.3" width="63.4642" height="49.798" rx="4.26585" fill="white"/>
<rect x="391.923" y="386" width="40.6595" height="6.2763" rx="3.13815" fill="#BBC3C6"/>
<rect x="380.555" y="397.918" width="63.395" height="11.7783" rx="5.88915" fill="#BBC3C6"/>
</g>
<g opacity="0.626522">
<rect x="461.921" y="323.972" width="78.6456" height="92.0525" rx="5" fill="#E2E6E7"/>
<rect x="469.511" y="330.3" width="63.4642" height="49.798" rx="4.26585" fill="white"/>
<rect x="479.818" y="386" width="40.6595" height="6.2763" rx="3.13815" fill="#BBC3C6"/>
<rect x="468.45" y="397.918" width="63.395" height="11.7783" rx="5.88915" fill="#BBC3C6"/>
</g>
<g opacity="0.626522">
<rect x="549.816" y="323.972" width="78.6456" height="92.0525" rx="5" fill="#E2E6E7"/>
<rect x="557.406" y="330.3" width="63.4642" height="49.798" rx="4.26585" fill="white"/>
<rect x="567.713" y="386" width="40.6595" height="6.2763" rx="3.13815" fill="#BBC3C6"/>
<rect x="556.345" y="397.918" width="63.395" height="11.7783" rx="5.88915" fill="#BBC3C6"/>
</g>
<g opacity="0.626522">
<rect x="637.711" y="323.972" width="78.6456" height="92.0525" rx="5" fill="#E2E6E7"/>
<rect x="645.301" y="330.3" width="63.4642" height="49.798" rx="4.26585" fill="white"/>
<rect x="655.608" y="386" width="40.6595" height="6.2763" rx="3.13815" fill="#BBC3C6"/>
<rect x="644.24" y="397.918" width="63.395" height="11.7783" rx="5.88915" fill="#BBC3C6"/>
</g>
<path d="M199.841 53.75C199.841 46.9845 205.325 41.5 212.091 41.5H704.107C710.873 41.5 716.357 46.9845 716.357 53.75C716.357 60.5155 710.873 66 704.107 66H212.091C205.325 66 199.841 60.5155 199.841 53.75Z" fill="white"/>
<path fill-rule="evenodd" clip-rule="evenodd" d="M704.107 42.5H212.091C205.877 42.5 200.841 47.5368 200.841 53.75C200.841 59.9632 205.877 65 212.091 65H704.107C710.32 65 715.357 59.9632 715.357 53.75C715.357 47.5368 710.32 42.5 704.107 42.5ZM212.091 41.5C205.325 41.5 199.841 46.9845 199.841 53.75C199.841 60.5155 205.325 66 212.091 66H704.107C710.873 66 716.357 60.5155 716.357 53.75C716.357 46.9845 710.873 41.5 704.107 41.5H212.091Z" fill="#D3D3D3"/>
<path d="M706.741 53.3672C706.741 56.0073 704.601 58.1475 701.961 58.1475C699.321 58.1475 697.181 56.0073 697.181 53.3672C697.181 50.7271 699.321 48.5869 701.961 48.5869C704.601 48.5869 706.741 50.7271 706.741 53.3672Z" fill="white"/>
<path fill-rule="evenodd" clip-rule="evenodd" d="M701.961 57.1475C704.049 57.1475 705.741 55.455 705.741 53.3672C705.741 51.2794 704.049 49.5869 701.961 49.5869C699.873 49.5869 698.181 51.2794 698.181 53.3672C698.181 55.455 699.873 57.1475 701.961 57.1475ZM701.961 58.1475C704.601 58.1475 706.741 56.0073 706.741 53.3672C706.741 50.7271 704.601 48.5869 701.961 48.5869C699.321 48.5869 697.181 50.7271 697.181 53.3672C697.181 56.0073 699.321 58.1475 701.961 58.1475Z" fill="#D3D3D3"/>
<path fill-rule="evenodd" clip-rule="evenodd" d="M705.121 56.0498C705.316 55.8545 705.632 55.8545 705.828 56.0498L708.592 58.8141C708.787 59.0093 708.787 59.3259 708.592 59.5212C708.397 59.7164 708.08 59.7164 707.885 59.5212L705.121 56.7569C704.925 56.5616 704.925 56.245 705.121 56.0498Z" fill="#D3D3D3"/>
<path d="M40 164.5C40 162.843 41.3431 161.5 43 161.5H173C174.657 161.5 176 162.843 176 164.5V174.5C176 176.157 174.657 177.5 173 177.5H43C41.3431 177.5 40 176.157 40 174.5V164.5Z" fill="#BBC3C6"/>
<path d="M59 187.5C59 186.395 59.8954 185.5 61 185.5H146C147.105 185.5 148 186.395 148 187.5V194.5C148 195.605 147.105 196.5 146 196.5H61C59.8954 196.5 59 195.605 59 194.5V187.5Z" fill="#BBC3C6"/>
<path d="M59 206.5C59 205.395 59.8954 204.5 61 204.5H131C132.105 204.5 133 205.395 133 206.5V213.5C133 214.605 132.105 215.5 131 215.5H61C59.8954 215.5 59 214.605 59 213.5V206.5Z" fill="#80C0A1"/>
<path d="M59 225.5C59 224.395 59.8954 223.5 61 223.5H159C160.105 223.5 161 224.395 161 225.5V232.5C161 233.605 160.105 234.5 159 234.5H61C59.8954 234.5 59 233.605 59 232.5V225.5Z" fill="#BBC3C6"/>
<path d="M59 244.5C59 243.395 59.8954 242.5 61 242.5H111C112.105 242.5 113 243.395 113 244.5V251.5C113 252.605 112.105 253.5 111 253.5H61C59.8954 253.5 59 252.605 59 251.5V244.5Z" fill="#BBC3C6"/>
<path d="M78 263.5C78 262.395 78.8954 261.5 80 261.5H144.5C145.605 261.5 146.5 262.395 146.5 263.5V270.5C146.5 271.605 145.605 272.5 144.5 272.5H80C78.8954 272.5 78 271.605 78 270.5V263.5Z" fill="#53B9C9"/>
<path d="M78 282.5C78 281.395 78.8954 280.5 80 280.5H150C151.105 280.5 152 281.395 152 282.5V289.5C152 290.605 151.105 291.5 150 291.5H80C78.8954 291.5 78 290.605 78 289.5V282.5Z" fill="#BBC3C6"/>
<path d="M40 244C40 243.448 40.4477 243 41 243H50C50.5523 243 51 243.448 51 244V253C51 253.552 50.5523 254 50 254H41C40.4477 254 40 253.552 40 253V244Z" fill="white"/>
<path fill-rule="evenodd" clip-rule="evenodd" d="M50 244H41L41 253H50V244ZM41 243C40.4477 243 40 243.448 40 244V253C40 253.552 40.4477 254 41 254H50C50.5523 254 51 253.552 51 253V244C51 243.448 50.5523 243 50 243H41Z" fill="#BBC3C6"/>
<path d="M40 224C40 223.448 40.4477 223 41 223H50C50.5523 223 51 223.448 51 224V233C51 233.552 50.5523 234 50 234H41C40.4477 234 40 233.552 40 233V224Z" fill="white"/>
<path fill-rule="evenodd" clip-rule="evenodd" d="M50 224H41L41 233H50V224ZM41 223C40.4477 223 40 223.448 40 224V233C40 233.552 40.4477 234 41 234H50C50.5523 234 51 233.552 51 233V224C51 223.448 50.5523 223 50 223H41Z" fill="#BBC3C6"/>
<path d="M40 187C40 186.448 40.4477 186 41 186H50C50.5523 186 51 186.448 51 187V196C51 196.552 50.5523 197 50 197H41C40.4477 197 40 196.552 40 196V187Z" fill="white"/>
<path fill-rule="evenodd" clip-rule="evenodd" d="M50 187H41L41 196H50V187ZM41 186C40.4477 186 40 186.448 40 187V196C40 196.552 40.4477 197 41 197H50C50.5523 197 51 196.552 51 196V187C51 186.448 50.5523 186 50 186H41Z" fill="#BBC3C6"/>
<path d="M59 263C59 262.448 59.4477 262 60 262H69C69.5523 262 70 262.448 70 263V272C70 272.552 69.5523 273 69 273H60C59.4477 273 59 272.552 59 272V263Z" fill="#1E3D49"/>
<path fill-rule="evenodd" clip-rule="evenodd" d="M69 263H60L60 272H69V263ZM60 262C59.4477 262 59 262.448 59 263V272C59 272.552 59.4477 273 60 273H69C69.5523 273 70 272.552 70 272V263C70 262.448 69.5523 262 69 262H60Z" fill="#BBC3C6"/>
<path d="M59 282C59 281.448 59.4477 281 60 281H69C69.5523 281 70 281.448 70 282V291C70 291.552 69.5523 292 69 292H60C59.4477 292 59 291.552 59 291V282Z" fill="white"/>
<path fill-rule="evenodd" clip-rule="evenodd" d="M69 282H60L60 291H69V282ZM60 281C59.4477 281 59 281.448 59 282V291C59 291.552 59.4477 292 60 292H69C69.5523 292 70 291.552 70 291V282C70 281.448 69.5523 281 69 281H60Z" fill="#BBC3C6"/>
<path d="M78 302.5C78 301.395 78.8954 300.5 80 300.5H150C151.105 300.5 152 301.395 152 302.5V309.5C152 310.605 151.105 311.5 150 311.5H80C78.8954 311.5 78 310.605 78 309.5V302.5Z" fill="#BBC3C6"/>
<path d="M59 300C59 299.448 59.4477 299 60 299H69C69.5523 299 70 299.448 70 300V309C70 309.552 69.5523 310 69 310H60C59.4477 310 59 309.552 59 309V300Z" fill="white"/>
<path fill-rule="evenodd" clip-rule="evenodd" d="M69 300H60L60 309H69V300ZM60 299C59.4477 299 59 299.448 59 300V309C59 309.552 59.4477 310 60 310H69C69.5523 310 70 309.552 70 309V300C70 299.448 69.5523 299 69 299H60Z" fill="#BBC3C6"/>
<path d="M59 322.5C59 321.395 59.8954 320.5 61 320.5H131C132.105 320.5 133 321.395 133 322.5V329.5C133 330.605 132.105 331.5 131 331.5H61C59.8954 331.5 59 330.605 59 329.5V322.5Z" fill="#BBC3C6"/>
<path d="M40 322C40 321.448 40.4477 321 41 321H50C50.5523 321 51 321.448 51 322V331C51 331.552 50.5523 332 50 332H41C40.4477 332 40 331.552 40 331V322Z" fill="white"/>
<path fill-rule="evenodd" clip-rule="evenodd" d="M50 322H41L41 331H50V322ZM41 321C40.4477 321 40 321.448 40 322V331C40 331.552 40.4477 332 41 332H50C50.5523 332 51 331.552 51 331V322C51 321.448 50.5523 321 50 321H41Z" fill="#BBC3C6"/>
<path d="M40 359C40 357.343 41.3431 356 43 356H173C174.657 356 176 357.343 176 359V369C176 370.657 174.657 372 173 372H43C41.3431 372 40 370.657 40 369V359Z" fill="#0086B2"/>
<g clip-path="url(#clip1_0_60720)">
<path d="M40 109C40 104.582 43.5817 101 48 101H86C90.4183 101 94 104.582 94 109C94 113.418 90.4183 117 86 117H48C43.5817 117 40 113.418 40 109Z" fill="#80C0A1"/>
<path d="M52.1468 111.56L46.7502 106.163L47.5521 105.361L52.9487 110.758L52.1468 111.56ZM47.463 111.61L46.712 110.859L52.2487 105.323L52.9996 106.074L47.463 111.61Z" fill="#1E3D49"/>
</g>
<g clip-path="url(#clip2_0_60720)">
<path d="M99.833 109C99.833 104.582 103.415 101 107.833 101H166.833C171.251 101 174.833 104.582 174.833 109C174.833 113.418 171.251 117 166.833 117H107.833C103.415 117 99.833 113.418 99.833 109Z" fill="#53B9C9"/>
<path d="M111.98 111.56L106.583 106.163L107.385 105.361L112.782 110.758L111.98 111.56ZM107.296 111.61L106.545 110.859L112.082 105.323L112.833 106.074L107.296 111.61Z" fill="#1E3D49"/>
</g>
<g clip-path="url(#clip3_0_60720)">
<path fill-rule="evenodd" clip-rule="evenodd" d="M164.25 125.567H50.75C45.3652 125.567 41 129.933 41 135.317C41 140.702 45.3652 145.067 50.75 145.067H164.25C169.635 145.067 174 140.702 174 135.317C174 129.933 169.635 125.567 164.25 125.567ZM50.75 124.567C44.8129 124.567 40 129.38 40 135.317C40 141.254 44.8129 146.067 50.75 146.067H164.25C170.187 146.067 175 141.254 175 135.317C175 129.38 170.187 124.567 164.25 124.567H50.75Z" fill="#1E3D49"/>
<path d="M89.1827 138.085C88.582 138.085 88.038 137.955 87.5507 137.694C87.069 137.428 86.6893 137.063 86.4117 136.598C86.1397 136.133 86.0037 135.609 86.0037 135.025C86.0037 134.442 86.1425 133.918 86.4202 133.453C86.6978 132.988 87.0775 132.626 87.5592 132.365C88.0465 132.099 88.5905 131.965 89.1912 131.965C89.6785 131.965 90.1233 132.05 90.5257 132.22C90.928 132.39 91.268 132.637 91.5457 132.96L90.8317 133.631C90.401 133.167 89.8712 132.934 89.2422 132.934C88.8342 132.934 88.4687 133.025 88.1457 133.206C87.8227 133.382 87.5705 133.629 87.3892 133.946C87.2078 134.263 87.1172 134.623 87.1172 135.025C87.1172 135.428 87.2078 135.788 87.3892 136.105C87.5705 136.422 87.8227 136.672 88.1457 136.853C88.4687 137.029 88.8342 137.116 89.2422 137.116C89.8712 137.116 90.401 136.881 90.8317 136.411L91.5457 137.091C91.268 137.414 90.9252 137.66 90.5172 137.83C90.1148 138 89.67 138.085 89.1827 138.085Z" fill="#1E3D49"/>
<path d="M92.6044 132.05H93.7094V137.065H96.8204V138H92.6044V132.05Z" fill="#1E3D49"/>
<path d="M102.155 137.074V138H97.6928V132.05H102.036V132.977H98.7978V134.524H101.671V135.433H98.7978V137.074H102.155Z" fill="#1E3D49"/>
<path d="M107.246 136.623H104.271L103.685 138H102.546L105.223 132.05H106.311L108.997 138H107.841L107.246 136.623ZM106.881 135.756L105.759 133.155L104.645 135.756H106.881Z" fill="#1E3D49"/>
<path d="M113.647 138L112.431 136.258C112.38 136.264 112.304 136.266 112.202 136.266H110.859V138H109.754V132.05H112.202C112.718 132.05 113.165 132.135 113.545 132.305C113.93 132.475 114.225 132.719 114.429 133.036C114.633 133.354 114.735 133.731 114.735 134.167C114.735 134.615 114.624 135 114.403 135.323C114.188 135.646 113.876 135.887 113.468 136.045L114.837 138H113.647ZM113.621 134.167C113.621 133.787 113.497 133.495 113.247 133.291C112.998 133.087 112.633 132.985 112.151 132.985H110.859V135.357H112.151C112.633 135.357 112.998 135.255 113.247 135.051C113.497 134.841 113.621 134.547 113.621 134.167Z" fill="#1E3D49"/>
<path d="M119.272 139.649C118.938 139.134 118.68 138.536 118.499 137.856C118.323 137.176 118.235 136.448 118.235 135.671C118.235 134.895 118.323 134.167 118.499 133.487C118.68 132.801 118.938 132.203 119.272 131.693H120.284C119.938 132.305 119.683 132.937 119.519 133.589C119.36 134.235 119.281 134.929 119.281 135.671C119.281 136.414 119.36 137.111 119.519 137.762C119.683 138.408 119.938 139.037 120.284 139.649H119.272Z" fill="#1E3D49"/>
<path d="M125.152 137.065V138H120.766V137.261L123.129 135.017C123.395 134.762 123.573 134.541 123.664 134.354C123.76 134.161 123.809 133.971 123.809 133.784C123.809 133.507 123.715 133.294 123.528 133.147C123.341 133 123.066 132.926 122.704 132.926C122.097 132.926 121.633 133.133 121.31 133.546L120.536 132.951C120.768 132.64 121.08 132.399 121.471 132.229C121.868 132.053 122.31 131.965 122.797 131.965C123.443 131.965 123.959 132.118 124.344 132.424C124.729 132.73 124.922 133.147 124.922 133.674C124.922 133.997 124.854 134.3 124.718 134.583C124.582 134.867 124.321 135.19 123.936 135.552L122.347 137.065H125.152Z" fill="#1E3D49"/>
<path d="M125.602 139.649C125.948 139.037 126.203 138.406 126.367 137.754C126.532 137.102 126.614 136.408 126.614 135.671C126.614 134.935 126.532 134.241 126.367 133.589C126.203 132.937 125.948 132.305 125.602 131.693H126.614C126.948 132.198 127.203 132.793 127.379 133.478C127.56 134.158 127.651 134.889 127.651 135.671C127.651 136.453 127.56 137.184 127.379 137.864C127.203 138.539 126.948 139.134 126.614 139.649H125.602Z" fill="#1E3D49"/>
</g>
<path d="M209.827 51.5869C209.827 49.9301 211.17 48.5869 212.827 48.5869H262.098C263.755 48.5869 265.098 49.9301 265.098 51.5869V56.168C265.098 57.8249 263.755 59.168 262.098 59.168H212.827C211.17 59.168 209.827 57.8249 209.827 56.168V51.5869Z" fill="#BBC3C6"/>
<path fill-rule="evenodd" clip-rule="evenodd" d="M27.7412 -0.942383H737.316C753.142 -0.942383 765.971 11.887 765.971 27.7129V437.287C765.971 453.113 753.142 465.943 737.316 465.943H27.7412C11.9153 465.943 -0.914062 453.113 -0.914062 437.287V27.7129C-0.914062 11.8871 11.9153 -0.942383 27.7412 -0.942383ZM27.7412 20.5002C23.7577 20.5002 20.5285 23.7294 20.5285 27.7129V437.287C20.5285 441.271 23.7577 444.5 27.7412 444.5H737.316C741.299 444.5 744.529 441.271 744.529 437.287V27.7129C744.529 23.7294 741.299 20.5002 737.316 20.5002H27.7412Z" fill="#202020"/>
<path d="M40 205.5C40 204.948 40.4477 204.5 41 204.5H50C50.5523 204.5 51 204.948 51 205.5V214.5C51 215.052 50.5523 215.5 50 215.5H41C40.4477 215.5 40 215.052 40 214.5V205.5Z" fill="#1E3D49"/>
<path fill-rule="evenodd" clip-rule="evenodd" d="M50 205.5H41L41 214.5H50V205.5ZM41 204.5C40.4477 204.5 40 204.948 40 205.5V214.5C40 215.052 40.4477 215.5 41 215.5H50C50.5523 215.5 51 215.052 51 214.5V205.5C51 204.948 50.5523 204.5 50 204.5H41Z" fill="#BBC3C6"/>
<path d="M40 53.75C40 46.5703 45.8203 40.75 53 40.75H171C178.18 40.75 184 46.5703 184 53.75C184 60.9297 178.18 66.75 171 66.75H53C45.8203 66.75 40 60.9297 40 53.75Z" fill="#243C47"/>
<path d="M40 398.35C40 396.693 41.3431 395.35 43 395.35H173C174.657 395.35 176 396.693 176 398.35C176 400.006 174.657 401.35 173 401.35H43C41.3431 401.35 40 400.006 40 398.35Z" fill="white"/>
<path fill-rule="evenodd" clip-rule="evenodd" d="M173 396.35H43C41.8954 396.35 41 397.245 41 398.35C41 399.454 41.8954 400.35 43 400.35H173C174.105 400.35 175 399.454 175 398.35C175 397.245 174.105 396.35 173 396.35ZM43 395.35C41.3431 395.35 40 396.693 40 398.35C40 400.006 41.3431 401.35 43 401.35H173C174.657 401.35 176 400.006 176 398.35C176 396.693 174.657 395.35 173 395.35H43Z" fill="#D3D3D3"/>
<path d="M76 398C76 393.029 80.0294 389 85 389C89.9706 389 94 393.029 94 398C94 402.971 89.9706 407 85 407C80.0294 407 76 402.971 76 398Z" fill="#0086B2"/>
<path d="M47.1329 389L47.1239 384.824L45.0539 388.28H44.5319L42.4619 384.878V389H41.3459V382.7H42.3089L44.8109 386.876L47.2679 382.7H48.2309L48.2399 389H47.1329Z" fill="#BBC3C6"/>
<path d="M50.4817 382.7H51.6517V389H50.4817V382.7Z" fill="#BBC3C6"/>
<path d="M59.4937 382.7V389H58.5307L55.0567 384.734V389H53.8957V382.7H54.8587L58.3327 386.966V382.7H59.4937Z" fill="#BBC3C6"/>
<path d="M159.633 389L159.624 384.824L157.554 388.28H157.032L154.962 384.878V389H153.846V382.7H154.809L157.311 386.876L159.768 382.7H160.731L160.74 389H159.633Z" fill="#BBC3C6"/>
<path d="M167.068 387.542H163.918L163.297 389H162.091L164.926 382.7H166.078L168.922 389H167.698L167.068 387.542ZM166.681 386.624L165.493 383.87L164.314 386.624H166.681Z" fill="#BBC3C6"/>
<path d="M173.915 389L172.205 386.606L170.513 389H169.181L171.521 385.787L169.307 382.7H170.63L172.241 384.941L173.834 382.7H175.103L172.898 385.742L175.265 389H173.915Z" fill="#BBC3C6"/>
</g>
<defs>
<clipPath id="clip0_0_60720">
<rect width="766" height="466" fill="white"/>
</clipPath>
<clipPath id="clip1_0_60720">
<rect width="55.833" height="23.3345" fill="white" transform="translate(38.167 97.2324)"/>
</clipPath>
<clipPath id="clip2_0_60720">
<rect width="76.8331" height="23.3345" fill="white" transform="translate(98 97.2324)"/>
</clipPath>
<clipPath id="clip3_0_60720">
<rect width="135" height="21.5" fill="white" transform="translate(40 124.567)"/>
</clipPath>
</defs>
</svg>
