<svg xmlns="http://www.w3.org/2000/svg" xmlns:xlink="http://www.w3.org/1999/xlink" width="767" height="467" viewBox="0 0 767 467">
    <defs>
        <rect id="wepzrbr0fa" width="533.592" height="323" x="170.221" y="112.121" rx="10.25"/>
        <mask id="iucm8f3aub" width="533.592" height="323" x="0" y="0" fill="#fff" maskContentUnits="userSpaceOnUse" maskUnits="objectBoundingBox">
            <use xlink:href="#wepzrbr0fa"/>
        </mask>
    </defs>
    <g fill="none" fill-rule="evenodd">
        <g>
            <g transform="translate(1.000000, 1.000000) translate(20.528526, 20.500000)">
                <g opacity=".627" transform="translate(265.601965, 231.720017)">
                    <rect width="78.646" height="92.052" fill="#E2E6E7" rx="5"/>
                    <rect width="63.464" height="49.798" x="7.591" y="6.328" fill="#FFF" rx="4.266"/>
                    <g fill="#BBC3C6" transform="translate(17.897170, 62.028664)">
                        <rect width="40.66" height="6.276" rx="3.138"/>
                    </g>
                    <g fill="#BBC3C6" transform="translate(6.529457, 73.946184)">
                        <rect width="63.395" height="11.778" rx="5.889"/>
                    </g>
                </g>
                <g opacity=".627" transform="translate(177.706882, 231.720017)">
                    <rect width="78.646" height="92.052" fill="#E2E6E7" rx="5"/>
                    <rect width="63.464" height="49.798" x="7.591" y="6.328" fill="#FFF" rx="4.266"/>
                    <g fill="#BBC3C6" transform="translate(17.897170, 62.028664)">
                        <rect width="40.66" height="6.276" rx="3.138"/>
                    </g>
                    <g fill="#BBC3C6" transform="translate(6.529457, 73.946184)">
                        <rect width="63.395" height="11.778" rx="5.889"/>
                    </g>
                </g>
                <g opacity=".627" transform="translate(353.497049, 231.720017)">
                    <rect width="78.646" height="92.052" fill="#E2E6E7" rx="5"/>
                    <rect width="63.464" height="49.798" x="7.591" y="6.328" fill="#FFF" rx="4.266"/>
                    <g fill="#BBC3C6" transform="translate(17.897170, 62.028664)">
                        <rect width="40.66" height="6.276" rx="3.138"/>
                    </g>
                    <g fill="#BBC3C6" transform="translate(6.529457, 73.946184)">
                        <rect width="63.395" height="11.778" rx="5.889"/>
                    </g>
                </g>
                <g opacity=".627" transform="translate(441.392132, 231.720017)">
                    <rect width="78.646" height="92.052" fill="#E2E6E7" rx="5"/>
                    <rect width="63.464" height="49.798" x="7.591" y="6.328" fill="#FFF" rx="4.266"/>
                    <g fill="#BBC3C6" transform="translate(17.897170, 62.028664)">
                        <rect width="40.66" height="6.276" rx="3.138"/>
                    </g>
                    <g fill="#BBC3C6" transform="translate(6.529457, 73.946184)">
                        <rect width="63.395" height="11.778" rx="5.889"/>
                    </g>
                </g>
                <g opacity=".627" transform="translate(529.287216, 231.720017)">
                    <rect width="78.646" height="92.052" fill="#E2E6E7" rx="5"/>
                    <rect width="63.464" height="49.798" x="7.591" y="6.328" fill="#FFF" rx="4.266"/>
                    <g fill="#BBC3C6" transform="translate(17.897170, 62.028664)">
                        <rect width="40.66" height="6.276" rx="3.138"/>
                    </g>
                    <g fill="#BBC3C6" transform="translate(6.529457, 73.946184)">
                        <rect width="63.395" height="11.778" rx="5.889"/>
                    </g>
                </g>
                <g opacity=".627" transform="translate(617.182299, 231.720017)">
                    <rect width="78.646" height="92.052" fill="#E2E6E7" rx="5"/>
                    <rect width="63.464" height="49.798" x="7.591" y="6.328" fill="#FFF" rx="4.266"/>
                    <g fill="#BBC3C6" transform="translate(17.897170, 62.028664)">
                        <rect width="40.66" height="6.276" rx="3.138"/>
                    </g>
                    <g fill="#BBC3C6" transform="translate(6.529457, 73.946184)">
                        <rect width="63.395" height="11.778" rx="5.889"/>
                    </g>
                </g>
                <g opacity=".627" transform="translate(265.601965, 119.968019)">
                    <rect width="78.646" height="92.052" fill="#E2E6E7" rx="5"/>
                    <rect width="63.464" height="49.798" x="7.591" y="6.328" fill="#FFF" rx="4.266"/>
                    <g fill="#BBC3C6" transform="translate(17.897170, 62.028664)">
                        <rect width="40.66" height="6.276" rx="3.138"/>
                    </g>
                    <g fill="#BBC3C6" transform="translate(6.529457, 73.946184)">
                        <rect width="63.395" height="11.778" rx="5.889"/>
                    </g>
                </g>
                <g opacity=".627" transform="translate(177.706882, 119.968019)">
                    <rect width="78.646" height="92.052" fill="#E2E6E7" rx="5"/>
                    <rect width="63.464" height="49.798" x="7.591" y="6.328" fill="#FFF" rx="4.266"/>
                    <g fill="#BBC3C6" transform="translate(17.897170, 62.028664)">
                        <rect width="40.66" height="6.276" rx="3.138"/>
                    </g>
                    <g fill="#BBC3C6" transform="translate(6.529457, 73.946184)">
                        <rect width="63.395" height="11.778" rx="5.889"/>
                    </g>
                </g>
                <g opacity=".627" transform="translate(353.497049, 119.968019)">
                    <rect width="78.646" height="92.052" fill="#E2E6E7" rx="5"/>
                    <rect width="63.464" height="49.798" x="7.591" y="6.328" fill="#FFF" rx="4.266"/>
                    <g fill="#BBC3C6" transform="translate(17.897170, 62.028664)">
                        <rect width="40.66" height="6.276" rx="3.138"/>
                    </g>
                    <g fill="#BBC3C6" transform="translate(6.529457, 73.946184)">
                        <rect width="63.395" height="11.778" rx="5.889"/>
                    </g>
                </g>
                <g opacity=".627" transform="translate(441.392132, 119.968019)">
                    <rect width="78.646" height="92.052" fill="#E2E6E7" rx="5"/>
                    <rect width="63.464" height="49.798" x="7.591" y="6.328" fill="#FFF" rx="4.266"/>
                    <g fill="#BBC3C6" transform="translate(17.897170, 62.028664)">
                        <rect width="40.66" height="6.276" rx="3.138"/>
                    </g>
                    <g fill="#BBC3C6" transform="translate(6.529457, 73.946184)">
                        <rect width="63.395" height="11.778" rx="5.889"/>
                    </g>
                </g>
                <g opacity=".627" transform="translate(529.287216, 119.968019)">
                    <rect width="78.646" height="92.052" fill="#E2E6E7" rx="5"/>
                    <rect width="63.464" height="49.798" x="7.591" y="6.328" fill="#FFF" rx="4.266"/>
                    <g fill="#BBC3C6" transform="translate(17.897170, 62.028664)">
                        <rect width="40.66" height="6.276" rx="3.138"/>
                    </g>
                    <g fill="#BBC3C6" transform="translate(6.529457, 73.946184)">
                        <rect width="63.395" height="11.778" rx="5.889"/>
                    </g>
                </g>
                <g opacity=".627" transform="translate(617.182299, 119.968019)">
                    <rect width="78.646" height="92.052" fill="#E2E6E7" rx="5"/>
                    <rect width="63.464" height="49.798" x="7.591" y="6.328" fill="#FFF" rx="4.266"/>
                    <g fill="#BBC3C6" transform="translate(17.897170, 62.028664)">
                        <rect width="40.66" height="6.276" rx="3.138"/>
                    </g>
                    <g fill="#BBC3C6" transform="translate(6.529457, 73.946184)">
                        <rect width="63.395" height="11.778" rx="5.889"/>
                    </g>
                </g>
                <g opacity=".627" transform="translate(265.601965, 343.472015)">
                    <rect width="78.646" height="92.052" fill="#E2E6E7" rx="5"/>
                    <rect width="63.464" height="49.798" x="7.591" y="6.328" fill="#FFF" rx="4.266"/>
                    <g fill="#BBC3C6" transform="translate(17.897170, 62.028664)">
                        <rect width="40.66" height="6.276" rx="3.138"/>
                    </g>
                    <g fill="#BBC3C6" transform="translate(6.529457, 73.946184)">
                        <rect width="63.395" height="11.778" rx="5.889"/>
                    </g>
                </g>
                <g opacity=".627" transform="translate(177.706882, 343.472015)">
                    <rect width="78.646" height="92.052" fill="#E2E6E7" rx="5"/>
                    <rect width="63.464" height="49.798" x="7.591" y="6.328" fill="#FFF" rx="4.266"/>
                    <g fill="#BBC3C6" transform="translate(17.897170, 62.028664)">
                        <rect width="40.66" height="6.276" rx="3.138"/>
                    </g>
                    <g fill="#BBC3C6" transform="translate(6.529457, 73.946184)">
                        <rect width="63.395" height="11.778" rx="5.889"/>
                    </g>
                </g>
                <g opacity=".627" transform="translate(353.497049, 343.472015)">
                    <rect width="78.646" height="92.052" fill="#E2E6E7" rx="5"/>
                    <rect width="63.464" height="49.798" x="7.591" y="6.328" fill="#FFF" rx="4.266"/>
                    <g fill="#BBC3C6" transform="translate(17.897170, 62.028664)">
                        <rect width="40.66" height="6.276" rx="3.138"/>
                    </g>
                    <g fill="#BBC3C6" transform="translate(6.529457, 73.946184)">
                        <rect width="63.395" height="11.778" rx="5.889"/>
                    </g>
                </g>
                <g opacity=".627" transform="translate(441.392132, 343.472015)">
                    <rect width="78.646" height="92.052" fill="#E2E6E7" rx="5"/>
                    <rect width="63.464" height="49.798" x="7.591" y="6.328" fill="#FFF" rx="4.266"/>
                    <g fill="#BBC3C6" transform="translate(17.897170, 62.028664)">
                        <rect width="40.66" height="6.276" rx="3.138"/>
                    </g>
                    <g fill="#BBC3C6" transform="translate(6.529457, 73.946184)">
                        <rect width="63.395" height="11.778" rx="5.889"/>
                    </g>
                </g>
                <g opacity=".627" transform="translate(529.287216, 343.472015)">
                    <rect width="78.646" height="92.052" fill="#E2E6E7" rx="5"/>
                    <rect width="63.464" height="49.798" x="7.591" y="6.328" fill="#FFF" rx="4.266"/>
                    <g fill="#BBC3C6" transform="translate(17.897170, 62.028664)">
                        <rect width="40.66" height="6.276" rx="3.138"/>
                    </g>
                    <g fill="#BBC3C6" transform="translate(6.529457, 73.946184)">
                        <rect width="63.395" height="11.778" rx="5.889"/>
                    </g>
                </g>
                <g opacity=".627" transform="translate(617.182299, 343.472015)">
                    <rect width="78.646" height="92.052" fill="#E2E6E7" rx="5"/>
                    <rect width="63.464" height="49.798" x="7.591" y="6.328" fill="#FFF" rx="4.266"/>
                    <g fill="#BBC3C6" transform="translate(17.897170, 62.028664)">
                        <rect width="40.66" height="6.276" rx="3.138"/>
                    </g>
                    <g fill="#BBC3C6" transform="translate(6.529457, 73.946184)">
                        <rect width="63.395" height="11.778" rx="5.889"/>
                    </g>
                </g>
                <rect width="515.517" height="23.5" x="179.812" y="21.5" fill="#FFF" stroke="#D3D3D3" rx="11.75"/>
                <g stroke="#D3D3D3" transform="translate(676.652392, 28.086933)">
                    <circle cx="4.78" cy="4.78" r="4.28" fill="#FFF"/>
                    <path stroke-linecap="round" d="M8.293 7.817L11.058 10.581"/>
                </g>
                <rect width="136" height="16" x="19.471" y="120.968" fill="#BBC3C6" rx="3"/>
                <rect width="89" height="11" x="19.471" y="144.968" fill="#BBC3C6" rx="2"/>
                <rect width="78" height="11" x="19.471" y="163.968" fill="#BBC3C6" rx="2"/>
                <rect width="97.281" height="11" x="19.471" y="182.968" fill="#BBC3C6" rx="2"/>
                <rect width="71.36" height="11" x="19.471" y="201.968" fill="#BBC3C6" rx="2"/>
                <rect width="136" height="16" x="19.471" y="312.436" fill="#BBC3C6" rx="3"/>
                <rect width="89" height="11" x="19.471" y="336.436" fill="#BBC3C6" rx="2"/>
                <rect width="103" height="11" x="19.471" y="355.436" fill="#BBC3C6" rx="2"/>
                <rect width="64" height="11" x="19.471" y="374.436" fill="#BBC3C6" rx="2"/>
                <rect width="78" height="11" x="19.471" y="393.436" fill="#BBC3C6" rx="2"/>
                <rect width="111" height="11" x="19.471" y="220.968" fill="#BBC3C6" rx="2"/>
                <rect width="97" height="11" x="19.471" y="239.968" fill="#BBC3C6" rx="2"/>
                <rect width="59" height="11" x="19.471" y="258.968" fill="#BBC3C6" rx="2"/>
                <rect width="103" height="11" x="19.471" y="277.968" fill="#BBC3C6" rx="2"/>
                <rect width="55.271" height="10.581" x="189.298" y="28.087" fill="#BBC3C6" rx="3"/>
                <path fill="#1E3D49" fill-rule="nonzero" d="M181.794 97v-7h-2.78v1.09h1.48V97h1.3zm6.46 0v-1.1h-3.3l1.87-1.78c.453-.427.76-.807.92-1.14.16-.333.24-.69.24-1.07 0-.62-.227-1.11-.68-1.47-.454-.36-1.06-.54-1.82-.54-.574 0-1.092.102-1.555.305-.464.203-.832.488-1.105.855l.91.7c.38-.487.926-.73 1.64-.73.426 0 .75.087.97.26.22.173.33.423.33.75 0 .22-.055.442-.165.665-.11.223-.322.485-.635.785l-2.78 2.64V97h5.16zm2.95.1c.6 0 1.108-.098 1.525-.295.416-.197.728-.462.935-.795.206-.333.31-.703.31-1.11 0-.54-.17-.99-.51-1.35-.34-.36-.834-.58-1.48-.66l1.7-2.02V90h-4.77v1.09h3.18l-1.59 1.89v.89h.64c.513 0 .895.092 1.145.275.25.183.375.438.375.765s-.132.585-.395.775c-.264.19-.625.285-1.085.285-.387 0-.762-.062-1.125-.185-.364-.123-.672-.292-.925-.505l-.56 1.01c.326.253.721.452 1.185.595.463.143.945.215 1.445.215zm8.62-.1v-1.59h1.24v-1.1h-1.24V92.9h-1.22v1.41h-2.29l3.25-4.31h-1.39l-3.45 4.51v.9h3.84V97h1.26zm6.35 0v-2.04h1.58c.12 0 .21-.003.27-.01l1.43 2.05h1.4l-1.61-2.3c.48-.187.848-.47 1.105-.85.256-.38.385-.833.385-1.36 0-.513-.12-.957-.36-1.33-.24-.373-.585-.66-1.035-.86-.45-.2-.979-.3-1.585-.3h-2.88v7h1.3zm1.52-3.11h-1.52V91.1h1.52c.566 0 .996.12 1.29.36.293.24.44.583.44 1.03 0 .447-.147.792-.44 1.035-.294.243-.724.365-1.29.365zm6.88 3.18c.46 0 .873-.073 1.24-.22.366-.147.67-.363.91-.65l-.67-.77c-.38.387-.864.58-1.45.58-.46 0-.845-.115-1.155-.345-.31-.23-.502-.542-.575-.935h4.19c.013-.16.02-.283.02-.37 0-.547-.115-1.028-.345-1.445-.23-.417-.55-.74-.96-.97-.41-.23-.875-.345-1.395-.345-.527 0-1 .117-1.42.35-.42.233-.749.558-.985.975-.237.417-.355.885-.355 1.405 0 .527.121.998.365 1.415.243.417.588.742 1.035.975.446.233.963.35 1.55.35zm1.32-3.17h-3.03c.06-.393.228-.708.505-.945.276-.237.615-.355 1.015-.355.406 0 .746.12 1.02.36.273.24.436.553.49.94zm4.04 3.17c.746 0 1.336-.15 1.77-.45.433-.3.65-.7.65-1.2 0-.38-.099-.673-.295-.88-.197-.207-.432-.353-.705-.44-.274-.087-.624-.163-1.05-.23-.427-.073-.742-.152-.945-.235-.204-.083-.305-.225-.305-.425 0-.18.095-.325.285-.435.19-.11.468-.165.835-.165.566 0 1.076.133 1.53.4l.48-.95c-.234-.14-.534-.252-.9-.335-.367-.083-.734-.125-1.1-.125-.72 0-1.292.152-1.715.455-.424.303-.635.708-.635 1.215 0 .387.101.688.305.905.203.217.443.368.72.455.276.087.635.163 1.075.23.42.067.725.137.915.21.19.073.285.203.285.39 0 .393-.374.59-1.12.59-.327 0-.659-.048-.995-.145-.337-.097-.625-.225-.865-.385l-.48.95c.246.173.576.317.99.43.413.113.836.17 1.27.17zm5.76 0c.346 0 .67-.065.97-.195.3-.13.55-.315.75-.555V97h1.19v-5.34h-1.25v2.7c0 .52-.132.918-.395 1.195-.264.277-.619.415-1.065.415-.4 0-.709-.118-.925-.355-.217-.237-.325-.595-.325-1.075v-2.88h-1.25v3.05c0 .78.205 1.368.615 1.765.41.397.971.595 1.685.595zm5.8-.07v-7.42h-1.25V97h1.25zm3.91.07c.233 0 .455-.03.665-.09.21-.06.388-.15.535-.27l-.35-.89c-.187.147-.42.22-.7.22-.24 0-.424-.068-.55-.205-.127-.137-.19-.335-.19-.595V92.7h1.43v-1h-1.43v-1.22h-1.25v1.22h-.88v1h.88v2.57c0 .587.16 1.033.48 1.34.32.307.773.46 1.36.46zm3.88 0c.746 0 1.336-.15 1.77-.45.433-.3.65-.7.65-1.2 0-.38-.099-.673-.295-.88-.197-.207-.432-.353-.705-.44-.274-.087-.624-.163-1.05-.23-.427-.073-.742-.152-.945-.235-.204-.083-.305-.225-.305-.425 0-.18.095-.325.285-.435.19-.11.468-.165.835-.165.566 0 1.076.133 1.53.4l.48-.95c-.234-.14-.534-.252-.9-.335-.367-.083-.734-.125-1.1-.125-.72 0-1.292.152-1.715.455-.424.303-.635.708-.635 1.215 0 .387.101.688.305.905.203.217.443.368.72.455.276.087.635.163 1.075.23.42.067.725.137.915.21.19.073.285.203.285.39 0 .393-.374.59-1.12.59-.327 0-.659-.048-.995-.145-.337-.097-.625-.225-.865-.385l-.48.95c.246.173.576.317.99.43.413.113.836.17 1.27.17zM473.855 97.1c.506 0 1-.077 1.48-.23.48-.153.9-.373 1.26-.66v-2.79h-1.23v2.18c-.414.24-.894.36-1.44.36-.487 0-.922-.107-1.305-.32-.384-.213-.684-.507-.9-.88-.217-.373-.325-.793-.325-1.26 0-.48.108-.907.325-1.28.216-.373.516-.663.9-.87.383-.207.821-.31 1.315-.31.753 0 1.396.267 1.93.8l.82-.8c-.327-.373-.73-.657-1.21-.85-.48-.193-1.014-.29-1.6-.29-.72 0-1.369.155-1.945.465-.577.31-1.029.738-1.355 1.285-.327.547-.49 1.163-.49 1.85s.163 1.303.49 1.85c.326.547.776.975 1.35 1.285.573.31 1.216.465 1.93.465zm5.58-.1v-2.59c0-.533.136-.942.41-1.225.273-.283.653-.425 1.14-.425.086 0 .183.01.29.03V91.6c-.907 0-1.54.28-1.9.84v-.78h-1.19V97h1.25zm3.53-6.22c.233 0 .425-.075.575-.225.15-.15.225-.335.225-.555 0-.207-.077-.378-.23-.515-.154-.137-.344-.205-.57-.205-.227 0-.417.072-.57.215-.154.143-.23.322-.23.535 0 .213.076.392.23.535.153.143.343.215.57.215zm.62 6.22v-5.34h-1.25V97h1.25zm3.9.07c.366 0 .701-.063 1.005-.19.303-.127.558-.317.765-.57V97h1.2v-7.42h-1.25v2.74c-.207-.24-.457-.42-.75-.54-.294-.12-.617-.18-.97-.18-.514 0-.975.113-1.385.34-.41.227-.732.547-.965.96-.234.413-.35.89-.35 1.43 0 .54.116 1.018.35 1.435.233.417.555.738.965.965.41.227.871.34 1.385.34zm.15-1.07c-.3 0-.57-.068-.81-.205-.24-.137-.43-.332-.57-.585-.14-.253-.21-.547-.21-.88 0-.333.07-.627.21-.88.14-.253.33-.448.57-.585.24-.137.51-.205.81-.205.3 0 .57.068.81.205.24.137.43.332.57.585.14.253.21.547.21.88 0 .333-.07.627-.21.88-.14.253-.33.448-.57.585-.24.137-.51.205-.81.205zm10.58 1.1c.573 0 1.098-.1 1.575-.3.476-.2.878-.49 1.205-.87l-.84-.8c-.507.553-1.13.83-1.87.83-.48 0-.91-.105-1.29-.315-.38-.21-.677-.502-.89-.875-.214-.373-.32-.797-.32-1.27s.106-.897.32-1.27c.213-.373.51-.665.89-.875.38-.21.81-.315 1.29-.315.74 0 1.363.273 1.87.82l.84-.79c-.327-.38-.727-.67-1.2-.87-.474-.2-.997-.3-1.57-.3-.707 0-1.345.155-1.915.465-.57.31-1.019.738-1.345 1.285-.327.547-.49 1.163-.49 1.85s.161 1.303.485 1.85c.323.547.77.975 1.34 1.285.57.31 1.208.465 1.915.465zm6.11-.03c.546 0 1.036-.117 1.47-.35.433-.233.771-.558 1.015-.975.243-.417.365-.888.365-1.415s-.122-.997-.365-1.41c-.244-.413-.582-.737-1.015-.97-.434-.233-.924-.35-1.47-.35-.54 0-1.027.117-1.46.35-.434.233-.772.557-1.015.97-.244.413-.365.883-.365 1.41 0 .527.121.998.365 1.415.243.417.581.742 1.015.975.433.233.92.35 1.46.35zm0-1.07c-.46 0-.839-.153-1.135-.46-.297-.307-.445-.71-.445-1.21s.148-.903.445-1.21c.296-.307.675-.46 1.135-.46.46 0 .84.153 1.14.46.3.307.45.71.45 1.21s-.15.903-.45 1.21c-.3.307-.68.46-1.14.46zm5.3 1v-7.42h-1.25V97h1.25zm3.9.07c.346 0 .67-.065.97-.195.3-.13.55-.315.75-.555V97h1.19v-5.34h-1.25v2.7c0 .52-.132.918-.395 1.195-.264.277-.619.415-1.065.415-.4 0-.709-.118-.925-.355-.217-.237-.325-.595-.325-1.075v-2.88h-1.25v3.05c0 .78.205 1.368.615 1.765.41.397.971.595 1.685.595zm5.8-.07v-2.71c0-.52.125-.917.375-1.19.25-.273.588-.41 1.015-.41.386 0 .683.118.89.355.206.237.31.588.31 1.055V97h1.25v-2.71c0-.513.126-.908.38-1.185.253-.277.59-.415 1.01-.415.386 0 .683.118.89.355.206.237.31.588.31 1.055V97h1.25v-3.06c0-.78-.197-1.365-.59-1.755-.394-.39-.927-.585-1.6-.585-.42 0-.804.078-1.15.235-.347.157-.63.375-.85.655-.18-.293-.425-.515-.735-.665-.31-.15-.665-.225-1.065-.225-.367 0-.7.063-1 .19-.3.127-.55.31-.75.55v-.68h-1.19V97h1.25zm10.53 0v-2.7c0-.52.133-.918.4-1.195.266-.277.63-.415 1.09-.415.406 0 .72.118.94.355.22.237.33.588.33 1.055V97h1.25v-3.06c0-.773-.204-1.357-.61-1.75-.407-.393-.947-.59-1.62-.59-.394 0-.747.063-1.06.19-.314.127-.574.313-.78.56v-.69h-1.19V97h1.25zm7.25.07c.746 0 1.336-.15 1.77-.45.433-.3.65-.7.65-1.2 0-.38-.099-.673-.295-.88-.197-.207-.432-.353-.705-.44-.274-.087-.624-.163-1.05-.23-.427-.073-.742-.152-.945-.235-.204-.083-.305-.225-.305-.425 0-.18.095-.325.285-.435.19-.11.468-.165.835-.165.566 0 1.076.133 1.53.4l.48-.95c-.234-.14-.534-.252-.9-.335-.367-.083-.734-.125-1.1-.125-.72 0-1.292.152-1.715.455-.424.303-.635.708-.635 1.215 0 .387.101.688.305.905.203.217.443.368.72.455.276.087.635.163 1.075.23.42.067.725.137.915.21.19.073.285.203.285.39 0 .393-.374.59-1.12.59-.327 0-.659-.048-.995-.145-.337-.097-.625-.225-.865-.385l-.48.95c.246.173.576.317.99.43.413.113.836.17 1.27.17zm3.9-3.81c.226 0 .42-.078.58-.235.16-.157.24-.355.24-.595 0-.247-.079-.447-.235-.6-.157-.153-.352-.23-.585-.23-.234 0-.429.077-.585.23-.157.153-.235.353-.235.6 0 .24.08.438.24.595.16.157.353.235.58.235zm0 3.81c.226 0 .42-.078.58-.235.16-.157.24-.355.24-.595 0-.247-.079-.447-.235-.6-.157-.153-.352-.23-.585-.23-.234 0-.429.077-.585.23-.157.153-.235.353-.235.6 0 .24.08.438.24.595.16.157.353.235.58.235zm15.73.03c.48 0 .913-.093 1.3-.28.386-.187.693-.452.92-.795.226-.343.34-.742.34-1.195 0-.427-.104-.803-.31-1.13-.207-.327-.494-.578-.86-.755-.367-.177-.78-.265-1.24-.265-.4 0-.76.062-1.08.185-.32.123-.584.305-.79.545v-.01c0-.78.19-1.377.57-1.79.38-.413.906-.62 1.58-.62.54 0 .983.113 1.33.34l.48-.98c-.234-.147-.509-.258-.825-.335-.317-.077-.655-.115-1.015-.115-.68 0-1.279.145-1.795.435-.517.29-.919.713-1.205 1.27-.287.557-.43 1.228-.43 2.015 0 1.12.265 1.98.795 2.58.53.6 1.275.9 2.235.9zm-.07-1.02c-.454 0-.809-.112-1.065-.335-.257-.223-.385-.505-.385-.845 0-.347.131-.633.395-.86.263-.227.605-.34 1.025-.34.426 0 .766.107 1.02.32.253.213.38.503.38.87 0 .36-.127.648-.38.865-.254.217-.584.325-.99.325zm19.35.92v-1.59h1.24v-1.1h-1.24V92.9h-1.22v1.41h-2.29l3.25-4.31h-1.39l-3.45 4.51v.9h3.84V97h1.26z"/>
                <circle cx="556.253" cy="93.734" r="9.75" stroke="#1E3D49"/>
                <path fill="#1E3D49" fill-rule="nonzero" d="M610.581 97.1c.614 0 1.134-.093 1.56-.28.427-.187.745-.437.955-.75.21-.313.315-.663.315-1.05 0-.453-.118-.813-.355-1.08-.236-.267-.521-.465-.855-.595-.333-.13-.76-.255-1.28-.375-.38-.093-.68-.177-.9-.25-.22-.073-.401-.173-.545-.3-.143-.127-.215-.29-.215-.49 0-.287.125-.517.375-.69.25-.173.632-.26 1.145-.26.314 0 .637.047.97.14.334.093.654.23.96.41l.41-1.01c-.3-.2-.656-.353-1.07-.46-.413-.107-.833-.16-1.26-.16-.613 0-1.131.093-1.555.28-.423.187-.74.438-.95.755-.21.317-.315.668-.315 1.055 0 .46.119.825.355 1.095.237.27.52.468.85.595.33.127.762.253 1.295.38.38.093.68.177.9.25.22.073.402.175.545.305.144.13.215.295.215.495 0 .273-.128.493-.385.66-.256.167-.645.25-1.165.25-.42 0-.838-.072-1.255-.215-.416-.143-.768-.328-1.055-.555l-.45 1.01c.294.253.692.457 1.195.61.504.153 1.025.23 1.565.23zm6.4-.03c.547 0 1.037-.117 1.47-.35.434-.233.772-.558 1.015-.975.244-.417.365-.888.365-1.415s-.121-.997-.365-1.41c-.243-.413-.581-.737-1.015-.97-.433-.233-.923-.35-1.47-.35-.54 0-1.026.117-1.46.35-.433.233-.771.557-1.015.97-.243.413-.365.883-.365 1.41 0 .527.122.998.365 1.415.244.417.582.742 1.015.975.434.233.92.35 1.46.35zm0-1.07c-.46 0-.838-.153-1.135-.46-.296-.307-.445-.71-.445-1.21s.149-.903.445-1.21c.297-.307.675-.46 1.135-.46.46 0 .84.153 1.14.46.3.307.45.71.45 1.21s-.15.903-.45 1.21c-.3.307-.68.46-1.14.46zm5.3 1v-2.59c0-.533.137-.942.41-1.225.274-.283.654-.425 1.14-.425.087 0 .184.01.29.03V91.6c-.906 0-1.54.28-1.9.84v-.78h-1.19V97h1.25zm5.11.07c.234 0 .455-.03.665-.09.21-.06.389-.15.535-.27l-.35-.89c-.186.147-.42.22-.7.22-.24 0-.423-.068-.55-.205-.126-.137-.19-.335-.19-.595V92.7h1.43v-1h-1.43v-1.22h-1.25v1.22h-.88v1h.88v2.57c0 .587.16 1.033.48 1.34.32.307.774.46 1.36.46zm7.95 0c.52 0 .985-.113 1.395-.34.41-.227.732-.548.965-.965.234-.417.35-.895.35-1.435s-.116-1.017-.35-1.43c-.233-.413-.555-.733-.965-.96-.41-.227-.875-.34-1.395-.34-.346 0-.665.06-.955.18-.29.12-.541.297-.755.53v-2.73h-1.25V97h1.19v-.69c.207.253.462.443.765.57.304.127.639.19 1.005.19zm-.14-1.07c-.3 0-.57-.068-.81-.205-.24-.137-.43-.332-.57-.585-.14-.253-.21-.547-.21-.88 0-.333.07-.627.21-.88.14-.253.33-.448.57-.585.24-.137.51-.205.81-.205.46 0 .839.153 1.135.46.297.307.445.71.445 1.21s-.148.903-.445 1.21c-.296.307-.675.46-1.135.46zm4.33 3.01c.474 0 .877-.118 1.21-.355.334-.237.617-.645.85-1.225l2.5-5.77h-1.2l-1.69 3.95-1.68-3.95h-1.3l2.33 5.36-.09.21c-.12.267-.251.457-.395.57-.143.113-.325.17-.545.17-.166 0-.331-.033-.495-.1-.163-.067-.305-.157-.425-.27l-.5.92c.167.153.38.273.64.36.26.087.524.13.79.13zm9.35-.07v-2.59c.42.48.99.72 1.71.72.52 0 .985-.113 1.395-.34.41-.227.732-.548.965-.965.234-.417.35-.895.35-1.435s-.116-1.017-.35-1.43c-.233-.413-.555-.733-.965-.96-.41-.227-.875-.34-1.395-.34-.366 0-.701.063-1.005.19-.303.127-.558.317-.765.57v-.7h-1.19v7.28h1.25zm1.57-2.94c-.3 0-.57-.068-.81-.205-.24-.137-.43-.332-.57-.585-.14-.253-.21-.547-.21-.88 0-.333.07-.627.21-.88.14-.253.33-.448.57-.585.24-.137.51-.205.81-.205.46 0 .839.153 1.135.46.297.307.445.71.445 1.21s-.148.903-.445 1.21c-.296.307-.675.46-1.135.46zm5.29 1v-2.59c0-.533.137-.942.41-1.225.274-.283.654-.425 1.14-.425.087 0 .184.01.29.03V91.6c-.906 0-1.54.28-1.9.84v-.78h-1.19V97h1.25zm3.53-6.22c.234 0 .425-.075.575-.225.15-.15.225-.335.225-.555 0-.207-.076-.378-.23-.515-.153-.137-.343-.205-.57-.205-.226 0-.416.072-.57.215-.153.143-.23.322-.23.535 0 .213.077.392.23.535.154.143.344.215.57.215zm.62 6.22v-5.34h-1.25V97h1.25zm4.09.07c.52 0 .979-.108 1.375-.325.397-.217.699-.525.905-.925l-.96-.56c-.153.247-.345.432-.575.555-.23.123-.481.185-.755.185-.473 0-.861-.152-1.165-.455-.303-.303-.455-.708-.455-1.215 0-.507.154-.912.46-1.215.307-.303.694-.455 1.16-.455.274 0 .525.062.755.185.23.123.422.308.575.555l.96-.56c-.2-.4-.498-.707-.895-.92-.396-.213-.858-.32-1.385-.32-.56 0-1.058.117-1.495.35-.436.233-.778.557-1.025.97-.246.413-.37.883-.37 1.41 0 .527.124.998.37 1.415.247.417.59.742 1.03.975.44.233.937.35 1.49.35zm5.79 0c.46 0 .874-.073 1.24-.22.367-.147.67-.363.91-.65l-.67-.77c-.38.387-.863.58-1.45.58-.46 0-.845-.115-1.155-.345-.31-.23-.501-.542-.575-.935h4.19c.014-.16.02-.283.02-.37 0-.547-.115-1.028-.345-1.445-.23-.417-.55-.74-.96-.97-.41-.23-.875-.345-1.395-.345-.526 0-1 .117-1.42.35-.42.233-.748.558-.985.975-.236.417-.355.885-.355 1.405 0 .527.122.998.365 1.415.244.417.589.742 1.035.975.447.233.964.35 1.55.35zm1.32-3.17h-3.03c.06-.393.229-.708.505-.945.277-.237.615-.355 1.015-.355.407 0 .747.12 1.02.36.274.24.437.553.49.94z"/>
                <rect width="95.841" height="19.016" x="598.971" y="84.468" stroke="#1E3D49" rx="9.508"/>
                <path stroke="#1E3D49" stroke-linecap="round" stroke-linejoin="round" d="M679.334 92.805L682.834 96.305 686.334 92.805"/>
                <rect width="745.443" height="445.443" x="-10.721" y="-10.721" stroke="#202020" stroke-width="21.443" rx="7.213"/>
                <rect width="144" height="26" x="19.471" y="20.25" fill="#243C47" rx="13"/>
                <rect width="64.606" height="19.5" x="179.812" y="54.5" fill="#FFF" stroke="#D3D3D3" rx="9.75"/>
                <rect width="48.348" height="10.581" x="188.048" y="59.087" fill="#BBC3C6" rx="3"/>
                <rect width="64.606" height="19.5" x="412.865" y="54.5" fill="#FFF" stroke="#D3D3D3" rx="9.75"/>
                <rect width="48.348" height="10.581" x="421.1" y="59.087" fill="#BBC3C6" rx="3"/>
                <rect width="96.097" height="19.5" x="251.104" y="54.5" fill="#FFF" stroke="#D3D3D3" rx="9.75"/>
                <rect width="71.555" height="10.581" x="263.533" y="59.087" fill="#BBC3C6" rx="3"/>
                <rect width="50.61" height="19.5" x="354.202" y="54.5" fill="#FFF" stroke="#D3D3D3" rx="9.75"/>
                <rect width="38.034" height="10.581" x="360.574" y="59.087" fill="#BBC3C6" rx="3"/>
                <use stroke="#FDCB5B" stroke-dasharray="4" stroke-width="4" mask="url(#iucm8f3aub)" xlink:href="#wepzrbr0fa"/>
                <circle cx="676.142" cy="392.671" r="14.171" fill="#D44A6F" stroke="#D44A6F"/>
                <path stroke="#FFF" stroke-linecap="round" stroke-linejoin="round" d="M670.142 394.786L676.142 388.786 682.142 394.786"/>
                <g>
                    <path fill="#80C0A1" d="M8 0h18.5c2.21 0 4 1.79 4 4v18.5c0 2.21-1.79 4-4 4H8c-2.21 0-4-1.79-4-4V4c0-2.21 1.79-4 4-4z" transform="translate(248.250000, 81.000000) translate(17.250000, 13.250000) rotate(-180.000000) translate(-17.250000, -13.250000)"/>
                    <path fill="#FFF" fill-rule="nonzero" d="M18.017 17.25c1.127 0 1.978-.21 2.555-.63.576-.42.864-1.021.864-1.801 0-.607-.163-1.103-.488-1.489-.325-.385-.786-.643-1.384-.773.433-.173.773-.436 1.02-.787.247-.35.371-.777.371-1.28 0-.745-.28-1.322-.838-1.729-.56-.407-1.346-.611-2.36-.611h-3.926v9.1h4.186zm-.325-5.005h-2.899V8.943h2.899c.737 0 1.304.14 1.703.423.399.281.598.69.598 1.228 0 .537-.2.947-.598 1.229-.399.281-.966.422-1.703.422zm.312 4.212h-3.211v-3.419h3.211c1.647 0 2.47.568 2.47 1.703 0 .59-.208 1.023-.624 1.3-.416.277-1.031.416-1.846.416z" transform="translate(248.250000, 81.000000)"/>
                    <path fill="#80C0A1" d="M0 9.625L0 17.625 4 13.625" transform="translate(248.250000, 81.000000) translate(2.000000, 13.625000) rotate(-180.000000) translate(-2.000000, -13.625000)"/>
                </g>
                <g>
                    <path fill="#80C0A1" d="M4 0h18.5c2.21 0 4 1.79 4 4v18.5c0 2.21-1.79 4-4 4H4c-2.21 0-4-1.79-4-4V4c0-2.21 1.79-4 4-4z" transform="translate(432.250000, 81.000000)"/>
                    <path fill="#FFF" fill-rule="nonzero" d="M14.01 17.328c.677 0 1.303-.115 1.879-.345.576-.23 1.064-.56 1.463-.994l-.611-.611c-.703.728-1.6 1.092-2.691 1.092-.72 0-1.374-.165-1.964-.494-.589-.33-1.05-.78-1.384-1.352-.334-.572-.5-1.213-.5-1.924 0-.71.166-1.352.5-1.924.334-.572.795-1.023 1.384-1.352.59-.33 1.244-.494 1.963-.494 1.084 0 1.98.36 2.692 1.079l.61-.611c-.398-.433-.883-.763-1.455-.988-.573-.225-1.197-.338-1.873-.338-.9 0-1.716.2-2.444.598-.728.399-1.297.951-1.709 1.658-.412.706-.617 1.497-.617 2.372 0 .875.205 1.666.617 2.373.412.706.98 1.258 1.703 1.657.724.399 1.536.598 2.438.598z" transform="translate(432.250000, 81.000000)"/>
                    <path fill="#80C0A1" d="M25.5 9.625L25.5 17.625 29.5 13.625" transform="translate(432.250000, 81.000000)"/>
                </g>
                <g>
                    <path fill="#80C0A1" d="M8 0h18.5c2.21 0 4 1.79 4 4v18.5c0 2.21-1.79 4-4 4H8c-2.21 0-4-1.79-4-4V4c0-2.21 1.79-4 4-4z" transform="translate(700.750000, 81.000000)"/>
                    <text fill="#FFF" font-family="Montserrat-Regular, Montserrat" font-size="13" transform="translate(700.750000, 81.000000)">
                        <tspan x="11.881" y="17.25">D</tspan>
                    </text>
                    <path fill="#80C0A1" d="M0 9.25L0 17.25 4 13.25" transform="translate(700.750000, 81.000000) translate(2.000000, 13.250000) rotate(-180.000000) translate(-2.000000, -13.250000)"/>
                </g>
                <g>
                    <path fill="#FDCB5B" d="M4 0h18.5c2.21 0 4 1.79 4 4v18.5c0 2.21-1.79 4-4 4H4c-2.21 0-4-1.79-4-4V4c0-2.21 1.79-4 4-4z" transform="translate(139.250000, 239.000000)"/>
                    <path fill="#FFF" fill-rule="nonzero" d="M9.617 17.25l1.091-2.431h5.07l1.092 2.431h1.014l-4.16-9.1h-.949l-4.16 9.1h1.002zm5.81-3.211H11.06l2.183-4.888 2.184 4.888z" transform="translate(139.250000, 239.000000)"/>
                    <path fill="#FDCB5B" d="M25.5 9.625L25.5 17.625 29.5 13.625" transform="translate(139.250000, 239.000000)"/>
                </g>
                <g>
                    <path fill="#D44A6F" d="M4 0h18.5c2.21 0 4 1.79 4 4v18.5c0 2.21-1.79 4-4 4H4c-2.21 0-4-1.79-4-4V4c0-2.21 1.79-4 4-4z" transform="translate(623.250000, 379.000000)"/>
                    <path fill="#FFF" fill-rule="nonzero" d="M16.819 17.25L16.819 16.418 11.345 16.418 11.345 13.038 16.052 13.038 16.052 12.219 11.345 12.219 11.345 8.982 16.623 8.982 16.623 8.15 10.383 8.15 10.383 17.25z" transform="translate(623.250000, 379.000000)"/>
                    <path fill="#D44A6F" d="M25.5 9.625L25.5 17.625 29.5 13.625" transform="translate(623.250000, 379.000000)"/>
                </g>
            </g>
        </g>
    </g>
</svg>
