<svg width="759" height="130" xmlns="http://www.w3.org/2000/svg" xmlns:xlink="http://www.w3.org/1999/xlink"><defs><filter id="a"><feColorMatrix in="SourceGraphic" values="0 0 0 0 0.117647 0 0 0 0 0.239216 0 0 0 0 0.286275 0 0 0 1.000000 0"/></filter><filter x="-223.1%" y="-188.5%" width="623.1%" height="623.1%" filterUnits="objectBoundingBox" id="b"><feOffset dx="10" dy="19" in="SourceAlpha" result="shadowOffsetOuter1"/><feGaussianBlur stdDeviation="19.5" in="shadowOffsetOuter1" result="shadowBlurOuter1"/><feColorMatrix values="0 0 0 0 0.571189991 0 0 0 0 0.571189991 0 0 0 0 0.571189991 0 0 0 0.5 0" in="shadowBlurOuter1"/></filter><filter x="-527.3%" y="-980%" width="1336.4%" height="2820%" filterUnits="objectBoundingBox" id="d"><feOffset dx="10" dy="19" in="SourceAlpha" result="shadowOffsetOuter1"/><feGaussianBlur stdDeviation="19.5" in="shadowOffsetOuter1" result="shadowBlurOuter1"/><feColorMatrix values="0 0 0 0 0.571189991 0 0 0 0 0.571189991 0 0 0 0 0.571189991 0 0 0 0.5 0" in="shadowBlurOuter1"/></filter><filter x="-223.1%" y="-188.5%" width="623.1%" height="623.1%" filterUnits="objectBoundingBox" id="f"><feOffset dx="10" dy="19" in="SourceAlpha" result="shadowOffsetOuter1"/><feGaussianBlur stdDeviation="19.5" in="shadowOffsetOuter1" result="shadowBlurOuter1"/><feColorMatrix values="0 0 0 0 0.571189991 0 0 0 0 0.571189991 0 0 0 0 0.571189991 0 0 0 0.5 0" in="shadowBlurOuter1"/></filter><filter x="-527.3%" y="-980%" width="1336.4%" height="2820%" filterUnits="objectBoundingBox" id="h"><feOffset dx="10" dy="19" in="SourceAlpha" result="shadowOffsetOuter1"/><feGaussianBlur stdDeviation="19.5" in="shadowOffsetOuter1" result="shadowBlurOuter1"/><feColorMatrix values="0 0 0 0 0.571189991 0 0 0 0 0.571189991 0 0 0 0 0.571189991 0 0 0 0.5 0" in="shadowBlurOuter1"/></filter><filter x="-223.1%" y="-188.5%" width="623.1%" height="623.1%" filterUnits="objectBoundingBox" id="j"><feOffset dx="10" dy="19" in="SourceAlpha" result="shadowOffsetOuter1"/><feGaussianBlur stdDeviation="19.5" in="shadowOffsetOuter1" result="shadowBlurOuter1"/><feColorMatrix values="0 0 0 0 0.571189991 0 0 0 0 0.571189991 0 0 0 0 0.571189991 0 0 0 0.5 0" in="shadowBlurOuter1"/></filter><filter x="-527.3%" y="-980%" width="1336.4%" height="2820%" filterUnits="objectBoundingBox" id="l"><feOffset dx="10" dy="19" in="SourceAlpha" result="shadowOffsetOuter1"/><feGaussianBlur stdDeviation="19.5" in="shadowOffsetOuter1" result="shadowBlurOuter1"/><feColorMatrix values="0 0 0 0 0.571189991 0 0 0 0 0.571189991 0 0 0 0 0.571189991 0 0 0 0.5 0" in="shadowBlurOuter1"/></filter><rect id="c" x="9" y="26.505" width="26" height="26" rx="4"/><rect id="g" x="617" y="4.505" width="26" height="26" rx="4"/><rect id="k" x="677.325" y="27.08" width="26" height="26" rx="4"/><path id="e" d="m32 42.505 5.5-5 5.5 5z"/><path id="i" d="m624 35.505 5.5-5 5.5 5z"/><path id="m" d="m669.325 42.08 5.5-5 5.5 5z"/></defs><g transform="translate(23 27.495)" fill="none" fill-rule="evenodd"><rect stroke="#C9C9C9" stroke-width="1.012" fill="#FFF" x="19.506" y="23.011" width="661.987" height="32.987" rx="16.494"/><path d="M374.351 6.505H669c18.225 0 33 14.775 33 33v4c0 18.225-14.775 33-33 33H33c-18.225 0-33-14.775-33-33v-4c0-18.225 14.775-33 33-33h293.784" stroke="#0086B2" stroke-width="2.013"/><path d="m44.002 42.405 2.503-7.254 2.491 7.254h.948L52.81 33.9h-.862l-2.491 7.35-2.503-7.35h-.838l-2.54 7.314-2.454-7.314H40.2l2.867 8.505h.935Zm11.312 0v-3.353c0-.721.2-1.286.602-1.695.4-.41.945-.614 1.634-.614.615 0 1.09.174 1.421.523.332.348.498.854.498 1.518v3.621h.863v-3.706c0-.89-.237-1.57-.71-2.035-.475-.466-1.112-.699-1.914-.699-.535 0-1.009.102-1.422.304-.413.203-.737.49-.972.863V33.39h-.862v9.015h.862Zm9.161.06c.519 0 .966-.092 1.343-.279.376-.186.662-.445.856-.777v.996h.827v-3.96c0-.819-.223-1.437-.669-1.854-.445-.417-1.085-.626-1.92-.626-.502 0-.98.075-1.433.225-.454.15-.842.363-1.166.638l.388.644a2.94 2.94 0 0 1 .96-.553c.373-.133.762-.2 1.167-.2.59 0 1.04.144 1.348.431.308.288.462.707.462 1.258v.388h-2.03c-.858 0-1.483.166-1.876.499-.393.332-.59.77-.59 1.312 0 .559.211 1.008.632 1.348.421.34.988.51 1.701.51Zm.134-.68c-.51 0-.907-.107-1.19-.322-.284-.214-.426-.508-.426-.88 0-.762.547-1.143 1.64-1.143h2.005v1.045c-.17.422-.43.743-.778.966-.348.223-.765.334-1.251.334Zm7.253.68c.26 0 .509-.038.748-.115.239-.077.44-.188.601-.334l-.304-.62a1.284 1.284 0 0 1-.431.244 1.587 1.587 0 0 1-.516.085c-.357 0-.63-.1-.82-.298-.19-.199-.286-.488-.286-.869v-3.815h1.944v-.729h-1.944v-1.397h-.863v1.397H68.85v.73h1.142v3.863c0 .591.162 1.049.486 1.373.324.324.786.486 1.385.486Zm7.898 0c.518 0 .966-.092 1.343-.279.376-.186.662-.445.856-.777v.996h.826v-3.96c0-.819-.222-1.437-.668-1.854-.445-.417-1.085-.626-1.92-.626-.502 0-.98.075-1.433.225-.454.15-.843.363-1.167.638l.39.644a2.94 2.94 0 0 1 .959-.553c.373-.133.761-.2 1.166-.2.592 0 1.041.144 1.349.431.308.288.462.707.462 1.258v.388h-2.03c-.858 0-1.484.166-1.877.499-.392.332-.589.77-.589 1.312 0 .559.21 1.008.632 1.348.421.34.988.51 1.701.51Zm.134-.68c-.51 0-.908-.107-1.191-.322-.284-.214-.425-.508-.425-.88 0-.762.546-1.143 1.64-1.143h2.005v1.045c-.17.422-.43.743-.778.966-.348.223-.765.334-1.251.334Zm6.099.62v-3.256c0-.745.19-1.325.571-1.738.38-.413.907-.62 1.58-.62l.206.013v-.839c-.591 0-1.087.11-1.488.329a2.09 2.09 0 0 0-.906.972v-1.252h-.826v6.391h.863Zm6.56.06c.511 0 .979-.088 1.404-.267.425-.178.78-.437 1.063-.777l-.486-.559c-.243.275-.53.484-.862.626a2.757 2.757 0 0 1-1.094.212c-.704 0-1.288-.204-1.75-.613-.461-.41-.716-.946-.765-1.61h5.346l.012-.267c0-.632-.133-1.193-.4-1.683a2.928 2.928 0 0 0-1.106-1.148c-.47-.276-1-.413-1.592-.413a3.12 3.12 0 0 0-1.598.413c-.474.275-.846.66-1.117 1.154-.272.494-.407 1.053-.407 1.677 0 .623.141 1.182.425 1.676.283.494.678.881 1.184 1.16.507.28 1.088.42 1.744.42Zm2.042-3.632h-4.532c.057-.632.294-1.144.71-1.537.418-.393.934-.59 1.55-.59.624 0 1.144.197 1.561.59.417.393.654.905.711 1.537Zm5.82 5.99c.478 0 .887-.126 1.227-.377.34-.25.64-.676.9-1.276l3.195-7.156h-.85l-2.407 5.431-2.405-5.43h-.9l2.856 6.378-.28.62c-.178.388-.37.664-.577.826a1.174 1.174 0 0 1-.747.243 1.59 1.59 0 0 1-1.166-.486l-.401.644c.194.194.425.34.692.437.268.097.555.146.863.146Zm8.967-2.357c.615 0 1.17-.14 1.664-.42.494-.279.881-.666 1.16-1.16.28-.494.42-1.053.42-1.676 0-.624-.14-1.183-.42-1.677a2.971 2.971 0 0 0-1.16-1.154 3.36 3.36 0 0 0-1.664-.413 3.36 3.36 0 0 0-1.665.413c-.494.275-.883.66-1.166 1.154a3.308 3.308 0 0 0-.426 1.677c0 .623.142 1.182.426 1.676.283.494.672.881 1.166 1.16.494.28 1.05.42 1.665.42Zm0-.766c-.454 0-.861-.103-1.221-.31a2.2 2.2 0 0 1-.85-.88 2.682 2.682 0 0 1-.31-1.3c0-.486.103-.92.31-1.3a2.2 2.2 0 0 1 .85-.881c.36-.207.767-.31 1.22-.31.454 0 .861.103 1.222.31.36.206.642.5.844.88.203.381.304.815.304 1.3 0 .487-.101.92-.304 1.3a2.16 2.16 0 0 1-.844.881c-.36.207-.768.31-1.221.31Zm7.642.766c.51 0 .964-.108 1.36-.322.398-.215.71-.517.936-.905v1.166h.827v-6.39h-.863v3.352c0 .73-.195 1.299-.583 1.708-.39.409-.92.613-1.592.613-.616 0-1.09-.174-1.421-.522-.333-.349-.499-.859-.499-1.531v-3.62h-.862v3.705c0 .899.24 1.581.723 2.047.482.466 1.14.699 1.974.699Zm10.437 0c.826 0 1.472-.164 1.938-.492.466-.328.698-.772.698-1.33 0-.414-.109-.738-.328-.973a1.803 1.803 0 0 0-.79-.498 11.181 11.181 0 0 0-1.227-.291 9.509 9.509 0 0 1-.972-.213 1.457 1.457 0 0 1-.589-.322.756.756 0 0 1-.237-.583c0-.316.14-.571.42-.766.279-.194.694-.291 1.245-.291.729 0 1.357.182 1.883.546l.377-.692c-.268-.178-.608-.322-1.02-.431a4.825 4.825 0 0 0-1.24-.165c-.794 0-1.414.17-1.86.51-.445.341-.667.778-.667 1.313 0 .43.111.765.334 1.008.222.243.492.416.808.517.316.101.733.2 1.251.297.389.065.7.132.936.201.235.069.429.17.583.304.154.133.23.318.23.553a.87.87 0 0 1-.418.771c-.28.182-.711.273-1.294.273-.438 0-.859-.066-1.264-.2a3.274 3.274 0 0 1-1.008-.516l-.39.68c.268.227.639.415 1.112.565.474.15.97.225 1.489.225Zm6.938 0c.51 0 .978-.09 1.403-.268.425-.178.78-.437 1.063-.777l-.486-.559c-.243.275-.53.484-.863.626a2.757 2.757 0 0 1-1.093.212c-.705 0-1.288-.204-1.75-.613-.462-.41-.717-.946-.765-1.61h5.346l.012-.267c0-.632-.134-1.193-.401-1.683a2.928 2.928 0 0 0-1.106-1.148c-.47-.276-1-.413-1.591-.413a3.12 3.12 0 0 0-1.598.413c-.474.275-.847.66-1.118 1.154-.271.494-.407 1.053-.407 1.677 0 .623.142 1.182.425 1.676.284.494.679.881 1.185 1.16.506.28 1.087.42 1.744.42Zm2.04-3.633h-4.531c.056-.632.293-1.144.71-1.537.418-.393.934-.59 1.55-.59.623 0 1.144.197 1.56.59.418.393.655.905.712 1.537Zm4.205 3.633c.518 0 .966-.093 1.342-.28.377-.186.662-.445.857-.777v.996h.826v-3.96c0-.819-.223-1.437-.668-1.854-.446-.417-1.086-.626-1.92-.626-.502 0-.98.075-1.434.225-.453.15-.842.363-1.166.638l.389.644a2.94 2.94 0 0 1 .96-.553c.372-.133.76-.2 1.166-.2.591 0 1.04.144 1.349.431.307.288.461.707.461 1.258v.388h-2.029c-.858 0-1.484.166-1.877.499-.393.332-.59.77-.59 1.312 0 .559.211 1.008.633 1.348.42.34.988.51 1.7.51Zm.133-.68c-.51 0-.907-.108-1.19-.323-.284-.214-.426-.508-.426-.88 0-.762.547-1.143 1.64-1.143h2.005v1.045c-.17.422-.429.743-.777.966-.349.223-.766.334-1.252.334Zm6.1.619v-3.256c0-.745.19-1.325.57-1.738.381-.413.908-.62 1.58-.62l.207.013v-.839c-.592 0-1.088.11-1.489.329a2.09 2.09 0 0 0-.905.972v-1.252h-.826v6.391h.863Zm6.5.06c.542 0 1.033-.107 1.47-.321a2.443 2.443 0 0 0 1.033-.942l-.644-.437a1.97 1.97 0 0 1-.802.704c-.324.154-.677.231-1.057.231-.462 0-.877-.103-1.246-.31a2.187 2.187 0 0 1-.862-.874c-.207-.377-.31-.812-.31-1.306 0-.486.103-.92.31-1.3.206-.381.494-.675.862-.881.369-.207.784-.31 1.246-.31.38 0 .733.079 1.057.237.324.158.591.395.802.71l.644-.437a2.451 2.451 0 0 0-1.027-.942 3.282 3.282 0 0 0-1.476-.322c-.632 0-1.197.138-1.695.414-.498.275-.89.66-1.173 1.154a3.308 3.308 0 0 0-.425 1.677c0 .623.142 1.184.425 1.682a2.99 2.99 0 0 0 1.173 1.16c.498.276 1.063.414 1.695.414Zm4.957-.06v-3.353c0-.721.2-1.286.601-1.695.401-.41.946-.614 1.635-.614.615 0 1.09.174 1.421.523.332.348.498.854.498 1.518v3.621h.863v-3.706c0-.89-.237-1.57-.71-2.035-.475-.466-1.113-.699-1.914-.699-.535 0-1.009.102-1.422.304-.413.203-.737.49-.972.863V33.39h-.863v9.015h.863Zm7.8-7.788a.61.61 0 0 0 .45-.182.61.61 0 0 0 .182-.45.563.563 0 0 0-.182-.42.622.622 0 0 0-.45-.175.61.61 0 0 0-.45.182.583.583 0 0 0-.181.425c0 .17.06.316.182.438a.61.61 0 0 0 .45.182Zm.426 7.788v-6.39h-.863v6.39h.863Zm3.268 0v-3.353c0-.721.2-1.286.601-1.695.401-.41.946-.614 1.635-.614.615 0 1.089.174 1.421.523.332.348.498.854.498 1.518v3.621h.863v-3.706c0-.89-.237-1.57-.71-2.035-.475-.466-1.113-.699-1.915-.699-.55 0-1.034.108-1.451.322a2.4 2.4 0 0 0-.979.906v-1.179h-.826v6.391h.863Zm10.109 2.418c1.069 0 1.869-.261 2.4-.784.53-.522.795-1.326.795-2.412v-5.613h-.826v1.227a2.65 2.65 0 0 0-1.057-.947 3.242 3.242 0 0 0-1.47-.328 3.43 3.43 0 0 0-1.64.388c-.487.26-.87.624-1.149 1.094-.28.47-.419 1.004-.419 1.604 0 .599.14 1.136.42 1.61.279.473.664.842 1.154 1.105.49.263 1.034.395 1.634.395a3.25 3.25 0 0 0 1.44-.316 2.6 2.6 0 0 0 1.05-.923v.814c0 .794-.19 1.379-.57 1.755-.381.377-.977.565-1.787.565-.486 0-.95-.077-1.39-.23a3.283 3.283 0 0 1-1.125-.644l-.437.656c.332.308.763.548 1.294.723.53.174 1.091.26 1.683.26Zm-.073-3.426c-.462 0-.877-.1-1.246-.298a2.16 2.16 0 0 1-.862-.832 2.378 2.378 0 0 1-.31-1.215c0-.454.103-.859.31-1.215a2.12 2.12 0 0 1 .862-.827 2.628 2.628 0 0 1 1.246-.291c.47 0 .889.099 1.257.297.369.199.656.474.863.827.207.352.31.755.31 1.209 0 .453-.103.858-.31 1.215a2.15 2.15 0 0 1-.869.832 2.62 2.62 0 0 1-1.251.298Zm9.878 1.008v-5.662h1.944v-.729h-1.969v-.753c0-.397.096-.697.286-.9.19-.202.472-.303.844-.303.381 0 .697.105.948.316l.292-.644a1.592 1.592 0 0 0-.571-.298 2.413 2.413 0 0 0-.705-.103c-.616 0-1.092.17-1.428.51-.336.34-.504.802-.504 1.385v.79h-1.142v.73h1.142v5.661h.863Zm5.613.06c.616 0 1.17-.139 1.665-.418.494-.28.88-.667 1.16-1.16.28-.495.42-1.054.42-1.677 0-.624-.14-1.183-.42-1.677a2.971 2.971 0 0 0-1.16-1.154 3.36 3.36 0 0 0-1.665-.413 3.36 3.36 0 0 0-1.665.413c-.494.275-.882.66-1.166 1.154a3.308 3.308 0 0 0-.425 1.677c0 .623.142 1.182.425 1.676.284.494.672.881 1.166 1.16.495.28 1.05.42 1.665.42Zm0-.765c-.454 0-.86-.103-1.221-.31a2.2 2.2 0 0 1-.85-.88 2.682 2.682 0 0 1-.31-1.3c0-.486.103-.92.31-1.3a2.2 2.2 0 0 1 .85-.881c.36-.207.767-.31 1.221-.31.454 0 .86.103 1.221.31.36.206.642.5.845.88.202.381.303.815.303 1.3 0 .487-.1.92-.303 1.3a2.16 2.16 0 0 1-.845.881c-.36.207-.767.31-1.22.31Zm5.869.705v-3.256c0-.745.19-1.325.57-1.738.381-.413.908-.62 1.58-.62l.207.013v-.839c-.592 0-1.088.11-1.489.329a2.09 2.09 0 0 0-.905.972v-1.252h-.826v6.391h.863Zm6.621-2.552c0-.364.085-.67.255-.917.17-.247.43-.528.778-.844a8.28 8.28 0 0 0 .626-.62 2.39 2.39 0 0 0 .4-.65 2.22 2.22 0 0 0 .165-.88c0-.649-.253-1.163-.76-1.544-.506-.38-1.184-.57-2.035-.57-1.328 0-2.337.42-3.025 1.263l.644.486c.542-.656 1.316-.984 2.32-.984.608 0 1.086.135 1.434.407.348.27.523.63.523 1.075 0 .332-.083.613-.25.844-.166.231-.423.5-.771.808-.26.227-.47.43-.632.608a2.331 2.331 0 0 0-.407.644c-.11.25-.164.542-.164.874h.9Zm-.45 2.613a.62.62 0 0 0 .456-.189.607.607 0 0 0 .189-.443.59.59 0 0 0-.183-.444.637.637 0 0 0-.461-.176.622.622 0 0 0-.45.176.59.59 0 0 0-.182.444c0 .17.06.318.182.443a.6.6 0 0 0 .45.189Z" fill="#8B6391" fill-rule="nonzero" opacity=".838"/><g filter="url(#a)" transform="translate(655 28.505)" stroke-linecap="round" stroke-linejoin="round"><g transform="translate(2.346 2.474)" stroke="#BBC3C6" stroke-width="2.25"><ellipse cx="6.255" cy="6.598" rx="6.255" ry="6.598"/><path d="m14.074 14.846-3.402-3.588"/></g></g><path d="M621.001 42.56c.423 0 .805-.084 1.145-.252.341-.167.61-.411.805-.733l-.502-.341c-.164.246-.372.429-.624.549-.253.12-.527.18-.824.18-.36 0-.683-.08-.97-.242a1.704 1.704 0 0 1-.673-.681 2.083 2.083 0 0 1-.24-1.018c0-.379.08-.716.24-1.013.161-.296.385-.525.673-.686.287-.161.61-.242.97-.242.297 0 .571.062.824.185.252.123.46.308.624.554l.502-.341a1.91 1.91 0 0 0-.8-.734 2.557 2.557 0 0 0-1.15-.25c-.492 0-.932.107-1.32.321a2.34 2.34 0 0 0-.914.9c-.221.385-.332.82-.332 1.306 0 .486.11.923.332 1.311.22.388.525.69.913.904.389.215.829.322 1.321.322Zm3.862-.048v-7.025h-.672v7.025h.672Zm3.986.047c.398 0 .762-.07 1.093-.208.332-.139.608-.34.829-.606l-.379-.435c-.19.214-.413.377-.672.487-.259.11-.543.166-.852.166-.55 0-1.004-.16-1.363-.478-.36-.319-.559-.737-.597-1.255h4.166l.01-.208c0-.492-.105-.93-.313-1.311a2.282 2.282 0 0 0-.862-.895 2.406 2.406 0 0 0-1.24-.322c-.46 0-.876.108-1.245.322-.369.215-.66.515-.87.9-.212.385-.318.82-.318 1.306 0 .486.11.922.332 1.307.22.385.528.686.923.904.394.217.847.326 1.358.326Zm1.59-2.83h-3.53c.044-.493.228-.892.553-1.198.325-.306.728-.46 1.207-.46.486 0 .892.154 1.217.46.325.306.51.705.553 1.198Zm3.276 2.83c.404 0 .753-.072 1.046-.218.294-.145.516-.347.668-.605v.776h.643v-3.086c0-.638-.173-1.119-.52-1.444-.348-.325-.846-.488-1.496-.488-.391 0-.764.059-1.117.176a2.686 2.686 0 0 0-.91.497l.304.501a2.29 2.29 0 0 1 .748-.43c.29-.105.593-.157.909-.157.46 0 .81.112 1.05.336.24.225.36.551.36.98v.303h-1.58c-.67 0-1.157.13-1.463.388-.307.26-.46.6-.46 1.023 0 .435.164.786.493 1.05.328.266.77.398 1.325.398Zm.104-.53c-.397 0-.707-.084-.928-.25a.814.814 0 0 1-.33-.687c0-.593.425-.89 1.277-.89h1.562v.814c-.132.328-.334.58-.606.753-.271.173-.596.26-.975.26Zm4.753.483v-2.537c0-.58.148-1.032.444-1.354.297-.322.707-.483 1.231-.483l.161.01v-.654c-.46 0-.847.086-1.16.256-.312.17-.547.423-.705.757v-.975h-.644v4.98h.673Z" fill="#D44A6F" fill-rule="nonzero"/><g transform="rotate(-90 22 39.505)"><use fill="#000" filter="url(#b)" xlink:href="#c"/><use fill="#8B6391" xlink:href="#c"/></g><g transform="scale(1 -1) rotate(90 77.505 0)"><use fill="#000" filter="url(#d)" xlink:href="#e"/><use fill="#8B6391" xlink:href="#e"/></g><use fill="#000" filter="url(#f)" xlink:href="#g"/><use fill="#D44A6F" xlink:href="#g"/><g transform="matrix(1 0 0 -1 0 66.01)"><use fill="#000" filter="url(#h)" xlink:href="#i"/><use fill="#D44A6F" xlink:href="#i"/></g><path d="M630.46 21.478a4.7 4.7 0 0 0 1.756-.322 3.678 3.678 0 0 0 1.367-.93l-.57-.57c-.657.68-1.495 1.02-2.516 1.02a3.696 3.696 0 0 1-1.834-.462 3.374 3.374 0 0 1-1.294-1.263 3.502 3.502 0 0 1-.468-1.799c0-.664.156-1.263.468-1.798a3.374 3.374 0 0 1 1.294-1.263 3.696 3.696 0 0 1 1.834-.462c1.013 0 1.851.336 2.515 1.008l.571-.57a3.627 3.627 0 0 0-1.36-.924 4.732 4.732 0 0 0-1.75-.316c-.842 0-1.604.186-2.284.559a4.082 4.082 0 0 0-1.598 1.55c-.385.66-.577 1.398-.577 2.216 0 .819.192 1.558.577 2.218.385.66.915 1.176 1.592 1.549.676.373 1.435.559 2.278.559Z" fill="#FFF" fill-rule="nonzero"/><path d="M350.854 8.505c.924 0 1.74-.176 2.448-.529a3.957 3.957 0 0 0 1.653-1.488c.393-.64.59-1.385.59-2.235 0-.851-.197-1.596-.59-2.236a3.957 3.957 0 0 0-1.653-1.488C352.594.176 351.778 0 350.854 0h-3.863v8.505h3.863Zm-.097-1.616h-1.798V1.616h1.798c.85 0 1.529.237 2.035.71.506.475.76 1.117.76 1.927s-.254 1.451-.76 1.925-1.184.711-2.035.711Z" fill="#0086B2" fill-rule="nonzero"/><g transform="rotate(90 690.325 40.08)"><use fill="#000" filter="url(#j)" xlink:href="#k"/><use fill="#1E3D49" xlink:href="#k"/></g><g transform="matrix(0 1 1 0 635.245 -635.245)"><use fill="#000" filter="url(#l)" xlink:href="#m"/><use fill="#1E3D49" xlink:href="#m"/></g><path d="M691.142 43.83c1.053 0 1.849-.196 2.387-.59.539-.392.808-.953.808-1.682 0-.567-.152-1.03-.455-1.391-.304-.36-.735-.602-1.294-.723.405-.162.723-.407.953-.735.231-.328.347-.727.347-1.197 0-.697-.261-1.235-.784-1.616-.522-.38-1.257-.571-2.205-.571h-3.67v8.505h3.913Zm-.304-4.678h-2.71v-3.086h2.71c.689 0 1.22.132 1.592.395.372.263.559.646.559 1.148 0 .502-.187.885-.56 1.148-.372.264-.902.395-1.59.395Zm.292 3.937h-3.001v-3.196h3c1.54 0 2.31.53 2.31 1.592 0 .55-.195.956-.584 1.215-.389.26-.964.389-1.725.389ZM18.354 43.905l1.02-2.272h4.74l1.02 2.272h.947L22.193 35.4h-.886l-3.888 8.505h.935Zm5.431-3.001h-4.082l2.04-4.568 2.042 4.568Z" fill="#FFF" fill-rule="nonzero"/></g></svg>